<?xml version="1.0" encoding="utf-8"?>
<!-- Generator: Adobe Illustrator 22.1.0, SVG Export Plug-In . SVG Version: 6.00 Build 0)  -->
<svg version="1.1" id="Layer_1" xmlns="http://www.w3.org/2000/svg" xmlns:xlink="http://www.w3.org/1999/xlink" x="0px" y="0px"
	 viewBox="0 0 100 100" style="enable-background:new 0 0 100 100;" xml:space="preserve">
<style type="text/css">
	.st0{fill:#00979D;stroke:#81C9CB;stroke-width:2.985769e-02;stroke-miterlimit:10;}
	
		.st1{opacity:0.5;fill:url(#SVGID_1_);stroke:url(#SVGID_2_);stroke-width:3.203615e-02;stroke-miterlimit:10;enable-background:new    ;}
	.st2{fill:#FFFFFF;}
</style>
<path class="st0" d="M90.4,49.9c0,22.1-17.9,40-40,40c-22.1,0-40-17.9-40-40c0-22.1,17.9-40,40-40C72.5,9.9,90.4,27.8,90.4,49.9
	L90.4,49.9z"/>
<linearGradient id="SVGID_1_" gradientUnits="userSpaceOnUse" x1="-219.1739" y1="681.4744" x2="-175.2459" y2="681.4744" gradientTransform="matrix(1.8212 0 0 1.8212 409.5617 -1191.1038)">
	<stop  offset="0.117" style="stop-color:#FFFFFF;stop-opacity:0"/>
	<stop  offset="0.252" style="stop-color:#C0D1D3;stop-opacity:0.153"/>
	<stop  offset="0.387" style="stop-color:#91B3B7;stop-opacity:0.306"/>
	<stop  offset="0.52" style="stop-color:#6D9FA3;stop-opacity:0.457"/>
	<stop  offset="0.65" style="stop-color:#4D9195;stop-opacity:0.604"/>
	<stop  offset="0.776" style="stop-color:#30888B;stop-opacity:0.746"/>
	<stop  offset="0.895" style="stop-color:#148386;stop-opacity:0.881"/>
	<stop  offset="1" style="stop-color:#008184"/>
</linearGradient>
<linearGradient id="SVGID_2_" gradientUnits="userSpaceOnUse" x1="-219.1899" y1="681.4744" x2="-175.2299" y2="681.4744" gradientTransform="matrix(1.8212 0 0 1.8212 409.5617 -1191.1038)">
	<stop  offset="0" style="stop-color:#FFFFFF;stop-opacity:0"/>
	<stop  offset="0.153" style="stop-color:#C0D1D3;stop-opacity:0.153"/>
	<stop  offset="0.306" style="stop-color:#91B3B7;stop-opacity:0.306"/>
	<stop  offset="0.457" style="stop-color:#6D9FA3;stop-opacity:0.457"/>
	<stop  offset="0.604" style="stop-color:#4D9195;stop-opacity:0.604"/>
	<stop  offset="0.746" style="stop-color:#30888B;stop-opacity:0.746"/>
	<stop  offset="0.881" style="stop-color:#148386;stop-opacity:0.881"/>
	<stop  offset="1" style="stop-color:#008184"/>
</linearGradient>
<path class="st1" d="M90.4,50c0,22.1-17.9,40-40,40c-22.1,0-40-17.9-40-40c0-22.1,17.9-40,40-40C72.5,10,90.4,27.9,90.4,50L90.4,50z
	"/>
<g>
	<path class="st2" d="M65.7,64.2c-0.8,0-1.5-0.1-2.3-0.2c-6.4-0.9-10.6-5.5-13-9c-2.4,3.5-6.6,8.1-13,9c-0.8,0.1-1.5,0.2-2.3,0.2
		c-4,0-7.7-1.5-10.5-4.1c-2.8-2.7-4.4-6.3-4.4-10.2c0-3.9,1.6-7.5,4.4-10.2c2.8-2.7,6.5-4.1,10.5-4.1c0.8,0,1.5,0.1,2.3,0.2
		c6.4,0.9,10.6,5.5,13,9c2.4-3.5,6.6-8.1,13-9c0.8-0.1,1.5-0.2,2.3-0.2c4,0,7.7,1.5,10.5,4.1c2.8,2.7,4.4,6.3,4.4,10.2
		c0,3.9-1.5,7.5-4.4,10.2C73.3,62.8,69.6,64.2,65.7,64.2 M53.2,49.9c1.2,2.4,4.9,8.3,10.9,9.1c0.5,0.1,1.1,0.1,1.6,0.1
		c5.4,0,9.8-4.1,9.8-9.2s-4.4-9.2-9.8-9.2c-0.5,0-1,0-1.6,0.1C58.1,41.7,54.5,47.6,53.2,49.9 M35.1,40.7c-5.4,0-9.8,4.1-9.8,9.2
		c0,5.1,4.4,9.2,9.8,9.2c0.5,0,1,0,1.6-0.1c6-0.9,9.6-6.8,10.9-9.1c-1.2-2.4-4.9-8.3-10.9-9.1C36.2,40.7,35.7,40.7,35.1,40.7"/>
	<path class="st2" d="M31.1,48.5H40v2.9h-8.9V48.5z M69.7,48.5h-3v-3h-2.9v3h-3v2.9h3v3h2.9v-3h3V48.5z"/>
</g>
</svg>
