<?xml version="1.0" encoding="utf-8"?>
<!-- Generator: Adobe Illustrator 22.1.0, SVG Export Plug-In . SVG Version: 6.00 Build 0)  -->
<svg version="1.1" id="Layer_1" xmlns="http://www.w3.org/2000/svg" xmlns:xlink="http://www.w3.org/1999/xlink" x="0px" y="0px"
	 viewBox="0 0 100 100" style="enable-background:new 0 0 100 100;" xml:space="preserve">
<style type="text/css">
	.st0{fill:#22BBE5;}
</style>
<path class="st0" d="M83.8,62C76,52.7,63.9,72.3,57.3,76.7C52.8,79.6,46,79.9,41.2,77c-6.6-3.8-4.5-13.1,2.3-15.4
	c6.1-2,16.9,4.5,20.8-2c4.8-8-11.6-9.9-16.4-9.6c-8.7,0.3-17.2,3.2-22.4,9.9c-5.7,7.1-4.4,15.7,1.9,22.3c6.3,6.1,15.4,8.4,24.5,7.7
	c2.3-0.1,6.3-1.2,9.3-2.8C67.1,83.7,85.4,63.9,83.8,62z M26.3,55c3.1,0.6-2.9-16.4-3.2-18.8c-0.4-2.8-1.5-6.8-4.4-7.3
	c-3.2-0.4-4.2,3.2-3.5,6.6C16,39,23.6,54.4,26.3,55z M51.5,46.3c4.7,0.7,4.4-22,4.4-25c0-2.8,1-10.5-2.6-11.2
	c-5.1-1-5.7,5.8-5.7,9.3C47.7,23.1,46.6,45.5,51.5,46.3z M62.7,49.9c5.1,2.2,9-20.7,9.6-23.6s0.7-9.3-4.5-7.3
	c-2.6,1-3.1,5.2-3.5,7.4C63.9,29.4,58.8,48.2,62.7,49.9z M38,48c5.8,0.4,0.3-22.6-0.1-25.6c-0.4-3.2-2.5-9.5-6.8-5.8
	c-2.2,1.9-1.2,6.1-0.7,8.4C30.6,28.1,33.5,47.6,38,48z"/>
</svg>
