<?xml version="1.0" encoding="utf-8"?>
<!-- Generator: Adobe Illustrator 22.1.0, SVG Export Plug-In . SVG Version: 6.00 Build 0)  -->
<svg version="1.1" id="Layer_1" xmlns="http://www.w3.org/2000/svg" xmlns:xlink="http://www.w3.org/1999/xlink" x="0px" y="0px"
	 viewBox="0 0 100 100" style="enable-background:new 0 0 100 100;" xml:space="preserve">
<style type="text/css">
	.st0{fill:#264DE4;}
	.st1{fill:#2965F1;}
	.st2{fill:#EBEBEB;}
	.st3{fill:#FFFFFF;}
</style>
<path class="st0" d="M50.2,89.7l-28.8-8L15,9.7h70.5l-6.4,72L50.2,89.7L50.2,89.7z"/>
<path class="st1" d="M73.6,77.1l5.5-61.5H50.3v68L73.6,77.1L73.6,77.1z"/>
<path class="st2" d="M29.7,42.3l0.8,8.8h19.8v-8.8H29.7z M28.1,24.4l0.8,8.8h21.3v-8.8L28.1,24.4L28.1,24.4z M50.3,65.2L50.3,65.2
	l-9.9-2.6l-0.6-7h-8.9l1.2,13.9l18.1,5l0,0V65.2z"/>
<path class="st3" d="M70.8,42.3l1.6-17.9H50.2v8.8h12.4l-0.8,9H50.2v8.8h10.9l-1,11.5l-9.8,2.7v9.2l18.1-5l0.1-1.5l2.1-23.2
	L70.8,42.3L70.8,42.3z"/>
</svg>
