<?xml version="1.0" encoding="utf-8"?>
<!-- Generator: Adobe Illustrator 22.1.0, SVG Export Plug-In . SVG Version: 6.00 Build 0)  -->
<svg version="1.1" id="Layer_1" xmlns="http://www.w3.org/2000/svg" xmlns:xlink="http://www.w3.org/1999/xlink" x="0px" y="0px"
	 viewBox="0 0 100 100" style="enable-background:new 0 0 100 100;" xml:space="preserve">
<style type="text/css">
	.st0{fill:#E34E26;}
	.st1{fill:#EF662A;}
	.st2{fill:#FFFFFF;}
	.st3{fill:#EBEBEB;}
</style>
<g id="Logo_artwork">
</g>
<g id="Guides_to_delete">
	<g>
		<polygon class="st0" points="21.4,82 15,10 85.5,10 79.1,82 50.2,90 		"/>
		<polygon class="st1" points="50.2,15.9 50.2,83.9 73.6,77.4 79.1,15.9 		"/>
		<polygon class="st2" points="28.1,24.7 30.5,51.4 61.1,51.4 60.1,62.9 50.2,65.5 40.4,62.9 39.7,55.5 30.9,55.5 32.1,69.7 
			50.2,74.7 68.3,69.7 70.8,42.6 38.6,42.6 37.8,33.5 71.5,33.5 71.6,33.5 72.4,24.7 		"/>
		<g>
			<polygon class="st3" points="50.2,24.7 28.1,24.7 30.5,51.4 50.2,51.4 50.2,42.6 38.6,42.6 37.8,33.5 50.2,33.5 			"/>
			<polygon class="st3" points="50.2,65.5 50.2,65.5 40.4,62.9 39.7,55.5 30.9,55.5 32.1,69.7 50.2,74.7 50.2,74.7 			"/>
		</g>
	</g>
</g>
</svg>
