<?xml version="1.0" encoding="utf-8"?>
<!-- Generator: Adobe Illustrator 22.1.0, SVG Export Plug-In . SVG Version: 6.00 Build 0)  -->
<svg version="1.1" id="Layer_1" xmlns="http://www.w3.org/2000/svg" xmlns:xlink="http://www.w3.org/1999/xlink" x="0px" y="0px"
	 viewBox="0 0 100 100" style="enable-background:new 0 0 100 100;" xml:space="preserve">
<style type="text/css">
	.st0{fill:#FB503B;}
</style>
<title>laravel</title>
<path class="st0" d="M86.8,48.5c-0.6-0.6-7.9-9.8-9.1-11.3c-1.3-1.5-1.9-1.2-2.8-1.1c-0.9,0.1-10.1,1.7-11.1,1.8
	c-1,0.2-1.7,0.6-1,1.5c0.6,0.9,6.7,9.4,8,11.4l-24.2,5.8L27.3,24.4c-0.8-1.1-1-1.5-2.7-1.4S9.5,24.2,8.5,24.2c-1,0.1-2,0.5-1,2.8
	S23.7,62,24,62.9c0.4,1,1.5,2.5,4.1,1.9c2.7-0.7,11.8-3,16.8-4.4c2.7,4.8,8,14.5,9,15.9c1.3,1.9,2.3,1.5,4.3,1
	c1.6-0.5,24.9-8.8,26-9.3s1.7-0.8,1-1.8c-0.6-0.8-6.7-9-9.9-13.3c2.2-0.6,10.1-2.7,10.9-2.9C87.2,49.6,87.4,49.1,86.8,48.5
	L86.8,48.5z M42.8,57.6c-0.3,0.1-13.9,3.3-14.5,3.5c-0.8,0.2-0.8,0.1-0.8-0.2C27.3,60.6,11.3,27.5,11,27.1c-0.2-0.4-0.2-0.8,0-0.8
	s12.8-1.1,13.2-1.1c0.5,0,0.4,0.1,0.6,0.4c0,0,17.8,30.7,18.1,31.2C43.3,57.3,43.1,57.5,42.8,57.6L42.8,57.6z M81,64.7
	c0.2,0.4,0.5,0.6-0.3,0.8c-0.7,0.3-22.9,7.8-23.4,8s-0.8,0.3-1.3-0.6c-0.6-0.9-7.8-13.3-7.8-13.3l23.7-6.2c0.6-0.2,0.8-0.3,1.1,0.3
	C73.4,54.3,80.9,64.4,81,64.7L81,64.7z M82.6,48c-0.6,0.1-9.2,2.3-9.2,2.3l-7.1-9.7c-0.2-0.3-0.4-0.6,0.1-0.7s8.6-1.5,8.9-1.6
	s0.7-0.2,1.1,0.5c0.5,0.6,6.6,8.4,6.8,8.7C83.5,47.7,83.1,47.9,82.6,48L82.6,48z"/>
</svg>
