<?xml version="1.0" encoding="utf-8"?>
<!-- Generator: Adobe Illustrator 22.1.0, SVG Export Plug-In . SVG Version: 6.00 Build 0)  -->
<svg version="1.1" id="Ebene_1" xmlns="http://www.w3.org/2000/svg" xmlns:xlink="http://www.w3.org/1999/xlink" x="0px" y="0px"
	 viewBox="0 0 100 100" style="enable-background:new 0 0 100 100;" xml:space="preserve">
<style type="text/css">
	.st0{fill:#7BA02D;}
</style>
<g>
	<path class="st0" d="M52.6,42.5l-1.1,0.7c-1.3-0.2-2.9-0.2-2.9-0.2c0.9,0.7,1.3,1.3,1.3,2.1c0,2.8-4.8,5.3-10.9,5.3
		c-1.7,0-3.3-0.2-4.9-0.5c-1.3,0.5-1.6,0.7-1.6,1.3c0,0.2,0.2,0.6,0.7,0.9c0.9,0.5,2.2,0.6,6.2,1.3c4.9,0.6,6.4,0.9,7.8,1.5
		c1.7,0.6,2.6,1.5,2.6,2.5c0,2.8-6.2,5.1-14.9,5.1c-7.5,0-12.4-1.6-12.4-3.8c0-0.9,0.7-1.8,2.4-2.5c1.1-0.5,2.1-0.7,4.8-1.5l1.7-0.5
		c-2.7-0.6-3.8-1.3-3.8-1.8c0-0.5,0.7-1.3,2.5-1.8l1.3-0.5l0.9-0.4c-1.7-0.9-2.5-1.7-2.5-2.8c0-3.1,5.1-5.4,11.7-5.4
		c1.8,0,2.9,0.2,4.8,0.5h5.1c2.5,0,0.4,0.2,2.1,0l0.2,0.2L52.6,42.5z M42.3,55.8c-0.9-0.2-2-0.5-4-0.7c-2.1-0.2-3.4-0.5-4.3-0.5
		h-0.2c-0.9,0-2.7,0.5-4.2,0.9c-2.1,0.7-3.1,1.6-3.1,2.6c0,1.7,3.4,2.8,8.7,2.8s9.3-1.3,9.3-3.2C44.7,56.9,43.9,56.4,42.3,55.8z
		 M40.4,42.4h-0.2c-3.4,0-5.6,1.7-5.6,4.2c0,1.8,1.6,2.8,4.5,2.8c3.4,0,5.9-1.7,5.9-4C44.7,43.5,43.1,42.4,40.4,42.4z"/>
	<path class="st0" d="M57.6,53.1v-6.7c0-1.6-0.9-2.1-1.8-2.1c-0.9,0-1.8,0.5-1.8,2.1v6.9h-2.8V41.8h2.7v1.1c0.7-0.7,1.8-1.3,2.8-1.3
		c1.1,0,2.1,0.4,2.7,0.9c0.9,0.9,1.1,2,1.1,3.2v7.3L57.6,53.1L57.6,53.1z"/>
	<path class="st0" d="M70.4,51.7c-0.7,0.7-1.8,1.3-3.6,1.3s-2.8-0.6-3.4-1.3c-1.1-1.1-1.3-2.4-1.3-4.4s0.2-3.3,1.3-4.4
		c0.7-0.7,1.8-1.3,3.4-1.3c1.7,0,2.8,0.6,3.6,1.3c1.1,1.1,1.3,2.4,1.3,4.4S71.6,50.6,70.4,51.7z M68.2,44.5
		c-0.4-0.4-0.7-0.5-1.3-0.5c-0.5,0-0.9,0.2-1.3,0.5c-0.6,0.6-0.6,1.6-0.6,2.7s0,2.2,0.6,2.7c0.4,0.4,0.7,0.5,1.3,0.5
		c0.5,0,0.9-0.2,1.3-0.5c0.6-0.6,0.6-1.6,0.6-2.7C68.9,46.2,68.9,45.2,68.2,44.5z"/>
	<path class="st0" d="M77.2,53.1c-2.4,0-3.3-1.6-3.3-3.2V37.6h2.8v12c0,0.7,0.2,0.9,0.9,0.9h1.1v2.4L77.2,53.1L77.2,53.1L77.2,53.1z
		"/>
	<path class="st0" d="M80.6,39.8v-2.4h2.8v2.4H80.6z M80.6,53.1V41.8h2.8v11.3C83.5,53.1,80.6,53.1,80.6,53.1z"/>
	<path class="st0" d="M92,53.1v-0.9c-0.7,0.7-1.5,1.1-2.8,1.1c-1.3,0-2.2-0.4-2.8-0.9s-0.9-1.6-0.9-2.6c0-1.8,1.3-3.3,4-3.3H92v-0.6
		c0-1.3-0.6-1.8-2.1-1.8c-1.1,0-1.6,0.2-2.2,0.9l-1.8-1.7c1.1-1.3,2.2-1.6,4-1.6c3.2,0,4.8,1.3,4.8,4v7.5H92L92,53.1L92,53.1z
		 M92,48.2h-2.2c-1.1,0-1.6,0.5-1.6,1.3c0,0.9,0.5,1.3,1.6,1.3c0.7,0,1.3,0,1.8-0.5c0.2-0.2,0.4-0.7,0.4-1.5V48.2L92,48.2z"/>
	<path class="st0" d="M14.1,53.1v-6.7c0-1.6-0.9-2.1-1.8-2.1c-0.9,0-1.8,0.5-1.8,2v6.9H7.6v-6.7c0-1.6-0.9-2.1-1.8-2.1
		c-0.9,0-1.8,0.5-1.8,2.1v6.9H1V41.8h2.7v1.1c0.7-0.7,1.8-1.3,2.8-1.3c1.3,0,2.4,0.5,2.9,1.5c0.9-0.9,2-1.5,3.4-1.5
		c1.1,0,2.1,0.4,2.8,0.9c0.9,0.9,1.3,2,1.3,3.2v7.3L14.1,53.1L14.1,53.1z"/>
	<path class="st0" d="M25.1,53.1v-0.9c-0.7,0.7-1.5,1.1-2.8,1.1c-1.3,0-2.2-0.4-2.8-0.9c-0.6-0.6-0.9-1.6-0.9-2.6
		c0-1.8,1.3-3.3,4-3.3h2.7v-0.6c0-1.3-0.6-1.8-2.1-1.8c-1.1,0-1.6,0.2-2.2,0.9L19,43.2c1.1-1.3,2.2-1.6,4-1.6c3.2,0,4.8,1.3,4.8,4
		v7.5H25.1L25.1,53.1L25.1,53.1z M25.1,48.2h-2.2c-1.1,0-1.6,0.5-1.6,1.3c0,0.9,0.5,1.3,1.6,1.3c0.7,0,1.3,0,1.8-0.5
		c0.2-0.2,0.4-0.7,0.4-1.5V48.2L25.1,48.2z"/>
	<g>
		<g>
			<path class="st0" d="M97.5,42.2l-0.4-0.7h-0.2v0.7h-0.5V40h0.9c0.5,0,0.7,0.4,0.7,0.7c0,0.2-0.2,0.5-0.4,0.5l0.4,0.9L97.5,42.2
				L97.5,42.2z M97.3,40.5h-0.4V41h0.4c0.2,0,0.2-0.2,0.2-0.2C97.5,40.6,97.3,40.5,97.3,40.5z"/>
			<path class="st0" d="M94.9,41.1c0-1.3,0.9-2.1,2.1-2.1c1.3,0,2.1,0.9,2.1,2.1c0,1.3-0.9,2.2-2.1,2.2
				C95.9,43.2,94.9,42.2,94.9,41.1z M95.5,41.1c0,0.9,0.6,1.6,1.6,1.6s1.6-0.7,1.6-1.6c0-0.9-0.6-1.6-1.6-1.6
				C96.2,39.5,95.5,40.2,95.5,41.1z"/>
		</g>
	</g>
</g>
</svg>
