<?xml version="1.0" encoding="utf-8"?>
<!-- Generator: Adobe Illustrator 22.1.0, SVG Export Plug-In . SVG Version: 6.00 Build 0)  -->
<svg version="1.1" id="Layer_1" xmlns="http://www.w3.org/2000/svg" xmlns:xlink="http://www.w3.org/1999/xlink" x="0px" y="0px"
	 viewBox="0 0 100 100" style="enable-background:new 0 0 100 100;" xml:space="preserve">
<style type="text/css">
	.st0{fill:#539E43;}
</style>
<g>
	<path class="st0" d="M49.5,90c-1.1,0-2.1-0.3-3.1-0.8l-9.8-5.8c-1.5-0.8-0.7-1.1-0.3-1.2c2-0.7,2.4-0.8,4.4-2
		c0.2-0.1,0.5-0.1,0.7,0.1l7.5,4.5c0.3,0.1,0.7,0.1,0.9,0l29.3-17c0.3-0.1,0.4-0.4,0.4-0.8V33c0-0.4-0.1-0.7-0.4-0.8L49.9,15.3
		c-0.3-0.1-0.7-0.1-0.9,0L19.7,32.2c-0.3,0.1-0.4,0.5-0.4,0.8v33.9c0,0.3,0.1,0.7,0.4,0.8l8,4.6c4.3,2.2,7.1-0.4,7.1-2.9V36
		c0-0.4,0.4-0.9,0.9-0.9h3.7c0.4,0,0.9,0.4,0.9,0.9v33.4c0,5.8-3.2,9.2-8.7,9.2c-1.7,0-3,0-6.8-1.8l-7.7-4.4
		C15.2,71.3,14,69.2,14,67V33.1c0-2.2,1.2-4.3,3.1-5.4l29.3-17c1.8-1,4.3-1,6.2,0l29.3,17c1.9,1.1,3.1,3.2,3.1,5.4V67
		c0,2.2-1.2,4.3-3.1,5.4l-29.3,17C51.6,89.8,50.5,90,49.5,90L49.5,90z M58.5,66.7C45.7,66.7,43,60.8,43,55.8c0-0.4,0.4-0.9,0.9-0.9
		h3.8c0.4,0,0.8,0.3,0.8,0.7c0.6,3.9,2.3,5.8,10.1,5.8c6.2,0,8.8-1.4,8.8-4.7c0-1.9-0.7-3.3-10.4-4.3c-8-0.8-13-2.6-13-9
		c0-6,5-9.5,13.4-9.5c9.4,0,14,3.2,14.6,10.3c0,0.2-0.1,0.4-0.2,0.7c-0.1,0.1-0.4,0.3-0.6,0.3h-3.8c-0.4,0-0.7-0.3-0.8-0.7
		c-0.9-4-3.2-5.4-9.2-5.4c-6.8,0-7.6,2.4-7.6,4.1c0,2.1,1,2.8,10.1,4c9,1.2,13.3,2.9,13.3,9.2C73.2,63,67.9,66.7,58.5,66.7
		L58.5,66.7z"/>
</g>
</svg>
