<?xml version="1.0" encoding="utf-8"?>
<!-- Generator: Adobe Illustrator 22.1.0, SVG Export Plug-In . SVG Version: 6.00 Build 0)  -->
<svg version="1.1" id="Layer_1" xmlns="http://www.w3.org/2000/svg" xmlns:xlink="http://www.w3.org/1999/xlink" x="0px" y="0px"
	 viewBox="0 0 100 100" style="enable-background:new 0 0 100 100;" xml:space="preserve">
<style type="text/css">
	.st0{fill:#FEFEFE;}
	.st1{fill:#020202;}
	.st2{fill:#FBFBFB;}
	.st3{fill:#FAFAFA;}
	.st4{fill:#FDFDFD;}
	.st5{fill:#FCFCFC;}
</style>
<path d="M31.8,10c1.1-0.1,2.3-0.1,3.4-0.2c4.5-0.6,8.9,0.1,13,1.9c3.4,1.5,6.8,1.7,10.1,0c7.2-3.5,13.4-1.8,19.3,3
	c1.7,1.4,3.5,2.9,5.2,4.3c4.6,3.9,6.6,8.9,5.7,14.9c-0.5,3.5-0.5,7.1,0,10.6c0.3,2.6,0.2,5.2-0.4,7.6c-1.1,4.5-0.8,8.8,0.6,13.1
	c3.2,10.1-3.8,22.2-15.6,24.4c-3.9,0.7-7.6-0.4-11.4-0.9c-2.3-0.3-4.5-0.5-6.7,0.1c-4.6,1.3-9.2,1.3-13.9,0.9
	c-3.1-0.3-6.2-0.2-9.2,0.3c-9.1,1.4-21.7-5.8-21.8-18.4C9.9,63.8,8.9,55.9,10.6,48c1.2-5.3-0.2-10.8-0.6-16.2
	c-0.2-2.3-0.5-4.5-0.6-6.8c-0.3-8.5,4.9-14.3,13.3-14.8c3-0.2,6,0,9,0C31.8,10.1,31.8,10,31.8,10z"/>
<path class="st0" d="M14.9,62.8c-0.4-5.2,0-10.2,1.6-15.2c0.8-2.3,0.4-4.8,0-7.2c-0.9-4.7-1.2-9.6-1.6-14.4
	c-0.5-6.7,3.2-10.5,10-10.5c4.2,0,8.4-0.1,12.6-0.8c4.1-0.7,7.7,0.9,10.9,3.5c5.9,4.8,6.8,4.8,12.3-0.3c3.7-3.4,6.6-3.7,10.8-1.1
	c3.5,2.2,6.5,4.9,9.3,7.9c2.4,2.6,2.9,5.7,2.3,9.1c-0.5,3.2-0.5,6.4,0,9.7c0.4,2.9,0.6,5.9-0.4,8.7c-1.7,4.6-1.3,9,0.5,13.4
	c1.8,4.3,1.5,8.5-1.3,12.4c-3.9,5.5-9.6,7.7-16,5.6c-4.6-1.5-9-1.7-13.4,0.2c-3.5,1.5-7.1,1-10.7,0.4c-2.9-0.5-5.7-0.3-8.5,0.2
	c-9.9,1.8-17.7-4.5-18.1-14.5C14.8,67.6,14.9,65.2,14.9,62.8z"/>
<path d="M57,59.4c0,1.4-0.4,2.7-0.8,4c-0.7,2.2-1.1,4.5-1,6.9c0.2,3.7-1.6,6.4-4.8,8c-3,1.5-5.9,0.9-8.6-1.2c-3.1-2.3-4.3-2.3-7.5,0
	c-3.5,2.5-6.9,2.6-10,0.3c-3.3-2.5-4.3-6-2.8-10c1-2.5,0.9-4.8,0.1-7.2c-2.2-6.6,0.4-10.9,7.3-12.4c2.3-0.5,4.4-1.6,6.5-2.6
	c4.4-2.2,7.1-1.9,10.7,1.4c2.3,2.2,4.8,4.1,7.3,6.1C55.5,54.3,57.1,56.4,57,59.4z"/>
<path d="M77.4,47.1c-0.1,3.5-1.8,6-4.8,7.6c-3,1.5-5.9,1.1-8.4-1.1c-3-2.6-6-5.2-9-7.9c-2.5-2.2-3.7-5-2.6-8.3c1.1-3.3,3.5-5.3,7-6
	c2.4-0.5,4.4,0.4,6,2c2.8,2.6,5.7,5.1,8.7,7.6C76.2,42.4,77.4,44.5,77.4,47.1z"/>
<path d="M47.4,28.8c0,4.3-4,8.4-8.3,8.5c-4.2,0-8.4-4.1-8.3-8.2c0-4.3,4-8.4,8.4-8.5C43.3,20.5,47.4,24.5,47.4,28.8z"/>
<path d="M70.4,62.2c4.4,0,7.7,3.5,7.6,8.3c0,4.8-3.5,8.4-8.2,8.4c-4.4,0-7.8-3.7-7.9-8.2C61.9,65.9,65.6,62.2,70.4,62.2z"/>
<path class="st1" d="M27.5,37.3c0,2.1-1.4,3.6-3.5,3.7C22,41,20.2,39.2,20.3,37c0-2,1.6-3.5,3.6-3.6C25.9,33.4,27.5,35.1,27.5,37.3z
	"/>
<path class="st1" d="M26.3,23.6c0,2.1-1.6,3.7-3.7,3.7c-1.9,0-3.5-1.8-3.5-4c0-2,1.6-3.6,3.6-3.6C24.7,19.7,26.2,21.4,26.3,23.6z"/>
<path class="st1" d="M75.3,34.2c-2,0-3.6-1.6-3.6-3.7c0-2.1,1.3-3.6,3.4-3.7c2.1-0.1,3.8,1.6,3.8,3.8C78.9,32.6,77.4,34.1,75.3,34.2
	z"/>
<path class="st1" d="M66.1,26.9c-1.9,0-3.5-1.7-3.5-3.9c0-2.1,1.5-3.6,3.5-3.6c2,0,3.6,1.7,3.7,3.8C69.8,25.2,68.2,26.9,66.1,26.9z"
	/>
<path class="st2" d="M47,73.9c-1.7,0-3.3-1.6-3.2-3.3c0-1.8,1.1-2.7,2.8-2.9c1.7-0.2,3.3,1.4,3.4,3.2C50.1,72.4,48.7,73.8,47,73.9z"
	/>
<path class="st3" d="M48.7,56.3c1.7,0,3.1,1.3,3.1,3.1c0,1.7-1.2,3-2.9,3.1c-1.8,0.1-3.3-1.4-3.3-3.3C45.7,57.5,47,56.3,48.7,56.3z"
	/>
<path class="st2" d="M29,67.6c1.8,0,3,1.3,3,3.2c0,1.8-1.2,3-2.9,3c-1.7,0-3-1.3-3.1-3C25.9,69,27.1,67.7,29,67.6z"/>
<path class="st4" d="M39.8,55.1c-1.7,0-3-1.4-3-3.2c0-1.7,1.2-3,2.9-3c1.8-0.1,3.2,1.5,3.1,3.4C42.8,53.9,41.6,55.1,39.8,55.1z"/>
<path class="st2" d="M32,56.2c0,1.7-1.2,3-3,3c-1.7,0-3.1-1.4-3.2-3.2c-0.1-1.7,1.2-2.9,3-3C30.6,53.1,32,54.4,32,56.2z"/>
<path class="st5" d="M37.9,60.4c1.8,0,3.1,1.3,3.1,3.1c0,1.7-1.2,3-3,3c-1.8,0-3.1-1.3-3.1-3.1C34.9,61.6,36.1,60.4,37.9,60.4z"/>
<path class="st3" d="M60.6,42.7c-1.6,0-3.1-1.5-3.1-3.2c0-1.7,1.2-3,2.9-3.1c1.8-0.1,3.3,1.4,3.2,3.3C63.6,41.3,62.2,42.7,60.6,42.7
	z"/>
<path class="st3" d="M72.2,47.4c0,1.7-1.4,3-3.1,2.9c-1.7,0-3.1-1.5-3.1-3.2c0-1.7,1.4-3.1,3.2-3C70.9,44.2,72.3,45.6,72.2,47.4z"/>
<path class="st5" d="M42.2,29c0,1.8-1.3,3.1-3.2,3c-1.9-0.1-2.8-1.3-2.9-3.1c-0.1-1.8,1.3-3.1,3.1-3.2C40.8,25.8,42.2,27.2,42.2,29z
	"/>
<path class="st3" d="M73.1,70.7c-0.1,1.7-1.4,2.9-3.1,2.9c-1.7,0-3.1-1.5-3-3.3c0.1-1.6,1.5-3,3.1-3C71.7,67.3,73.1,68.9,73.1,70.7z
	"/>
</svg>
