<?xml version="1.0" encoding="utf-8"?>
<!-- Generator: Adobe Illustrator 22.1.0, SVG Export Plug-In . SVG Version: 6.00 Build 0)  -->
<svg version="1.1" id="Layer_1" xmlns="http://www.w3.org/2000/svg" xmlns:xlink="http://www.w3.org/1999/xlink" x="0px" y="0px"
	 viewBox="0 0 100 100" style="enable-background:new 0 0 100 100;" xml:space="preserve">
<style type="text/css">
	.st0{fill:#595A5E;}
</style>
<path class="st0" d="M85.3,10H14.7c-2.6,0-4.7,2.1-4.7,4.7v70.7c0,2.6,2.1,4.7,4.7,4.7h45.9l23.7-23.7V20c0-2.3-1.9-4.2-4.2-4.2H20
	c-2.3,0-4.2,1.9-4.2,4.2v60.1c0,2.3,1.9,4.2,4.2,4.2h40.6l17.9-17.9V25.3c0-2-1.6-3.7-3.7-3.7H25.3c-2,0-3.7,1.6-3.7,3.7v49.5
	c0,2,1.6,3.7,3.7,3.7h35.3l12.1-12.1V30.5c0-1.7-1.4-3.2-3.2-3.2H30.6c-1.7,0-3.2,1.4-3.2,3.2v38.9c0,1.7,1.4,3.2,3.2,3.2h30
	l6.3-6.3V35.9c0-1.5-1.2-2.7-2.7-2.7H35.9c-1.5,0-2.7,1.2-2.7,2.7v28.3c0,1.5,1.2,2.7,2.7,2.7h15.5v-9.5h7.7v-5.9h0.1l-0.1-0.1v-9.8
	H41v15.7h7.7v6.8H35.9V35.9h28.2v29.3l-4.7,4.7H30.6c-0.2,0-0.5-0.2-0.5-0.5V30.6c0-0.2,0.2-0.5,0.5-0.5h38.9c0.2,0,0.5,0.2,0.5,0.5
	v34.7L59.5,75.7H25.3c-0.5,0-0.9-0.4-0.9-0.9V25.3c0-0.5,0.4-0.9,0.9-0.9h49.5c0.5,0,0.9,0.4,0.9,0.9v40L59.4,81.5H20
	c-0.8,0-1.5-0.7-1.5-1.5V20c0-0.8,0.7-1.5,1.5-1.5h60.1c0.8,0,1.5,0.7,1.5,1.5v45.3l-22.1,22H14.7c-1.1,0-1.9-0.8-1.9-1.9V14.7
	c0-1.1,0.8-1.9,1.9-1.9h70.7c1.1,0,1.9,0.8,1.9,1.9v51.6L63.6,90H90V14.7C90,12.1,87.9,10,85.3,10z"/>
</svg>
