<svg width="100" height="100" xmlns="http://www.w3.org/2000/svg" preserveAspectRatio="xMidYMid">
  <g>
    <rect fill="none" id="canvas_background" height="102" width="102" y="-1" x="-1"/>
    <path stroke="null" id="svg_1" fill="#303030" d="m71.899531,66.513858l10.800234,0l0,-25.932117l-12.168105,-12.167766l-7.636969,7.636969l9.00484,9.00484l0,21.457734l0,0.00034zm10.828781,5.413711l-37.672359,0l-9.00518,-9.00416l3.818824,-3.818484l7.43748,7.43748l15.302484,0l-15.074449,-15.102996l3.847031,-3.847031l15.074449,15.074789l0,-15.303164l-7.408934,-7.408934l3.789937,-3.790277l-18.721992,-18.807633l-37.615605,0l10.771687,10.771687l0,0.028547l22.341328,0l7.893551,7.893551l-11.541094,11.541094l-7.893551,-7.893551l0,-6.126703l-10.800234,0l0,10.600746l18.693785,18.693785l-7.608762,7.608422l12.168105,12.168105l52.975183,0l-10.771687,-10.714934l0,-0.00034z"/>
  </g>
</svg>
