<?xml version="1.0" encoding="utf-8"?>
<!-- Generator: Adobe Illustrator 22.1.0, SVG Export Plug-In . SVG Version: 6.00 Build 0)  -->
<svg version="1.1" id="Layer_1" xmlns:rdf="http://www.w3.org/1999/02/22-rdf-syntax-ns#"
	 xmlns="http://www.w3.org/2000/svg" xmlns:xlink="http://www.w3.org/1999/xlink" x="0px" y="0px" viewBox="0 0 100 100"
	 style="enable-background:new 0 0 100 100;" xml:space="preserve">
<style type="text/css">
	.st0{fill:#464342;}
</style>
<g>
	<path class="st0" d="M15.6,50c0,13.7,8,25.6,19.7,31.1l0,0L18.7,35.7C16.7,40.1,15.6,44.9,15.6,50z"/>
	<path class="st0" d="M33.7,31.3v2.1c0,0.2-0.1,0.3-0.3,0.3h-4c-0.4,0-0.6,0.3-0.5,0.7l12.5,36.8L49,48.3L44,34.5
		c-0.2-0.5-0.4-0.8-1.2-0.8h-3.5c-0.2,0-0.3-0.2-0.3-0.3v-2.1c0-0.2,0.1-0.4,0.3-0.3c6.5,0.3,13,0.3,19.6,0c0.2,0,0.3,0.2,0.3,0.3
		v2.1c0,0.2-0.1,0.3-0.3,0.3h-3.5c-0.7,0-0.9,0.3-0.7,0.9L67,70.8l4.5-13.7c5.5-16.6-4.7-18.4-4.4-26.6c0.1-4.1,3.1-5.9,6.1-5.8
		C67.1,19,59,15.6,50,15.6l0,0l0,0c-12.1,0-22.7,6.3-28.9,15.7c3.9,0,8.1-0.1,12.3-0.3C33.6,31,33.7,31.1,33.7,31.3z"/>
	<polygon class="st0" points="61.5,82.4 61.5,82.4 61.5,82.4 	"/>
	<polygon class="st0" points="35.3,81.1 35.3,81.1 35.3,81.1 	"/>
	<path class="st0" d="M40,82.9c3.2,1,6.5,1.5,10,1.5c4,0,7.9-0.7,11.5-2L50.6,52.5L40,82.9z"/>
	<path class="st0" d="M50,10c-22.1,0-40,17.9-40,40s17.9,40,40,40s40-17.9,40-40S72.1,10,50,10z M50,87.6
		c-20.8,0-37.6-16.8-37.6-37.6S29.2,12.4,50,12.4S87.6,29.2,87.6,50S70.8,87.6,50,87.6z"/>
	<path class="st0" d="M80.2,33.6L80.2,33.6L80.2,33.6c0.2,5.1-1.4,11.5-3,16.2L66.5,80.2C77.2,74.3,84.4,63,84.4,50
		C84.4,44.1,82.9,38.5,80.2,33.6z"/>
</g>
</svg>
