<svg xmlns="http://www.w3.org/2000/svg" viewBox="0 0 126 36">
  <g fill="currentColor">
    <path d="M0 36.017v-5.3h4.7v-24.4H0v-5.3h17.9q3.15 0 5.53 1.07 2.37 1.08 3.7 3.06 1.32 1.97 1.32 4.72v.45q0 2.4-.9 3.95t-2.15 2.4-2.4 1.2v.85q1.15.3 2.48 1.13 1.32.82 2.25 2.4.92 1.57.92 4.07v.5q0 2.85-1.37 4.93-1.38 2.07-3.75 3.17-2.38 1.1-5.48 1.1zm10.7-5.45h6.65q2.4 0 3.83-1.17 1.42-1.18 1.42-3.33v-.45q0-2.15-1.4-3.32-1.4-1.18-3.85-1.18H10.7zm0-14.9h6.6q2.3 0 3.73-1.15 1.42-1.15 1.42-3.2v-.5q0-2.05-1.42-3.2-1.43-1.15-3.73-1.15h-6.6zm25.49-8.384 31.227 18.495-2.758 10.08-36.292.024 1.636-5.98 8.27.085 3.444-12.588-7.163-4.136zM46.652 20.2l-2.704 9.887 18.36.15.225-.82z"/>
    <path stroke="null" d="M81.792 35.907q-3.944 0-6.97-1.4-3.038-1.41-4.763-4.072t-1.726-6.508v-1.281H74.2v1.281q0 3.402 2.07 5.078 2.071 1.676 5.522 1.676 3.5 0 5.275-1.43t1.775-3.697q0-1.528-.838-2.484-.838-.967-2.436-1.558-1.607-.592-3.875-1.134l-1.479-.296q-3.401-.789-5.886-1.992-2.494-1.212-3.826-3.135-1.33-1.923-1.33-5.028 0-3.106 1.478-5.325 1.48-2.218 4.19-3.401Q77.553.017 81.2.017t6.508 1.233 4.516 3.697q1.646 2.465 1.646 6.163v1.627h-5.866V11.11q0-2.12-.838-3.402t-2.367-1.873-3.599-.592q-3.056 0-4.634 1.183Q74.99 7.61 74.99 9.78q0 1.38.72 2.346.71.957 2.12 1.578 1.4.611 3.52 1.055l1.478.345q3.55.789 6.212 2.001 2.662 1.203 4.17 3.175 1.5 1.972 1.5 5.127 0 3.106-1.598 5.473-1.607 2.366-4.496 3.697-2.88 1.331-6.823 1.331z"/>
    <path d="M97.062 35.892v-35h6.05v14.7h13.8V.892h6.05v35h-6.05v-14.8h-13.8v14.8z"/>
  </g>
</svg>
