<svg xmlns="http://www.w3.org/2000/svg" viewBox="0 0 72 72">
  <g fill="currentColor">
    <path d="m2.5,34.95059l0,-4.99828l4.43244,0l0,-23.01095l-4.43244,0l0,-4.99828l16.88099,0q2.97068,0 5.21519,1.00909q2.23508,1.01852 3.48937,2.8858q1.24485,1.85785 1.24485,4.4513l0,0.42438q0,2.26337 -0.84876,3.72513t-2.0276,2.26337t-2.26337,1.13169l0,0.80161q1.08453,0.28292 2.33882,1.06567q1.24485,0.77332 2.12191,2.26337q0.86763,1.48062 0.86763,3.8383l0,0.47154q0,2.68775 -1.29201,4.64934q-1.30144,1.95216 -3.53652,2.98954q-2.24451,1.03738 -5.16803,1.03738l-17.02245,0l-0.00002,0zm10.09087,-5.13974l6.27143,0q2.26337,0 3.61197,-1.10339q1.33916,-1.11282 1.33916,-3.14043l0,-0.42438q0,-2.0276 -1.3203,-3.131q-1.3203,-1.11282 -3.63083,-1.11282l-6.27143,0l0,8.91203l0,-0.00001zm0,-14.05177l6.22427,0q2.16907,0 3.51766,-1.08453q1.33916,-1.08453 1.33916,-3.01783l0,-0.47154q0,-1.9333 -1.33916,-3.01783q-1.34859,-1.08453 -3.51766,-1.08453l-6.22427,0l0,8.67626zm24.0389,-7.90671l29.4493,17.44211l-2.60099,9.50616l-34.22596,0.02263l1.54287,-5.63957l7.7992,0.08016l3.24794,-11.87139l-6.75522,-3.90055l1.54287,-5.63957l-0.00001,0.00002zm9.86642,12.18166l-2.55007,9.32415l17.3148,0.14146l0.21219,-0.77332l-14.97692,-8.69229z"/>
    <path d="m14.46909,69.56856q-3.71948,0 -6.57321,-1.3203q-2.86505,-1.32973 -4.49185,-3.84019t-1.62774,-6.13751l0,-1.20807l5.533,0l0,1.20807q0,3.20833 1.95216,4.78892q1.9531,1.58059 5.20764,1.58059q3.30075,0 4.9747,-1.34859t1.67395,-3.48654q0,-1.44101 -0.79029,-2.34259q-0.79029,-0.91195 -2.29732,-1.46931q-1.51552,-0.5583 -3.6544,-1.06944l-1.3948,-0.27915q-3.20739,-0.74408 -5.55092,-1.8786q-2.35202,-1.143 -3.60819,-2.95653q-1.25429,-1.81353 -1.25429,-4.74177q0,-2.92918 1.39386,-5.02186q1.39575,-2.09173 3.95147,-3.20739q2.55855,-1.1166 5.99794,-1.1166t6.13751,1.16281t4.25891,3.48654q1.5523,2.32467 1.5523,5.81215l0,1.53438l-5.53206,0l0,-1.53438q0,-1.99931 -0.79029,-3.20833t-2.23225,-1.76637t-3.39412,-0.5583q-2.88203,0 -4.37019,1.11565q-1.48628,1.1166 -1.48628,3.16306q0,1.30144 0.67901,2.21245q0.66958,0.90252 1.99931,1.48817q1.3203,0.57622 3.31961,0.99494l1.39386,0.32536q3.3479,0.74408 5.85836,1.88709q2.51046,1.13452 3.93261,2.99425q1.41461,1.85974 1.41461,4.83513q0,2.92918 -1.50703,5.16143q-1.51552,2.23131 -4.24005,3.48654q-2.71605,1.25523 -6.43458,1.25523l-0.00094,-0.00094l-0.00001,0z"/>
    <path d="m28.8698,69.55441l0,-33.00751l5.70558,0l0,13.86316l13.01439,0l0,-13.86316l5.70558,0l0,33.00751l-5.70558,0l0,-13.95746l-13.01439,0l0,13.95746l-5.70558,0z"/>
  </g>
</svg>
