<?xml version="1.0" encoding="utf-8"?>
<!-- Generator: Adobe Illustrator 22.1.0, SVG Export Plug-In . SVG Version: 6.00 Build 0)  -->
<svg version="1.1" id="Layer_1" xmlns="http://www.w3.org/2000/svg" x="0px" y="0px"
	 viewBox="0 0 512 512" style="enable-background:new 0 0 512 512;" xml:space="preserve">
<style type="text/css">
	.st0{fill:#666666;}
</style>
<g id="g3284" transform="matrix(3.3946588,0,0,3.3946588,-20.16715,-25.345386)">
	<g id="g3222">
		<path id="path3086" class="st0" d="M65.2,88l-0.1-13.2l12.6-4.7L65,66l-0.2-12.9l-7.7,10.4l-12.6-3.9l7.3,11l-7.1,11l12.4-4.2
			L65.2,88z"/>
		<path id="path3088" class="st0" d="M66.7,101.8h22.5l28.4-31.2L89.1,39.3H66.8l26.6,31.2L66.7,101.8z"/>
	</g>
	<g id="g3274">
		<path id="path3226" class="st0" d="M16.5,118.6c0-4.1,3.4-8,8.1-8c3.2,0,6.8,3.7,6.8,3.7l-3.9,2.2c0,0-0.6-1.7-3-1.7
			s-3.9,2-3.9,3.9c0,2,1.6,3.9,3.8,3.9c1.6,0,3.3-1.7,3.3-1.7l3.3,2.4c0,0-2.5,3-6.7,3C20.3,126,16.5,123.6,16.5,118.6L16.5,118.6z"
			/>
		<path id="path3231" class="st0" d="M40.8,110.8c-4.4,0-7.9,3.4-7.9,7.8s3.5,7.8,7.9,7.8s7.9-3.4,7.9-7.8S45.1,110.8,40.8,110.8z
			 M40.8,114.7c2.2,0,4,1.7,4,3.9c0,2.1-1.8,3.9-4,3.9s-4-1.7-4-3.9S38.6,114.7,40.8,114.7z"/>
		<path id="rect3234" class="st0" d="M51.7,111v14.5h3.9v-7.9l6.3,7.9h3.8V111h-3.9v8.5l-6.2-8.5H51.7z"/>
		<path id="path3239" class="st0" d="M68.6,111l5.2,14.5h5.7l5.2-14.5h-4.2l-3.9,11.6L72.8,111H68.6z"/>
		<path id="path3246" class="st0" d="M87.3,111v14.5H99v-3.3h-7.8v-2.4h7.1v-2.9h-7.1v-2.3h7.9V111H87.3L87.3,111z"/>
		<path id="path3258" class="st0" d="M134.5,111v14.5h11.7v-3.3h-7.9v-2.4h7.1v-2.9h-7.1v-2.3h7.9V111H134.5L134.5,111z"/>
		<path id="rect3260" class="st0" d="M103.3,111.3v14.3h3.3v-5.7h1.9l2.9,5.7h4.4l-2.9-6.1c3.9-2.3,3-7.1-1.2-8.2L103.3,111.3
			L103.3,111.3z M106.7,114.8h4c1.3,0,1.3,2.1,0,2.1h-4V114.8z"/>
		<path id="path3272" class="st0" d="M118,123.6c0.1,0.9,3.7,2.6,7.2,2.6c3.2,0,5.8-1.5,5.8-4.6c0-3.8-4.4-4.7-4.4-4.7
			s-3.7-0.1-3.8-1.7c0-0.8,1.1-1.2,2-1.2c1.6,0,3.4,1.6,3.4,1.6l2.5-2.7c0,0-3.2-2.5-6-2.5c-2.6,0-6.3,1.7-6.3,5.3
			c0,3,4.3,4.4,4.3,4.4s4.6,0.5,4.6,1.9c0,0.9-1.6,1.2-2.6,1.2c-2.3,0-4.3-2-4.3-2L118,123.6z"/>
	</g>
</g>
</svg>
