<?xml version="1.0" encoding="utf-8"?>
<!-- Generator: Adobe Illustrator 22.1.0, SVG Export Plug-In . SVG Version: 6.00 Build 0)  -->
<svg version="1.1" id="Layer_1" xmlns="http://www.w3.org/2000/svg" xmlns:xlink="http://www.w3.org/1999/xlink" x="0px" y="0px"
	 viewBox="0 0 512 512" style="enable-background:new 0 0 512 512;" xml:space="preserve">
<style type="text/css">
	.st0{fill:#666666;}
</style>
<path class="st0" d="M120,190.7H91v133.1h29V190.7z M142.9,323.9h29v-53h57.4v53h29V190.7h-29v53H172v-53h-29V323.9L142.9,323.9z
	 M376,229.2l20-18.9c-6-7.2-13.8-12.9-22.4-16.5c-20.8-8.7-44.3-7.7-64.2,2.5c-10.4,5.6-19,13.8-24.8,24.1
	c-6,10.5-9.1,22.8-9.1,36.8c-0.2,12.3,2.7,24.6,8.4,35.6c5.6,10.4,14,18.9,24.3,24.7c11,6.2,23.5,9.4,36,9.1
	c11.9,0.2,23.6-2.7,34.1-8.4c10.2-5.6,18.5-13.7,24.3-23.7c6-10.3,9.1-22.1,9.1-35.6c0-5.1-0.5-10.3-1.5-15.2h-69v27h38.8
	c-0.5,8-4.6,15.5-11,20.4c-13,9.5-30.2,10.6-44.5,3c-5.9-3.4-10.6-8.5-13.7-14.6c-3.5-6.9-5.2-14.5-5-22.3
	c-0.2-7.4,1.4-14.9,4.7-21.6c3-6.1,7.6-11.3,13.4-14.9c6.1-3.7,13.2-5.6,20.4-5.5C355.9,215.5,366.5,220.1,376,229.2 M440.9,206.8
	c0,7.4-6,13.4-13.4,13.4s-13.4-6-13.4-13.4c0-7.4,6-13.4,13.4-13.4c0,0,0,0,0.1,0c7.3-0.1,13.3,5.7,13.4,13
	C440.9,206.7,440.9,206.8,440.9,206.8 M438.5,206.8c0.1-6-4.8-11.1-10.8-11.1c-6-0.1-11.1,4.8-11.1,10.8c0,0.2,0,0.2,0,0.4
	c-0.1,6,4.8,11.1,10.9,11.1c6,0.1,11.1-4.8,11.1-10.9C438.5,207.1,438.5,207,438.5,206.8 M433.4,213.4h-3l-3.3-5.1h-1.4v5.1h-3
	v-13.2h4.7c3.1,0,5.1,1.3,5.1,4.1v0.1c0.1,1.7-1.1,3.2-2.7,3.6L433.4,213.4z M429.7,204.3c0-1.4-0.9-1.8-2.3-1.8h-1.7v3.9h1.7
	C429,206.3,429.7,205.6,429.7,204.3L429.7,204.3z"/>
</svg>
