<?xml version="1.0" encoding="utf-8"?>
<!-- Generator: Adobe Illustrator 22.1.0, SVG Export Plug-In . SVG Version: 6.00 Build 0)  -->
<svg version="1.1"
	 id="svg2" xmlns:cc="http://creativecommons.org/ns#" xmlns:dc="http://purl.org/dc/elements/1.1/" xmlns:rdf="http://www.w3.org/1999/02/22-rdf-syntax-ns#" xmlns:svg="http://www.w3.org/2000/svg"
	 xmlns="http://www.w3.org/2000/svg" xmlns:xlink="http://www.w3.org/1999/xlink" x="0px" y="0px" viewBox="0 0 40 40"
	 style="enable-background:new 0 0 40 40;" xml:space="preserve">
<style type="text/css">
	.st0{fill-opacity:0.5333;}
	.st1{fill:#FFFFFF;}
</style>
<path id="rect3107-3-4-1-1" class="st0" d="M40,12.7c0-0.1,0-0.2-0.1-0.3l-5.1-5.1c-0.2-0.2-0.4-0.2-0.6,0L20,21.6L5.8,7.4
	c-0.2-0.2-0.4-0.2-0.6,0l-5.1,5.1C0,12.6,0,12.9,0.1,13l14.5,14.5l5.1,5.1c0.1,0.1,0.2,0.1,0.3,0.1c0.1,0,0.1,0,0.2,0
	c0,0,0.1-0.1,0.1-0.1l5.1-5.1L39.9,13C39.9,13,40,12.8,40,12.7L40,12.7z"/>
<path id="rect3107-3-5-2-3" class="st1" d="M39.3,12.7c0-0.1,0-0.1-0.1-0.2l-3.8-3.8c-0.1-0.1-0.3-0.1-0.4,0L20.7,23L5.8,8.1
	c-0.2-0.2-0.4-0.2-0.6,0l-3.7,3.7c-0.2,0.2-0.2,0.4,0,0.6l15.1,15.1l3.8,3.8c0,0,0,0,0.1,0.1c0,0,0,0,0.1,0c0,0,0,0,0,0
	c0.1,0,0.1,0,0.2,0c0,0,0,0,0.1,0c0,0,0,0,0,0l0.1-0.1l3.7-3.7L39.2,13C39.3,12.9,39.3,12.8,39.3,12.7L39.3,12.7z"/>
</svg>
