<?xml version="1.0" encoding="utf-8"?>
<!-- Generator: Adobe Illustrator 22.0.1, SVG Export Plug-In . SVG Version: 6.00 Build 0)  -->
<svg version="1.1" xmlns="http://www.w3.org/2000/svg" xmlns:xlink="http://www.w3.org/1999/xlink" x="0px" y="0px"
	 viewBox="0 0 200 200" style="enable-background:new 0 0 200 200;" xml:space="preserve">
<style type="text/css">
	.st0{fill:none;stroke:#666666;stroke-width:8;stroke-miterlimit:10;}
	.st1{fill:none;stroke:#666666;stroke-width:16;stroke-miterlimit:10;}
	.st2{display:none;}
	.st3{display:inline;}
	.st4{fill:#666666;}
</style>
<g id="Layer_1">
	<g id="Layer_2_1_">
		<g>
			<rect x="24.3" y="29" class="st0" width="150" height="150"/>
			<line class="st1" x1="64.9" y1="12.5" x2="64.9" y2="41.5"/>
			<line class="st1" x1="131.9" y1="12.5" x2="131.9" y2="41.5"/>
			<line class="st0" x1="23.9" y1="66.5" x2="174.9" y2="66.5"/>
		</g>
	</g>
</g>
<g id="Layer_2" class="st2">
	<g class="st3">
		<rect x="71.2" y="76.5" class="st4" width="16" height="16"/>
		<rect x="91.2" y="76.5" class="st4" width="16" height="16"/>
		<rect x="111.2" y="76.5" class="st4" width="16" height="16"/>
		<rect x="131.2" y="76.5" class="st4" width="16" height="16"/>
		<rect x="151.2" y="76.5" class="st4" width="16" height="16"/>
		<rect x="31.2" y="96.5" class="st4" width="16" height="16"/>
		<rect x="51.2" y="96.5" class="st4" width="16" height="16"/>
		<rect x="71.2" y="96.5" class="st4" width="16" height="16"/>
		<rect x="91.2" y="96.5" class="st4" width="16" height="16"/>
		<rect x="111.2" y="96.5" class="st4" width="16" height="16"/>
		<rect x="131.2" y="96.5" class="st4" width="16" height="16"/>
		<rect x="151.2" y="96.5" class="st4" width="16" height="16"/>
		<rect x="31.2" y="116.5" class="st4" width="16" height="16"/>
		<rect x="51.2" y="116.5" class="st4" width="16" height="16"/>
		<rect x="71.2" y="116.5" class="st4" width="16" height="16"/>
		<rect x="91.2" y="116.5" class="st4" width="16" height="16"/>
		<rect x="111.2" y="116.5" class="st4" width="16" height="16"/>
		<rect x="131.2" y="116.5" class="st4" width="16" height="16"/>
		<rect x="151.2" y="116.5" class="st4" width="16" height="16"/>
		<rect x="31.2" y="136.5" class="st4" width="16" height="16"/>
		<rect x="51.2" y="136.5" class="st4" width="16" height="16"/>
		<rect x="71.2" y="136.5" class="st4" width="16" height="16"/>
		<rect x="91.2" y="136.5" class="st4" width="16" height="16"/>
		<rect x="111.2" y="136.5" class="st4" width="16" height="16"/>
		<rect x="131.2" y="136.5" class="st4" width="16" height="16"/>
		<rect x="151.2" y="136.5" class="st4" width="16" height="16"/>
		<rect x="31.2" y="156.5" class="st4" width="16" height="16"/>
		<rect x="51.2" y="156.5" class="st4" width="16" height="16"/>
		<rect x="71.2" y="156.5" class="st4" width="16" height="16"/>
		<rect x="91.2" y="156.5" class="st4" width="16" height="16"/>
		<rect x="111.2" y="156.5" class="st4" width="16" height="16"/>
	</g>
</g>
<g id="Layer_3">
</g>
</svg>
