<?xml version="1.0" encoding="utf-8"?>
<!-- Generator: Adobe Illustrator 15.0.0, SVG Export Plug-In . SVG Version: 6.00 Build 0)  -->
<!DOCTYPE svg PUBLIC "-//W3C//DTD SVG 1.1//EN" "http://www.w3.org/Graphics/SVG/1.1/DTD/svg11.dtd">
<svg version="1.1" id="Layer_1" xmlns="http://www.w3.org/2000/svg" xmlns:xlink="http://www.w3.org/1999/xlink" x="0px" y="0px"
	 width="200px" height="200px" viewBox="0 0 200 200" enable-background="new 0 0 200 200" xml:space="preserve">
<g>
	<path fill="#666666" d="M63.941,5.559v4.77c-7.066,1.342-12.277,3.833-15.632,7.471c-3.356,3.64-5.034,7.79-5.034,12.453
		c0,4.734,0.848,10.616,2.544,17.646c1.695,7.031,2.543,13.16,2.543,18.388c0,4.806-1.431,9.697-4.292,14.678
		c-2.861,4.981-6.978,9.238-12.347,12.771c-3.746,2.474-9.715,4.806-17.911,6.995c8.76,2.756,15.119,5.476,19.077,8.16
		c5.228,3.604,9.149,7.843,11.764,12.718c2.613,4.875,3.921,9.503,3.921,13.884c0,4.239-0.866,9.892-2.597,16.956
		c-1.732,7.065-2.597,13.212-2.597,18.441c0,5.016,1.606,9.343,4.822,12.982c3.214,3.638,8.46,6.164,15.738,7.577v4.981h-3.709
		c-7.207,0.069-14.042-1.59-20.507-4.981s-11.34-7.754-14.625-13.088c-3.286-5.336-4.928-10.511-4.928-15.526
		c0-4.875,1.095-11.552,3.286-20.03c1.625-6.288,2.438-11.905,2.438-16.851c0-5.581-1.767-10.333-5.299-14.255
		c-3.534-3.921-8.69-6.446-15.473-7.577v-6.465c6.783-1.129,11.939-3.745,15.473-7.843c3.532-4.097,5.299-9.078,5.299-14.943
		c0-4.804-0.779-10.209-2.332-16.215c-2.191-8.407-3.286-14.801-3.286-19.182c0-4.592,1.378-9.255,4.133-13.99
		c2.755-4.732,6.216-8.584,10.386-11.552c4.168-2.967,8.725-5.122,13.671-6.465C52.283,6.407,57.44,5.771,63.941,5.559z"/>
	<path fill="#666666" d="M137.067,196.43v-4.875c6.994-1.343,12.188-3.834,15.579-7.472c3.391-3.64,5.087-7.79,5.087-12.453
		s-0.848-10.51-2.544-17.539c-1.695-7.03-2.543-13.159-2.543-18.388c0-4.875,1.412-9.804,4.239-14.784
		c2.825-4.981,6.958-9.237,12.399-12.771c3.744-2.402,9.714-4.733,17.91-6.995c-8.761-2.755-15.12-5.474-19.076-8.161
		c-5.299-3.603-9.256-7.842-11.87-12.717s-3.921-9.502-3.921-13.883c0-4.239,0.865-9.891,2.597-16.957
		c1.73-7.064,2.597-13.177,2.597-18.334c0-5.087-1.59-9.432-4.77-13.036s-8.408-6.147-15.685-7.63V5.559l3.709-0.106
		c7.136-0.069,13.953,1.59,20.454,4.981c6.5,3.391,11.393,7.754,14.679,13.088c3.285,5.335,4.928,10.545,4.928,15.632
		c0,4.806-1.096,11.446-3.285,19.924c-1.626,6.29-2.438,11.906-2.438,16.851c0,5.582,1.748,10.351,5.246,14.307
		c3.497,3.958,8.672,6.465,15.525,7.525v6.464c-6.854,1.131-12.028,3.745-15.525,7.843c-3.498,4.099-5.246,9.079-5.246,14.943
		c0,4.805,0.776,10.21,2.331,16.215c2.12,8.408,3.18,14.801,3.18,19.183c0,4.663-1.361,9.343-4.08,14.042
		c-2.721,4.698-6.165,8.531-10.333,11.499c-4.17,2.968-8.727,5.122-13.672,6.465C148.725,195.476,143.566,196.146,137.067,196.43z"
		/>
</g>
</svg>
