<?xml version="1.0" encoding="utf-8"?>
<!-- Generator: Adobe Illustrator 15.0.0, SVG Export Plug-In . SVG Version: 6.00 Build 0)  -->
<!DOCTYPE svg PUBLIC "-//W3C//DTD SVG 1.1//EN" "http://www.w3.org/Graphics/SVG/1.1/DTD/svg11.dtd">
<svg version="1.1" xmlns="http://www.w3.org/2000/svg" xmlns:xlink="http://www.w3.org/1999/xlink" x="0px" y="0px" width="200px"
	 height="200px" viewBox="0 0 200 200" enable-background="new 0 0 200 200" xml:space="preserve">
<g id="Layer_2">
	<path fill="none" stroke="#666666" stroke-width="8" stroke-linecap="round" stroke-linejoin="round" stroke-miterlimit="10" d="
		M69.895,131.922L47.683,109.71C92.12,11.312,184.156,17.08,184.156,17.08l0.176,0.176c0.001,0.001,5.944,92.212-92.454,136.649
		L69.895,131.922"/>
	<path fill="none" stroke="#666666" stroke-width="8" stroke-linecap="round" stroke-linejoin="round" stroke-miterlimit="10" d="
		M69.465,71.497c-53.069,2.242-57.669,50.489-57.669,50.489s16.982-19.677,35.024-13.44"/>
	
		<polyline fill="none" stroke="#666666" stroke-width="8" stroke-linecap="round" stroke-linejoin="round" stroke-miterlimit="10" points="
		132.121,27.27 152.031,47.18 154.054,49.204 174.547,69.697 	"/>
	<path fill="none" stroke="#666666" stroke-width="8" stroke-linecap="round" stroke-linejoin="round" stroke-miterlimit="10" d="
		M130.091,132.124c-2.242,53.067-50.489,57.668-50.489,57.668s19.677-16.982,13.439-35.025"/>
</g>
<g id="Layer_3">
	<g>
		
			<line fill="none" stroke="#666666" stroke-width="8" stroke-linecap="round" stroke-linejoin="round" stroke-miterlimit="10" x1="57.167" y1="142.528" x2="20.398" y2="179.298"/>
		
			<line fill="none" stroke="#666666" stroke-width="8" stroke-linecap="round" stroke-linejoin="round" stroke-miterlimit="10" x1="42.318" y1="127.68" x2="23.226" y2="146.771"/>
		
			<line fill="none" stroke="#666666" stroke-width="8" stroke-linecap="round" stroke-linejoin="round" stroke-miterlimit="10" x1="73.431" y1="158.792" x2="54.339" y2="177.884"/>
	</g>
</g>
</svg>
