<?xml version="1.0" encoding="utf-8"?>
<!DOCTYPE svg PUBLIC "-//W3C//DTD SVG 1.1//EN" "http://www.w3.org/Graphics/SVG/1.1/DTD/svg11.dtd">
<svg version="1.1" xmlns="http://www.w3.org/2000/svg" xmlns:xlink="http://www.w3.org/1999/xlink"
    x="0px" y="0px" viewBox="0 0 452 346" enable-background="new 0 0 452 346" xml:space="preserve">

    <g>
        <path fill="#404041"
            d="M451,274.8c0,1.2-1,2.1-2.1,2.1H3.1c-1.2,0-2.1-1-2.1-2.1V3.1C1,2,2,1,3.1,1h445.8c1.2,0,2.1,1,2.1,2.1
            V274.8z"/>

        <rect x="19.1" y="19.7" fill="#58595B" width="413.8" height="233"/>

        <path fill="#F4F4F4"
            d="M273.8,276.9h-95.6c0,0-0.5,46.3-10.6,53.9h116.8C274.3,323.2,273.8,276.9,273.8,276.9z"/>

        <path fill="#E6E7E8"
            d="M284.4,330.8H167.6c-10.1,7.6-24.7,13.6,10.6,13.6c35.2,0,47.8,0,47.8,0s12.6,0,47.8,0
            C309,344.3,294.4,338.3,284.4,330.8z"/>
    </g>
</svg>
