<?xml version="1.0" encoding="utf-8"?>
<!DOCTYPE svg PUBLIC "-//W3C//DTD SVG 1.1//EN" "http://www.w3.org/Graphics/SVG/1.1/DTD/svg11.dtd">
<svg version="1.1" xmlns="http://www.w3.org/2000/svg" xmlns:xlink="http://www.w3.org/1999/xlink"
    x="0px" y="0px" viewBox="0 0 46 67" enable-background="new 0 0 46 67" xml:space="preserve">

    <g>
        <g>
            <path fill="#262626"
                d="M45,4.2C45,2.4,43.6,1,41.8,1H4.2C2.4,1,1,2.4,1,4.2V63c0,1.7,1.4,3.2,3.2,3.2h37.7c1.7,0,3.2-1.4,3.2-3.2
                V4.2z"/>

            <path fill="none" stroke="#666" stroke-width=".25" stroke-miterlimit="10"
                d="M45,4.2C45,2.4,43.6,1,41.8,1H4.2
                C2.4,1,1,2.4,1,4.2V63c0,1.7,1.4,3.2,3.2,3.2h37.7c1.7,0,3.2-1.4,3.2-3.2V4.2z"/>
        </g>

        <rect x="3.2" y="7.4" fill="#58595B" width="39.7" height="52.4"/>
        <ellipse fill="#929497" cx="23" cy="4.3" rx="0.4" ry="0.5"/>
        <path fill="#404041"
            d="M24.7,63.1c0-0.9-0.7-1.7-1.7-1.7c-0.9,0-1.7,0.7-1.7,1.7c0,0.9,0.7,1.7,1.7,1.7
            C23.9,64.8,24.7,64.1,24.7,63.1z"/>
    </g>
</svg>
