<svg xmlns="https://www.w3.org/2000/svg" width="100" height="100" viewBox="0 0 100 100">
  <path fill="currentColor" d="M0 13.595c0-3.202 1.12-5.843 3.361-7.924C5.602 3.59 8.516 2.55 12.101 2.55c3.522 0 6.371 1.024 8.548 3.073 2.241 2.113 3.362 4.866 3.362 8.26 0 3.073-1.089 5.634-3.266 7.683-2.24 2.113-5.186 3.17-8.836 3.17h-.096c-3.521 0-6.37-1.057-8.548-3.17S0 16.796 0 13.595zm1.249 84.037V33.475H22.57v64.157H1.249zm33.134 0h21.322V61.808c0-2.241.256-3.97.768-5.186a13.928 13.928 0 0 1 4.082-5.523c1.825-1.505 4.114-2.257 6.867-2.257 7.171 0 10.757 4.834 10.757 14.503v34.287H99.5V60.847c0-9.476-2.24-16.663-6.723-21.561s-10.404-7.347-17.768-7.347c-8.26 0-14.694 3.553-19.304 10.66v.192h-.096l.096-.192v-9.124H34.383c.128 2.05.192 8.42.192 19.113s-.064 25.707-.192 45.044z"/>
</svg>
