<svg xmlns="https://www.w3.org/2000/svg" width="100" height="100" viewBox="0 0 100 100">
  <path fill="currentColor" d="M78.669 14.999H21.33A6.332 6.332 0 0 0 15 21.33v57.34A6.332 6.332 0 0 0 21.33 85h57.34A6.332 6.332 0 0 0 85 78.67V21.33A6.332 6.332 0 0 0 78.67 15zM36.66 75.443a1.843 1.843 0 0 1-1.843 1.843h-7.845a1.843 1.843 0 0 1-1.842-1.843V42.562c0-1.018.825-1.843 1.842-1.843h7.845c1.018 0 1.843.825 1.843 1.843v32.883zm-5.765-37.825a7.452 7.452 0 1 1 0-14.904 7.452 7.452 0 0 1 0 14.904zm46.759 37.974c0 .936-.759 1.694-1.695 1.694h-8.417a1.694 1.694 0 0 1-1.695-1.694V60.168c0-2.301.675-10.083-6.013-10.083-5.187 0-6.24 5.327-6.45 7.717v17.79c0 .936-.76 1.694-1.695 1.694h-8.141a1.694 1.694 0 0 1-1.695-1.694v-33.18c0-.936.759-1.694 1.695-1.694h8.14c.936 0 1.695.758 1.695 1.694v2.869c1.924-2.887 4.782-5.115 10.87-5.115 13.478 0 13.4 12.592 13.4 19.511v15.915z"/>
</svg>
