<svg width="200" height="200" xmlns="http://www.w3.org/2000/svg">
  <g>
    <rect id="svg_1" fill="#FFF" height="200" width="200" y="0" x="0"/>
  </g>
  <g fill="#e2231a">
    <path d="m78.23809,100.72034c-8.87158,24.4158 -21.76191,36.39623 -32.30165,40.1875l-10.23644,-10.16061c4.32205,-5.30778 10.16061,-14.55849 15.7717,-30.10271c10.38809,-28.2829 26.38726,-40.4908 38.51934,-41.55236l7.58255,7.58255c-5.45943,5.30778 -12.8145,15.99917 -19.3355,34.04564" />
    <path d="m111.6013,100.72034c-8.87158,24.4158 -21.76191,36.39623 -32.30165,40.1875l-10.23644,-10.16061c4.32205,-5.30778 10.16061,-14.55849 15.7717,-30.10271c10.38809,-28.2829 26.38726,-40.4908 38.51934,-41.55236l7.58255,7.58255c-5.45943,5.30778 -12.8145,15.99917 -19.3355,34.04564" />
    <path d="m144.96451,100.72034c-8.87158,24.4158 -21.76191,36.39623 -32.30165,40.1875l-10.23644,-10.16061c4.32205,-5.30778 10.16061,-14.55849 15.7717,-30.10271c10.38809,-28.2829 26.38726,-40.4908 38.51934,-41.55236l7.58255,7.58255c-5.45943,5.30778 -12.8145,15.99917 -19.3355,34.04564" />
  </g>
</svg>
