<?xml version="1.0" encoding="utf-8"?>
<!-- Generator: Adobe Illustrator 15.0.0, SVG Export Plug-In . SVG Version: 6.00 Build 0)  -->
<!DOCTYPE svg PUBLIC "-//W3C//DTD SVG 1.1//EN" "http://www.w3.org/Graphics/SVG/1.1/DTD/svg11.dtd">
<svg version="1.1" id="Capa_1" xmlns="http://www.w3.org/2000/svg" xmlns:xlink="http://www.w3.org/1999/xlink" x="0px" y="0px"
	 width="100px" height="100px" viewBox="0 0 100 100" enable-background="new 0 0 100 100" xml:space="preserve">
<g>
	<path fill="#303030" d="M50,0c-0.922,0-1.667,0.745-1.667,1.667V23.82c0,0.922,0.745,1.667,1.667,1.667s1.667-0.745,1.667-1.667
		V3.363c24.965,0.88,45,21.463,45,46.637c0,25.731-20.935,46.667-46.667,46.667S3.333,75.731,3.333,50
		c0-12.434,4.833-24.132,13.61-32.94c0.651-0.653,0.648-1.707-0.003-2.357c-0.653-0.646-1.707-0.646-2.356,0.003
		C5.178,24.144,0,36.678,0,50c0,27.57,22.43,50,50,50s50-22.43,50-50S77.57,0,50,0z"/>
	<path fill="#303030" d="M47.592,55.887c1.023,1.408,2.605,2.293,4.34,2.428c0.155,0.013,0.31,0.019,0.463,0.019
		c1.57,0,3.08-0.62,4.198-1.74c1.229-1.228,1.857-2.927,1.722-4.662c-0.135-1.735-1.02-3.316-2.432-4.343L34.31,31.983
		c-0.66-0.477-1.575-0.403-2.155,0.173c-0.58,0.58-0.652,1.493-0.174,2.155L47.592,55.887z M53.925,50.287
		c0.619,0.45,1.007,1.145,1.067,1.907c0.06,0.76-0.217,1.505-0.755,2.045c-0.54,0.539-1.298,0.813-2.047,0.755
		c-0.76-0.058-1.455-0.448-1.901-1.062L40.767,40.77L53.925,50.287z"/>
</g>
</svg>
