<?xml version="1.0" encoding="utf-8"?>
<!-- Generator: Adobe Illustrator 15.0.0, SVG Export Plug-In . SVG Version: 6.00 Build 0)  -->
<!DOCTYPE svg PUBLIC "-//W3C//DTD SVG 1.1//EN" "http://www.w3.org/Graphics/SVG/1.1/DTD/svg11.dtd">
<svg version="1.1" id="Capa_1" xmlns="http://www.w3.org/2000/svg" xmlns:xlink="http://www.w3.org/1999/xlink" x="0px" y="0px"
	 width="100px" height="100px" viewBox="0 0 100 100" enable-background="new 0 0 100 100" xml:space="preserve">
<g>
	<g>
		<g>
			<path fill="#303030" d="M98.327,96.667H75.428l-13.765-7.646V67.63c3.685,1.582,7.655,2.39,11.666,2.372
				c14.723,0.003,26.662-11.93,26.665-26.653c0.003-14.191-11.111-25.897-25.283-26.63C69.233,3.07,53.728-3.555,40.079,1.923
				C33.335,4.629,27.99,9.975,25.283,16.719C10.58,17.48-0.724,30.016,0.036,44.72c0.733,14.172,12.439,25.286,26.629,25.282
				c4.01,0.018,7.981-0.789,11.666-2.372v21.39l-13.764,7.646h-22.9c-0.92,0-1.667,0.747-1.667,1.667
				c0,0.92,0.746,1.667,1.667,1.667h96.66c0.92,0,1.667-0.747,1.667-1.667C99.994,97.414,99.248,96.667,98.327,96.667z
				 M26.666,66.669C13.783,66.673,3.336,56.232,3.333,43.35C3.33,30.541,13.654,20.125,26.462,20.018
				c0.701-0.006,1.323-0.45,1.557-1.111C32.29,6.769,45.592,0.391,57.73,4.661c6.662,2.344,11.901,7.583,14.245,14.246
				c0.234,0.661,0.856,1.105,1.557,1.111c12.882,0.108,23.237,10.64,23.128,23.523C96.553,56.348,86.138,66.673,73.33,66.669
				c-4.05,0.031-8.049-0.903-11.666-2.725v-4.918l14.51-14.511c0.651-0.65,0.651-1.705,0.001-2.355c0,0-0.001,0-0.001,0l-5-5
				c-0.65-0.651-1.706-0.651-2.356-0.001c0,0,0,0,0,0.001L54.997,50.981V33.339c0-0.92-0.746-1.667-1.667-1.667h-6.666
				c-0.92,0-1.667,0.746-1.667,1.667v17.642L31.177,37.16c-0.65-0.651-1.706-0.651-2.356-0.001c0,0,0,0,0,0.001l-5,5
				c-0.651,0.65-0.651,1.705-0.001,2.355c0,0,0,0,0.001,0l14.51,14.511v4.919C34.714,65.767,30.715,66.701,26.666,66.669z
				 M31.43,96.667l9.378-5.209c0.529-0.294,0.857-0.852,0.856-1.457V58.336c0-0.442-0.176-0.866-0.488-1.178l-13.82-13.82
				l2.643-2.644l15.487,15.487c0.651,0.651,1.706,0.651,2.357,0c0.312-0.312,0.488-0.736,0.488-1.178V35.005h3.333v19.999
				c0,0.92,0.746,1.667,1.666,1.667c0.442,0,0.866-0.176,1.179-0.488l15.487-15.487l2.643,2.644l-13.82,13.82
				c-0.313,0.312-0.488,0.736-0.489,1.178v31.665c0,0.605,0.328,1.163,0.857,1.457l9.377,5.209H31.43z"/>
		</g>
	</g>
	<g>
		<g>
			<path fill="#303030" d="M39.872,17.677c-0.363-0.845-1.344-1.236-2.189-0.872c-0.006,0.002-0.013,0.005-0.019,0.008
				c-3.826,1.558-6.939,4.476-8.742,8.193h-2.256c-3.969-0.012-7.833,1.276-11.001,3.667c-0.737,0.551-0.887,1.595-0.336,2.333
				c0.551,0.737,1.596,0.887,2.333,0.336c0.002-0.001,0.004-0.003,0.006-0.004c2.591-1.956,5.752-3.009,8.999-2.999h3.333
				c0.673,0,1.28-0.405,1.539-1.026c1.362-3.4,4.06-6.092,7.462-7.446C39.845,19.502,40.236,18.522,39.872,17.677z"/>
		</g>
	</g>
	<g>
		<g>
			<path fill="#303030" d="M84.33,28.673c-3.167-2.391-7.032-3.679-11-3.667h-2.257c-1.802-3.717-4.916-6.635-8.741-8.193
				c-0.841-0.374-1.826,0.004-2.2,0.845c-0.375,0.841,0.004,1.826,0.844,2.2c0.006,0.002,0.013,0.005,0.019,0.008
				c3.403,1.354,6.101,4.046,7.462,7.446c0.258,0.622,0.866,1.026,1.539,1.026h3.333c3.247-0.01,6.407,1.043,9,2.999
				c0.737,0.551,1.781,0.4,2.332-0.337C85.209,30.266,85.062,29.226,84.33,28.673z"/>
		</g>
	</g>
	<g>
		<g>
			<rect x="44.998" y="83.335" fill="#303030" width="3.333" height="6.666"/>
		</g>
	</g>
	<g>
		<g>
			<rect x="44.998" y="70.002" fill="#303030" width="3.333" height="10"/>
		</g>
	</g>
</g>
</svg>
