<?xml version="1.0" encoding="utf-8"?>
<!-- Generator: Adobe Illustrator 15.0.0, SVG Export Plug-In . SVG Version: 6.00 Build 0)  -->
<!DOCTYPE svg PUBLIC "-//W3C//DTD SVG 1.1//EN" "http://www.w3.org/Graphics/SVG/1.1/DTD/svg11.dtd">
<svg version="1.1" id="Capa_1" xmlns="http://www.w3.org/2000/svg" xmlns:xlink="http://www.w3.org/1999/xlink" x="0px" y="0px"
	 width="100px" height="100px" viewBox="0 0 100 100" enable-background="new 0 0 100 100" xml:space="preserve">
<g>
	<path fill="#303030" d="M70.649,40.351V20.353C70.649,9.13,60.812,0,48.719,0C36.626,0,26.79,9.13,26.79,20.353v19.999H11v45.614
		V100h77.193V85.965V40.351H70.649z M30.298,20.353c0-9.288,8.263-16.844,18.421-16.844c10.158,0,18.421,7.556,18.421,16.844v19.999
		H30.298V20.353z M84.684,96.491H14.509v-7.018h70.175V96.491z M84.684,85.965H14.509V43.859H26.79h43.859h14.035V85.965z"/>
	<path fill="#303030" d="M49.597,54.386c-3.871,0-7.018,3.147-7.018,7.017V71.93c0,3.87,3.147,7.018,7.018,7.018
		c3.87,0,7.017-3.148,7.017-7.018V61.403C56.614,57.533,53.467,54.386,49.597,54.386z M53.105,71.93
		c0,1.935-1.574,3.509-3.509,3.509s-3.509-1.574-3.509-3.509V61.403c0-1.935,1.574-3.509,3.509-3.509s3.509,1.574,3.509,3.509V71.93
		z"/>
</g>
</svg>
