<?xml version="1.0" encoding="utf-8"?>
<!-- Generator: Adobe Illustrator 15.0.0, SVG Export Plug-In . SVG Version: 6.00 Build 0)  -->
<!DOCTYPE svg PUBLIC "-//W3C//DTD SVG 1.1//EN" "http://www.w3.org/Graphics/SVG/1.1/DTD/svg11.dtd">
<svg version="1.1" id="Capa_1" xmlns="http://www.w3.org/2000/svg" xmlns:xlink="http://www.w3.org/1999/xlink" x="0px" y="0px"
	 width="100px" height="100px" viewBox="0 0 100 100" enable-background="new 0 0 100 100" xml:space="preserve">
<g>
	<path fill="#303030" d="M71.015,61.424c-0.896-0.802-2.271-0.724-3.069,0.169C63.411,66.661,56.872,69.565,50,69.565
		c-6.87,0-13.411-2.905-17.946-7.972c-0.802-0.893-2.174-0.972-3.069-0.169c-0.896,0.8-0.97,2.174-0.169,3.07
		c5.358,5.987,13.08,9.419,21.185,9.419c8.106,0,15.828-3.435,21.185-9.419C71.985,63.598,71.909,62.224,71.015,61.424z"/>
	<path fill="#303030" d="M50,0C22.431,0,0,22.431,0,50s22.431,50,50,50s50-22.431,50-50S77.569,0,50,0z M50,95.652
		C24.826,95.652,4.348,75.174,4.348,50S24.826,4.348,50,4.348S95.652,24.826,95.652,50S75.174,95.652,50,95.652z"/>
	<path fill="#303030" d="M67.391,34.783c-5.993,0-10.869,4.876-10.869,10.87c0,1.2,0.974,2.174,2.174,2.174
		c1.2,0,2.174-0.974,2.174-2.174c0-3.596,2.926-6.522,6.521-6.522s6.522,2.926,6.522,6.522c0,1.2,0.974,2.174,2.174,2.174
		c1.2,0,2.174-0.974,2.174-2.174C78.261,39.659,73.385,34.783,67.391,34.783z"/>
	<path fill="#303030" d="M39.13,45.652c0,1.2,0.974,2.174,2.174,2.174c1.2,0,2.174-0.974,2.174-2.174
		c0-5.994-4.876-10.87-10.87-10.87c-5.994,0-10.87,4.876-10.87,10.87c0,1.2,0.974,2.174,2.174,2.174s2.174-0.974,2.174-2.174
		c0-3.596,2.926-6.522,6.522-6.522C36.204,39.13,39.13,42.057,39.13,45.652z"/>
</g>
</svg>
