<svg version="1.1" xmlns="http://www.w3.org/2000/svg" xmlns:xlink="http://www.w3.org/1999/xlink"
  x="0px" y="0px" viewBox="0 0 100 100" style="enable-background:new 0 0 100 100;" xml:space="preserve">

  <g fill="#FFFFFF">
    <path d="M88.8,43.6H76.8V31.6c0-0.9-0.7-1.7-1.7-1.7h-3.4c-0.9,0-1.7,0.7-1.7,1.7v12.1H57.9c-0.9,0-1.7,0.7-1.7,1.7v3.4
    c0,0.9,0.7,1.7,1.7,1.7H70v12.1c0,0.9,0.7,1.7,1.7,1.7h3.4c0.9,0,1.7-0.7,1.7-1.7V50.4h12.1c0.9,0,1.7-0.7,1.7-1.7v-3.4
    C90.5,44.4,89.7,43.6,88.8,43.6z"/>

    <path d="M48.3,54.2c-2.5-1.8-4.8-4.4-4.9-5.2c0-1.5,0.1-2.2,3.4-4.8c4.3-3.3,6.6-7.7,6.6-12.4c0-4.2-1.3-8-3.5-10.6h1.7
    c0.4,0,0.7-0.1,1-0.3l4.7-3.4c0.6-0.4,0.8-1.2,0.6-1.9c-0.2-0.7-0.9-1.2-1.6-1.2H35.2c-2.3,0-4.7,0.4-7,1.2
    c-7.7,2.7-13.1,9.3-13.1,16c0,9.6,7.4,16.8,17.4,17.1c-0.2,0.8-0.3,1.5-0.3,2.2c0,1.5,0.4,2.9,1.1,4.2c-0.1,0-0.2,0-0.3,0
    c-9.5,0-18,4.6-21.2,11.6c-0.8,1.8-1.3,3.6-1.3,5.4c0,1.7,0.4,3.4,1.3,5c2,3.6,6.4,6.5,12.3,8c3.1,0.8,6.3,1.2,9.7,1.2
    c3.1,0,6-0.4,8.7-1.2c8.4-2.4,13.8-8.6,13.8-15.8C56.4,62.5,54.2,58.4,48.3,54.2z M21.5,69.9c0-5,6.3-9.4,13.6-9.4h0.2
    c1.6,0,3.1,0.3,4.6,0.7c0.5,0.3,1,0.7,1.4,1c3.3,2.3,5.6,3.8,6.2,6.2c0.1,0.6,0.2,1.2,0.2,1.8c0,6.2-4.6,9.4-13.8,9.4
    C26.9,79.6,21.5,75.4,21.5,69.9z M28.1,22.8c1.1-1.3,2.6-2,4.3-2l0.2,0c4.7,0.1,9.2,5.4,10,11.7c0.5,3.5-0.3,6.8-2.1,8.8
    c-1.1,1.3-2.6,2-4.3,2c0,0,0,0,0,0H36c-4.6-0.1-9.2-5.6-10-11.8C25.6,27.9,26.3,24.8,28.1,22.8z"/>
  </g>
</svg>
