<svg version="1.1" xmlns="http://www.w3.org/2000/svg" xmlns:xlink="http://www.w3.org/1999/xlink"
  x="0px" y="0px" viewBox="0 0 100 100" style="enable-background:new 0 0 100 100;" xml:space="preserve">

  <g fill="#FFFFFF">
    <path d="M50.5,8C27,8,8,27,8,50.5c0,18,11.2,33.4,27,39.6c-0.4-3.4-0.7-8.5,0.1-12.2c0.8-3.3,5-21.1,5-21.1s-1.3-2.6-1.3-6.3
    c0-5.9,3.4-10.3,7.7-10.3c3.6,0,5.4,2.7,5.4,6c0,3.6-2.3,9.1-3.5,14.2c-1,4.2,2.1,7.7,6.3,7.7c7.5,0,13.3-8,13.3-19.5
    c0-10.1-7.3-17.3-17.7-17.3C38.2,31.2,31,40.2,31,49.6c0,3.6,1.4,7.6,3.2,9.7c0.3,0.4,0.4,0.8,0.3,1.2c-0.3,1.3-1,4.2-1.1,4.8
    c-0.2,0.8-0.6,1-1.4,0.6c-5.3-2.5-8.6-10.2-8.6-16.5c0-13.4,9.8-25.7,28.1-25.7c14.7,0,26.2,10.5,26.2,24.5
    c0,14.6-9.3,26.4-22,26.4c-4.3,0-8.4-2.2-9.8-4.8c0,0-2.1,8.1-2.6,10.1c-1,3.7-3.6,8.3-5.3,11.2c4,1.2,8.2,1.9,12.6,1.9
    C74,92.9,93,73.9,93,50.4C93,27,74,8,50.5,8z"/>
  </g>
</svg>
