<svg version="1.1" xmlns="http://www.w3.org/2000/svg" xmlns:xlink="http://www.w3.org/1999/xlink"
  x="0px" y="0px" viewBox="0 0 100 100" style="enable-background:new 0 0 100 100;" xml:space="preserve">

  <g fill="#FFFFFF">
    <path d="M80.9,46.9c4.5-0.4,7.5-2.4,8.7-5.2c-1.6,1-6.7,2.1-9.4,1c-0.1-0.7-0.3-1.3-0.4-1.8
    c-2.1-7.8-9.4-14-17-13.3c0.6-0.2,1.2-0.5,1.9-0.7c0.8-0.3,5.7-1.1,5-2.8c-0.7-1.5-6.6,1.2-7.8,1.5c1.5-0.6,4-1.5,4.2-3.2
    c-2.3,0.3-4.5,1.4-6.3,3c0.6-0.7,1.1-1.5,1.2-2.4c-6.1,3.9-9.6,11.7-12.5,19.3c-2.3-2.2-4.3-3.9-6.1-4.9c-5-2.7-11.1-5.5-20.5-9
    c-0.3,3.1,1.5,7.3,6.8,10.1c-1.1-0.2-3.2,0.2-4.9,0.6c0.7,3.6,2.9,6.5,9,8c-2.8,0.2-4.2,0.8-5.5,2.2c1.3,2.5,4.3,5.4,9.8,4.8
    c-6.1,2.6-2.5,7.5,2.5,6.8c-8.5,8.8-22,8.2-29.7,0.8c20.1,27.4,63.9,16.2,70.5-10.2c4.9,0,7.8-1.7,9.5-3.6
    C87.2,48.3,83.1,47.8,80.9,46.9z"/>
  </g>
</svg>
