<?xml version="1.0" encoding="iso-8859-1"?>
<svg version="1.1"
  xmlns="http://www.w3.org/2000/svg"
  xmlns:xlink="http://www.w3.org/1999/xlink"
  x="0px" y="0px" viewBox="0 0 150 100"
  style="enable-background:new 0 0 150 100;"
  xml:space="preserve">

  <g fill="#666666">
    <path d="m43.880154,66.756l-8.011,0l0,-63.596c0,-1.105 -0.896,-2 -2,-2l-16.13,0c-1.104,0 -2,0.895 -2,2l0,63.596l-8.011,0c-0.77,0 -1.472,0.443 -1.804,1.137c-0.332,0.695 -0.236,1.517 0.246,2.117l18.076,26.955c0.38,0.473 0.953,0.746 1.558,0.746s1.178,-0.273 1.558,-0.746l18.076,-26.955c0.482,-0.6 0.578,-1.422 0.246,-2.117c-0.332,-0.694 -1.034,-1.137 -1.804,-1.137z"/>
    <path d="m94.158154,68.222l-13.33,-37.774c-0.282,-0.799 -1.038,-1.334 -1.886,-1.334l-3.861,0c-0.106,0 -0.213,0.008 -0.317,0.025c-0.104,-0.018 -0.21,-0.025 -0.318,-0.025l-3.76,0c-0.85,0 -1.605,0.535 -1.888,1.336l-13.276,37.774c-0.215,0.611 -0.12,1.289 0.255,1.818c0.375,0.529 0.982,0.844 1.632,0.844l5.774,0c0.88,0 1.656,-0.574 1.913,-1.416l2.535,-8.324l14.419,0l2.536,8.324c0.256,0.842 1.033,1.416 1.913,1.416l5.771,0c0.648,0 1.258,-0.314 1.633,-0.844c0.376,-0.531 0.47,-1.209 0.255,-1.82zm-24.134,-15.032c2.397,-7.77 4.02,-13.166 4.82,-16.041l4.928,16.041l-9.748,0z"/>
    <path d="m136.415154,62.961001l-17.817,0l18.928,-27.205c0.232,-0.336 0.357,-0.734 0.357,-1.143l0,-3.416c0,-1.104 -0.896,-2 -2,-2l-26.07,0c-1.104,0 -2,0.896 -2,2l0,3.844c0,1.105 0.896,2 2,2l16.782,0l-18.954,27.176c-0.234,0.336 -0.359,0.734 -0.359,1.145l0,3.441c0,1.105 0.896,2 2,2l27.135,0c1.104,0 2,-0.895 2,-2l0,-3.842c-0.002,-1.106 -0.896,-2 -2.002,-2z"/>
  </g>
</svg>