<?xml version="1.0" encoding="iso-8859-1"?>
<svg version="1.1"
  xmlns="http://www.w3.org/2000/svg"
  xmlns:xlink="http://www.w3.org/1999/xlink"
  x="0px" y="0px" viewBox="0 0 150 100"
  style="enable-background:new 0 0 150 100;"
  xml:space="preserve">

  <g fill="#666666">
    <path d="m43.88015,66.756l-8.011,0l0,-63.596c0,-1.105 -0.896,-2 -2,-2l-16.13,0c-1.104,0 -2,0.895 -2,2l0,63.596l-8.011,0c-0.77,0 -1.472,0.443 -1.804,1.137c-0.332,0.695 -0.236,1.517 0.246,2.117l18.076,26.955c0.38,0.473 0.953,0.746 1.558,0.746s1.178,-0.273 1.558,-0.746l18.076,-26.955c0.482,-0.6 0.578,-1.422 0.246,-2.117c-0.332,-0.694 -1.034,-1.137 -1.804,-1.137z"/>

    <path d="m94.40412,47.59646c-0.58801,-0.58801 -1.53995,-0.58801 -2.12796,0c-0.5865,0.5865 -0.5865,1.53845 0,2.12646c0.58801,0.5865 1.53995,0.5865 2.12796,0c0.5865,-0.58801 0.5865,-1.53995 0,-2.12646z"/>
    <path d="m113.54388,28.4552c-2.93854,-2.93839 -7.69554,-2.93854 -10.63423,0c-2.93087,2.93087 -2.93102,7.70111 0.00045,10.63438c2.93192,2.93012 7.70216,2.93132 10.63378,-0.0003c2.93824,-2.93824 2.93884,-7.69539 0,-10.63408zm-2.12676,8.50718c-1.75846,1.75861 -4.62091,1.75861 -6.38027,0.0003c-1.75876,-1.75981 -1.75891,-4.62226 -0.0003,-6.38072c1.76297,-1.76297 4.6173,-1.76327 6.38057,0c1.76297,1.76282 1.76327,4.6173 0,6.38042z"/>
    <path d="m130.55808,11.4404c-0.29536,-0.29521 -0.69839,-0.45522 -1.11737,-0.43943c-0.34002,0.01218 -8.43604,0.33762 -18.05998,3.73919c-7.71178,2.72289 -14.13973,6.62134 -19.10531,11.58708c-1.1127,1.1127 -2.19548,2.29263 -3.23149,3.51843c-4.9098,-2.89011 -8.84419,-1.98389 -11.33142,-0.65282c-5.72684,3.06486 -9.27159,11.38661 -9.27159,17.33888c0.00045,0.60816 0.36694,1.15662 0.92878,1.38926c0.18603,0.07715 0.38153,0.11459 0.57523,0.11459c0.39145,0 0.77599,-0.15294 1.06368,-0.44048c3.0202,-3.0202 6.74541,-2.83131 7.96233,-2.6713l0.52665,0.52665c-1.03646,2.46633 -1.8714,4.91882 -2.48377,7.30409c-0.22107,0.86321 -0.14648,1.77666 0.18212,2.6122c-1.44791,0.66726 -2.84485,1.64703 -4.06117,2.86335c-3.87108,3.87123 -4.65715,13.30554 -4.68873,13.70526c-0.03459,0.43868 0.12452,0.87058 0.43567,1.18173c0.28318,0.28303 0.66621,0.44048 1.06323,0.44048c0.0394,0 0.07895,-0.0015 0.1185,-0.00466c0.39973,-0.03143 9.83433,-0.8175 13.70541,-4.68858c1.21587,-1.21587 2.19548,-2.61265 2.86274,-4.06027c0.88457,0.34784 1.79501,0.3907 2.61371,0.18091c2.38422,-0.61222 4.83641,-1.44686 7.30304,-2.48347l0.52665,0.52665c0.15986,1.21707 0.34874,4.94228 -2.6713,7.96218c-0.42995,0.4301 -0.55868,1.07691 -0.32589,1.63875c0.23265,0.56199 0.78095,0.92833 1.38926,0.92833c5.95227,0 14.27387,-3.54474 17.33873,-9.27159c1.33106,-2.48693 2.23729,-6.42132 -0.65282,-11.33127c1.22519,-1.03556 2.40527,-2.11833 3.51843,-3.23149c4.96574,-4.96574 8.86404,-11.39368 11.58693,-19.10486c3.40173,-9.62439 3.72701,-17.72056 3.73919,-18.06043c0.01504,-0.41732 -0.14422,-0.82201 -0.43943,-1.11737l-0.00001,0.00001zm-58.75484,31.85668c0.9342,-4.52105 3.64761,-9.48213 7.32905,-11.45248c2.46016,-1.31648 5.14921,-1.18745 8.00835,0.37762c-2.4358,3.20352 -4.55338,6.65487 -6.31846,10.29947c-0.02241,-0.01384 -0.2931,-0.35416 -0.79599,-0.46755c-0.20678,-0.04677 -4.18584,-0.90262 -8.22295,1.24294zm9.83884,23.44034c-2.0678,2.0678 -6.9185,3.1584 -9.98442,3.6037c0.44544,-3.06607 1.53619,-7.91661 3.60385,-9.98426c1.15797,-1.15797 2.50062,-2.03592 3.85018,-2.53039l5.06078,5.06078c-0.49447,1.34956 -1.37227,2.69221 -2.53039,3.85018l0,-0.00001zm6.85609,-4.66602c-0.43522,0.11144 -0.93931,-0.05218 -1.31407,-0.42634c-1.94554,-1.94554 -2.70664,-2.70664 -2.94546,-2.94531c-0.43792,-0.43792 -1.51183,-1.51183 -3.88386,-3.88401c-0.37506,-0.37581 -0.53868,-0.87976 -0.42755,-1.31422c0.48169,-1.87591 1.11165,-3.80055 1.87772,-5.74369l12.43616,12.43616c-1.94344,0.76622 -3.86777,1.39603 -5.74293,1.87742l-0.00001,-0.00001zm21.65616,0.79524c-1.97035,3.68129 -6.93128,6.39486 -11.45218,7.3289c1.44145,-2.71251 1.75921,-6.16552 1.23256,-8.25934c-0.12226,-0.48635 -0.43958,-0.73088 -0.45732,-0.7596c3.6443,-1.76508 7.0955,-3.88266 10.29932,-6.31846c1.56507,2.85944 1.69395,5.54879 0.37762,8.0085zm3.3906,-15.27033c-1.35513,1.35498 -2.81432,2.66408 -4.33713,3.89078c-3.66069,2.94756 -7.68983,5.44427 -11.98846,7.43177l-14.13927,-14.13897c1.9875,-4.29893 4.4842,-8.32807 7.43147,-11.98831c1.22775,-1.52386 2.53671,-2.9832 3.89123,-4.33758c4.45518,-4.45533 10.20503,-8.00113 17.09451,-10.55348l12.60113,12.60113c-2.55205,6.88932 -6.09784,12.63918 -10.55348,17.09466zm11.6355,-20.26644l-10.51137,-10.51137c5.72684,-1.77876 10.70897,-2.44482 13.19575,-2.68424c-0.23956,2.48723 -0.90577,7.46936 -2.68439,13.1956l0.00001,0.00001z"/>
    <path d="m90.14956,73.11663c-0.58756,-0.58726 -1.5398,-0.58696 -2.12691,0.0003l-4.25291,4.25441c-0.58711,0.58741 -0.58696,1.53965 0.0003,2.12676c0.58756,0.58711 1.5398,0.58711 2.12691,-0.0003l4.25291,-4.25441c0.58711,-0.58741 0.58696,-1.53965 -0.0003,-2.12676z"/>
    <path d="m68.88245,51.84937c-0.58711,-0.58741 -1.5392,-0.58741 -2.12676,-0.0003l-4.25441,4.25291c-0.58741,0.58711 -0.58756,1.53935 -0.00045,2.12676c0.58696,0.58711 1.53905,0.58771 2.12676,0.0003l4.25441,-4.25291c0.58741,-0.58711 0.58756,-1.53935 0.00045,-2.12676z"/>
    <path d="m79.51608,75.24474c-0.58696,-0.58726 -1.53935,-0.58726 -2.12676,-0.00015l-10.18714,10.18563c-0.58741,0.58726 -0.58741,1.5395 -0.00015,2.12676c0.58696,0.58726 1.53935,0.58756 2.12676,0.00015l10.18714,-10.18563c0.58741,-0.58726 0.58741,-1.5395 0.00015,-2.12676z"/>
    <path d="m67.48521,75.24474c-0.58711,-0.58726 -1.5395,-0.58726 -2.12676,-0.00015l-10.18714,10.18563c-0.58741,0.58726 -0.58741,1.5395 -0.00015,2.12676c0.58696,0.58726 1.53935,0.58756 2.12676,0.00015l10.18714,-10.18563c0.58741,-0.58726 0.58741,-1.5395 0.00015,-2.12676z"/>
    <path d="m66.75419,62.4827c-0.58711,-0.58711 -1.5395,-0.58711 -2.12676,0.00015l-10.18563,10.18714c-0.58726,0.58741 -0.58726,1.5395 0.00015,2.12691c0.58726,0.58726 1.5395,0.58726 2.12676,-0.00015l10.18563,-10.18714c0.58726,-0.58741 0.58726,-1.5395 -0.00015,-2.12691z"/>
    <path d="m100.78364,41.21528c-0.58741,-0.58726 -1.53935,-0.58726 -2.12691,0l-2.12646,2.12646c-0.58726,0.58726 -0.58726,1.5395 0,2.12691c0.58741,0.58726 1.5395,0.58726 2.12691,0l2.12646,-2.12646c0.58726,-0.58726 0.58726,-1.5395 0,-2.12691z"/>
  </g>
</svg>
