<?xml version="1.0"?>
<svg xmlns="https://www.w3.org/2000/svg" version="1.1" x="0px" y="0px" viewBox="0 0 100 100" style="enable-background:new 0 0 100 100;" xml:space="preserve">
  <path d="M71,14.5c1.2,2.7,1.9,7.2,0.8,10.5c4.7,4,6.3,13.7,4.1,21.7c6.7,0.5,14.6-0.2,19.8,1.8c-4.8-0.6-11.4-1.8-17.6-1.4   c-1.2,0.1-2.9,0-2.8,1.6c7.2,0.6,14.3,1.2,20.2,3c-5.9-1-13-2.4-20.2-2.6c-3,5.9-9,8.8-17.4,9.4c0.9,1.9,2.6,2.7,3,5.8   c0.6,4.7-1,11.6,0.6,14.7c0.7,1.5,2,1.5,2.8,2.8c-2,2.4-7.1-0.3-7.7-2.8c-1-4.4,1.5-11.2-1.2-14.1c0.2,4.8-1.1,11.5,0.2,15.6   c0.5,1.6,2,2.3,1.6,3.9c-9.5,0.9-5.5-12.3-7.1-20.1c-1.4,0.1-0.8,2.1-0.8,3c0,7.6,1.5,18.1-6.7,17.1c-0.2-1.6,1.1-2.1,1.6-3.7   c1.5-4.3-0.3-10.7,0.4-15.9c-3.1,2.3,0.3,10.7-1.6,14.9c-1.1,2.4-4.8,3.5-7.5,2.4c0.4-1.8,2.2-1.5,3-3.2c1.1-2.3,0-5.8,0.4-9.2   c-5.8,1.1-10.4-0.2-12.5-3.9c-1-1.6-1.2-3.6-2.4-5.1c-1.2-1.4-3-1.6-3.7-3.7c7.2-1.7,7.5,7.4,13.9,7.6c2,0.1,3-0.6,4.9-1   c0.5-2.3,1.6-4.1,3.2-5.3c-8-1.1-14.7-3.7-17.8-9.6c-7.3,0.4-14,1.3-20.2,2.8c5.6-2,12.6-2.7,20-3c-0.4-2.6-4.3-1.9-6.7-1.8   c-4.4,0.5-9.9,1.1-13.5,1.7c5.1-1.8,12.3-1.6,19.2-1.6c-2.1-6.6-1.4-17.2,3.2-21.1c-1.3-3.2-0.9-8.7,0.8-11.3   c5.2,0.2,8.3,2.4,11.6,4.7c4.1-1.1,8.2-1.7,13.7-1.4c2.3,0.1,4.8,1.2,6.5,1s3.6-2,5.3-2.8C66.7,15,68.6,14.6,71,14.5z"/>
</svg>
