<?xml version="1.0"?>
<svg xmlns="http://www.w3.org/2000/svg" xmlns:xlink="http://www.w3.org/1999/xlink" version="1.1" x="0px" y="0px" viewBox="0 0 100 100" style="enable-background:new 0 0 100 100;" xml:space="preserve">
  <path d="m78.66892,14.9988l-57.33783,0c-3.49719,0 -6.33229,2.8351 -6.33229,6.33229l0,57.33765c0,3.49737 2.8351,6.33247 6.33229,6.33247l57.33765,0c3.49737,0 6.33247,-2.8351 6.33247,-6.33247l0,-57.33765c0,-3.49719 -2.8351,-6.33229 -6.33229,-6.33229zm-42.00841,60.4447c0,1.01778 -0.825,1.84279 -1.84279,1.84279l-7.8443,0c-1.01778,0 -1.84279,-0.825 -1.84279,-1.84279l0,-32.88299c0,-1.01778 0.825,-1.84279 1.84279,-1.84279l7.8443,0c1.01778,0 1.84279,0.825 1.84279,1.84279l0,32.88299zm-5.76494,-37.82549c-4.11567,0 -7.45214,-3.33648 -7.45214,-7.45214s3.33648,-7.45214 7.45214,-7.45214s7.45214,3.33648 7.45214,7.45214s-3.33629,7.45214 -7.45214,7.45214zm46.75904,37.97392c0,0.93569 -0.75866,1.69435 -1.69435,1.69435l-8.41751,0c-0.93569,0 -1.69435,-0.75866 -1.69435,-1.69435l0,-15.42399c0,-2.30092 0.67492,-10.08273 -6.01306,-10.08273c-5.18769,0 -6.23993,5.32641 -6.45122,7.71676l0,17.78996c0,0.93569 -0.75848,1.69435 -1.69435,1.69435l-8.14117,0c-0.93569,0 -1.69435,-0.75866 -1.69435,-1.69435l0,-33.17986c0,-0.93569 0.75866,-1.69435 1.69435,-1.69435l8.14117,0c0.93569,0 1.69435,0.75866 1.69435,1.69435l0,2.86882c1.9236,-2.88677 4.78234,-5.11494 10.86906,-5.11494c13.47858,0 13.40143,12.59237 13.40143,19.51125l0,15.91474l0,0z"/>
</svg>
