<svg version="1.1" xmlns="http://www.w3.org/2000/svg" xmlns:xlink="http://www.w3.org/1999/xlink"
  x="0px" y="0px" viewBox="0 0 100 100" style="enable-background:new 0 0 100 100;" xml:space="preserve">

  <path d="M81.4,56.8V80H67.9V58.3c0-5.4-2-9.2-6.9-9.2c-3.7,0-5.9,2.5-6.9,4.9c-0.3,0.9-0.4,2.1-0.4,3.3V80H40.3c0,0,0.2-36.7,0-40.5
  h13.5v5.7c0,0.1-0.1,0.1-0.1,0.2h0.1v-0.2c1.8-2.7,5-6.7,12.2-6.7C74.8,38.6,81.4,44.3,81.4,56.8z M26.3,20c-4.6,0-7.6,3-7.6,7
  c0,3.9,2.9,7,7.5,7h0.1c4.7,0,7.6-3.1,7.6-7C33.6,23,30.8,20,26.3,20z M19.4,80h13.5V39.5H19.4V80z"/>
</svg>
