<?xml version="1.0"?>
<svg xmlns="http://www.w3.org/2000/svg" xmlns:xlink="http://www.w3.org/1999/xlink" version="1.1" x="0px" y="0px" viewBox="0 0 100 100" style="enable-background:new 0 0 100 100;" xml:space="preserve">
  <path d="m98.609141,51.999435l-7.368554,-7.384453c-0.584147,-0.585368 -0.912305,-1.379334 -0.912305,-2.207206l0,-9.033982c0,-8.348561 -0.867383,-11.375953 -2.496158,-14.428068c-1.628803,-3.052115 -4.018969,-5.447442 -7.064508,-7.079741c-3.045567,-1.632271 -6.066439,-2.501541 -14.397048,-2.501541l-11.915567,0c-0.344057,0 -0.622937,-0.279518 -0.622937,-0.624296c0,-0.165563 0.06562,-0.324357 0.182433,-0.441447l7.368582,-7.384453c0.584119,-0.585368 1.376365,-0.914247 2.202462,-0.914247l4.143412,0c11.107506,0 15.135354,1.158999 19.196082,3.335407c4.060728,2.17638 7.247607,5.370141 9.419326,9.439608c2.171691,4.069496 3.32822,8.106029 3.32822,19.237452l0,19.545521c0,0.344806 -0.278908,0.624296 -0.622937,0.624296c-0.16523,0 -0.323691,-0.065759 -0.440503,-0.182849zm-50.824177,46.822216l7.368582,-7.384453c0.584119,-0.585368 1.376365,-0.914247 2.202462,-0.914247l9.01456,0c8.330609,0 11.351481,-0.86927 14.397048,-2.501541c3.045539,-1.632299 5.435706,-4.027626 7.064508,-7.079741c1.628775,-3.052115 2.496158,-6.079508 2.496158,-14.428068l0,-11.941233c0,-0.344806 0.278908,-0.624296 0.622964,-0.624296c0.165203,0 0.323663,0.065759 0.440476,0.182849l7.368554,7.384453c0.584147,0.585368 0.912305,1.379334 0.912305,2.207206l0,4.152347c0,11.131423 -1.15653,15.167956 -3.32822,19.237452c-2.171718,4.069468 -5.358598,7.263229 -9.419326,9.439608c-4.060728,2.176408 -8.088576,3.335407 -19.196082,3.335407l-19.503485,0c-0.344057,0 -0.622964,-0.279518 -0.622964,-0.624296c0,-0.165563 0.065648,-0.324357 0.182461,-0.441447zm-46.721524,-50.933692l7.368582,7.384453c0.584119,0.585368 0.912277,1.379334 0.912277,2.207206l0,9.033982c0,8.348561 0.867411,11.375953 2.496186,14.428068c1.628775,3.052115 4.018942,5.447442 7.06448,7.079741c3.045567,1.632271 6.066439,2.501541 14.397075,2.501541l11.91554,0c0.344057,0 0.622964,0.279518 0.622964,0.624296c0,0.165563 -0.065648,0.324357 -0.182461,0.441447l-7.368582,7.384453c-0.584119,0.585368 -1.376365,0.914247 -2.202462,0.914247l-4.143412,0c-11.107506,0 -15.135354,-1.158999 -19.196082,-3.335407c-4.060728,-2.17638 -7.247607,-5.370141 -9.419326,-9.439608c-2.171691,-4.069496 -3.32822,-8.106029 -3.32822,-19.237452l0,-19.545521c0,-0.344806 0.278908,-0.624296 0.622964,-0.624296c0.165203,0 0.323663,0.065759 0.440476,0.182849zm43.455595,-39.437763c-0.584119,0.585368 -1.376365,0.914247 -2.202462,0.914247l-9.014532,0c-8.330636,0 -11.351509,0.86927 -14.397075,2.501541c-3.045539,1.632299 -5.435706,4.027626 -7.06448,7.079741c-1.628775,3.052115 -2.496186,6.079508 -2.496186,14.428068l0,11.941233c0,0.344806 -0.278908,0.624296 -0.622937,0.624296c-0.16523,0 -0.323691,-0.065759 -0.440503,-0.182849l-7.368554,-7.384453c-0.584147,-0.585368 -0.912305,-1.379334 -0.912305,-2.207206l0,-4.152347c0,-11.131423 1.15653,-15.167956 3.32822,-19.237452c2.171718,-4.069468 5.358598,-7.263229 9.419326,-9.439608c4.060728,-2.176408 8.088576,-3.335407 19.196082,-3.335407l19.503485,0c0.344057,0 0.622964,0.279518 0.622964,0.624296c0,0.165563 -0.065648,0.324357 -0.182461,0.441447l-7.368582,7.384453zm38.526346,27.998686l-10.047673,-9.623457c-0.664418,-0.66586 -1.441569,-1.14987 -2.269886,-1.452002c-0.684895,-0.259541 -1.427363,-0.401575 -2.202933,-0.401575l-29.650685,0c-0.344057,0 -0.622964,-0.279518 -0.622964,-0.624296c0,-0.165674 0.065704,-0.324551 0.182627,-0.441641l7.375519,-7.385175c0.584064,-0.584813 1.375921,-0.913331 2.201546,-0.913331l23.628724,0c6.880965,0 12.459093,5.590143 12.459093,12.485924l0,7.904228c0,0.344778 -0.278908,0.624296 -0.622964,0.624296c-0.160319,0 -0.314507,-0.061958 -0.430404,-0.172972zm-19.743298,46.783343l9.602786,-10.069315c0.664418,-0.665833 1.147373,-1.444677 1.448867,-2.274769c0.258958,-0.686365 0.400687,-1.430443 0.400687,-2.207678l0,-29.714613c0,-0.344778 0.278936,-0.624296 0.622964,-0.624296c0.165314,0 0.323857,0.065842 0.440698,0.183044l7.369304,7.39139c0.583564,0.585312 0.911361,1.37889 0.911361,2.206291l0,23.679666c0,6.895782 -5.578128,12.485924 -12.459093,12.485924l-7.88722,0c-0.344029,0 -0.622937,-0.27949 -0.622937,-0.624296c0,-0.16068 0.061819,-0.315172 0.172583,-0.431347zm-46.674882,-19.793714l10.047673,9.623457c0.664418,0.66586 1.441569,1.14987 2.269886,1.452002c0.684895,0.259541 1.427363,0.401575 2.202933,0.401575l29.650713,0c0.344029,0 0.622937,0.279518 0.622937,0.624296c0,0.165674 -0.065704,0.324551 -0.182627,0.441641l-7.375519,7.385175c-0.584064,0.584813 -1.375921,0.913331 -2.201546,0.913331l-23.628724,0c-6.880965,0 -12.459093,-5.590143 -12.459093,-12.485924l0,-7.904228c0,-0.344778 0.278908,-0.624296 0.622964,-0.624296c0.160347,0 0.314507,0.061958 0.430404,0.172972zm19.743298,-46.775463l-9.602786,10.069315c-0.664418,0.665833 -1.147373,1.444677 -1.448867,2.274797c-0.258958,0.686337 -0.400715,1.430415 -0.400715,2.20765l0,29.714613c0,0.344778 -0.27888,0.624296 -0.622937,0.624296c-0.165314,0 -0.323829,-0.065842 -0.44067,-0.183044l-7.369304,-7.39139c-0.583592,-0.585312 -0.911389,-1.37889 -0.911389,-2.206291l0,-23.679666c0,-6.895782 5.578128,-12.485924 12.459093,-12.485924l7.88722,0c0.344057,0 0.622937,0.279518 0.622937,0.624296c0,0.16068 -0.061819,0.315172 -0.172583,0.431347z"/>
</svg>
