<svg version="1.1" xmlns="http://www.w3.org/2000/svg" xmlns:xlink="http://www.w3.org/1999/xlink"
  x="0px" y="0px" viewBox="0 0 100 100" style="enable-background:new 0 0 100 100;" xml:space="preserve">

  <path
    class="Container"
    d="M22.8,50.8l5.2,0.1l-0.2,23.5h34.8V50.9h5.5V80H22.8L22.8,50.8L22.8,50.8z"
  />

  <g class="Stack">
    <path d="M31.3,64.7h27.2v5.8H31.3V64.7z" />
    <path d="M32,54.2l27.3,2.7l-0.6,6l-27.3-2.7L32,54.2z" />
    <path d="M34.5,42.3l26.4,7.5l-1.6,5.8L32.8,48L34.5,42.3z" />
    <path d="M40.8,28.8l23.4,14.3l-3.1,5.1L37.8,34L40.8,28.8z" />
    <path d="M54.2,16.1l15.9,22.4L65.3,42l-16-22.4L54.2,16.1z" />
  </g>
</svg>
