<svg xmlns="https://www.w3.org/2000/svg" width="100" height="100" viewBox="0 0 100 100">
  <path d="M99.828 30.723c-1.46-16.066-12.83-27.721-27.061-27.721-9.481 0-18.162 5.102-23.046 13.279C44.88 7.998 36.555 3 27.226 3 12.997 3 1.625 14.655.167 30.721c-.115.71-.588 4.445.85 10.535C3.09 50.04 7.878 58.031 14.861 64.357L49.697 95.97l35.435-31.613c6.981-6.327 11.771-14.316 13.845-23.104 1.437-6.086.964-9.82.851-10.53zm-4.596 9.652c-1.894 8.024-6.279 15.333-12.674 21.125L49.721 90.797l-32.275-29.29C11.04 55.704 6.656 48.396 4.761 40.373c-1.361-5.764-.802-9.02-.8-9.041l.029-.194C5.24 17.063 15.011 6.846 27.226 6.846c9.014 0 16.948 5.538 20.714 14.452l1.771 4.199 1.771-4.199c3.705-8.777 12.059-14.45 21.285-14.45 12.213 0 21.986 10.217 23.262 24.475.005.03.564 3.288-.797 9.052z"/>
  <path d="M30.767 14.688c-10.604 0-19.23 8.627-19.23 19.23 0 1.063.86 1.923 1.923 1.923a1.92 1.92 0 0 0 1.923-1.923c0-8.483 6.902-15.385 15.385-15.385a1.92 1.92 0 0 0 1.923-1.923 1.924 1.924 0 0 0-1.924-1.922z"/>
</svg>
