<svg xmlns="https://www.w3.org/2000/svg" width="100" height="100" viewBox="0 0 100 100">
  <path d="M71.015 61.424a2.173 2.173 0 0 0-3.069.169C63.411 66.661 56.872 69.565 50 69.565c-6.87 0-13.411-2.905-17.946-7.972a2.173 2.173 0 1 0-3.238 2.901c5.358 5.987 13.08 9.419 21.185 9.419 8.106 0 15.828-3.435 21.185-9.419a2.176 2.176 0 0 0-.171-3.07z"/>
  <path d="M50 0C22.431 0 0 22.431 0 50s22.431 50 50 50 50-22.431 50-50S77.569 0 50 0zm0 95.652C24.826 95.652 4.348 75.174 4.348 50S24.826 4.348 50 4.348 95.652 24.826 95.652 50 75.174 95.652 50 95.652z"/>
  <path d="M67.391 34.783c-5.993 0-10.869 4.876-10.869 10.87a2.175 2.175 0 0 0 4.348 0c0-3.596 2.926-6.522 6.521-6.522s6.522 2.926 6.522 6.522a2.175 2.175 0 0 0 4.348 0c0-5.994-4.876-10.87-10.87-10.87zM39.13 45.652a2.175 2.175 0 0 0 4.348 0c0-5.994-4.876-10.87-10.87-10.87-5.994 0-10.87 4.876-10.87 10.87a2.175 2.175 0 0 0 4.348 0 6.53 6.53 0 0 1 6.522-6.522 6.53 6.53 0 0 1 6.522 6.522z"/>
</svg>
