<svg xmlns="https://www.w3.org/2000/svg" width="100" height="100" viewBox="0 0 100 100">
  <path d="M20.777 44.274H1.914c-.882 0-1.613.731-1.613 1.613S1.032 47.5 1.914 47.5h18.863c.904 0 1.613-.71 1.613-1.613a1.624 1.624 0 0 0-1.613-1.613zm38.631 50.138H40.544c-.882 0-1.613.73-1.613 1.612s.731 1.613 1.613 1.613h18.863c.903 0 1.612-.731 1.612-1.613s-.729-1.612-1.611-1.612zm0-10.023H40.544c-.882 0-1.613.73-1.613 1.613 0 .882.731 1.612 1.613 1.612h18.863a1.61 1.61 0 0 0 1.612-1.612 1.621 1.621 0 0 0-1.611-1.613zm0-10.024H40.544c-.882 0-1.613.731-1.613 1.613s.731 1.613 1.613 1.613h18.863c.903 0 1.612-.731 1.612-1.613s-.729-1.613-1.611-1.613zm0-10.045H40.544c-.882 0-1.613.731-1.613 1.613s.731 1.613 1.613 1.613h18.863c.903 0 1.612-.71 1.612-1.613a1.623 1.623 0 0 0-1.611-1.613zm-38.631 0H1.914c-.882 0-1.613.731-1.613 1.613s.731 1.613 1.613 1.613h18.863c.904 0 1.613-.71 1.613-1.613a1.625 1.625 0 0 0-1.613-1.613zm0-10.022H1.914c-.882 0-1.613.73-1.613 1.612 0 .883.731 1.613 1.613 1.613h18.863a1.61 1.61 0 0 0 1.613-1.613c0-.882-.731-1.612-1.613-1.612zm0 40.114H1.914c-.882 0-1.613.73-1.613 1.612s.731 1.613 1.613 1.613h18.863c.904 0 1.613-.731 1.613-1.613s-.731-1.612-1.613-1.612zm0-10.023H1.914c-.882 0-1.613.73-1.613 1.613 0 .882.731 1.612 1.613 1.612h18.863a1.61 1.61 0 0 0 1.613-1.612c0-.883-.731-1.613-1.613-1.613zm0-10.024H1.914c-.882 0-1.613.731-1.613 1.613s.731 1.613 1.613 1.613h18.863c.904 0 1.613-.731 1.613-1.613s-.731-1.613-1.613-1.613zM96.209 64.32H77.195c-.883 0-1.613.731-1.613 1.613s.73 1.613 1.613 1.613h19.014c.902 0 1.613-.71 1.613-1.613 0-.88-.731-1.613-1.613-1.613zm0-10.022H77.195c-.883 0-1.613.73-1.613 1.612 0 .883.73 1.613 1.613 1.613h19.014a1.61 1.61 0 0 0 1.613-1.613c0-.882-.731-1.612-1.613-1.612zm0 40.114H77.195c-.883 0-1.613.73-1.613 1.612s.73 1.613 1.613 1.613h19.014c.902 0 1.613-.731 1.613-1.613s-.731-1.612-1.613-1.612zm0-10.023H77.195c-.883 0-1.613.73-1.613 1.613 0 .882.73 1.612 1.613 1.612h19.014a1.61 1.61 0 0 0 1.613-1.612c0-.883-.731-1.613-1.613-1.613zm0-10.024H77.195c-.883 0-1.613.731-1.613 1.613s.73 1.613 1.613 1.613h19.014c.902 0 1.613-.731 1.613-1.613s-.731-1.613-1.613-1.613zM22.348 30.981a1.61 1.61 0 0 0-2.28-.192c-1.14.968-3.205 2.301-4.13 2.301-.559 0-2.129-.709-3.162-1.184-1.549-.709-3.033-1.397-4.259-1.483.645-1.119 1.162-2.258 1.333-3.334v-.043c.237-1.871-.516-4.151-1.205-5.765h5.765c.882 0 1.613-.73 1.613-1.612s-.731-1.613-1.613-1.613H6.99v-.021c-.946-1.699-2.387-4.97-2.301-6.604.538-4.689 4.539-5.206 6.238-5.206 3.376 0 5.377 1.786 5.915 5.313.129.882.968 1.483 1.85 1.354.882-.129 1.484-.968 1.355-1.85C19.251 5.925 15.939 3 10.949 3c-5.184 0-8.905 3.183-9.442 8.13v.086c-.129 2.107 1.054 5.055 1.914 6.84H1.613c-.882 0-1.613.731-1.613 1.613s.731 1.612 1.613 1.612H5.14c.774 1.527 1.721 3.958 1.549 5.355-.323 1.936-3.055 5.27-4.71 6.947a1.63 1.63 0 0 0-.043 2.236c.323.345.753.517 1.183.517a1.58 1.58 0 0 0 1.033-.388c1.14-.968 3.205-2.301 4.129-2.301.56 0 2.129.709 3.162 1.184 1.656.753 3.248 1.483 4.517 1.483 2.474 0 5.614-2.538 6.216-3.054a1.626 1.626 0 0 0 .172-2.279zm77.002 7.1a1.613 1.613 0 0 0-2.258.322c-3.098 4.151-8.173 5.679-12.604 3.829-.021 0-.021-.021-.043-.021-3.055-1.184-5.463-3.786-6.754-7.077h13.185c.882 0 1.612-.731 1.612-1.613s-.73-1.613-1.612-1.613H76.809a14.889 14.889 0 0 1-.172-1.936c0-.387 0-.796.021-1.183h16.563c.881 0 1.612-.731 1.612-1.613s-.731-1.613-1.612-1.613H77.174c1.012-3.635 3.42-6.688 6.711-8.28 4.538-2.044 9.614-.817 12.948 3.098.581.688 1.592.752 2.28.193.688-.581.753-1.593.193-2.28-4.302-5.056-10.861-6.604-16.755-3.937-.021 0-.021.021-.043.021-4.409 2.129-7.528 6.302-8.647 11.206h-2.838c-.883 0-1.613.73-1.613 1.612 0 .883.73 1.613 1.613 1.613h2.408c-.021.43-.021.839 0 1.27.021.624.065 1.248.151 1.85h-2.538c-.882 0-1.613.73-1.613 1.613 0 .882.731 1.612 1.613 1.612h3.248c1.484 4.646 4.754 8.433 8.991 10.088a13.321 13.321 0 0 0 5.098 1.032c4.28 0 8.453-2.086 11.313-5.915a1.657 1.657 0 0 0-.344-2.278zm-49.428 1.074h.172c1.892 0 3.57 1.312 3.915 3.033.366 1.979-.602 3.851-2.344 4.561-1.807.73-3.764.106-4.667-1.484a1.618 1.618 0 0 0-2.194-.603c-.774.451-1.054 1.42-.603 2.193a6.662 6.662 0 0 0 4.216 3.185v4.688c0 .882.731 1.613 1.613 1.613s1.613-.731 1.613-1.613v-4.625a9.01 9.01 0 0 0 1.248-.366c3.098-1.269 4.926-4.688 4.279-8.173-.645-3.27-3.635-5.635-7.098-5.635H49.9c-1.936 0-3.57-1.333-3.915-3.205-.366-1.914.581-3.678 2.345-4.388l.129-.064c1.527-.773 3.506-.129 4.625 1.484.516.73 1.505.925 2.236.409.731-.517.926-1.506.41-2.237a7.367 7.367 0 0 0-4.131-2.947v-4.817c0-.883-.73-1.613-1.613-1.613-.882 0-1.613.73-1.613 1.613v4.753a6.49 6.49 0 0 0-1.291.451c-3.141 1.291-4.904 4.561-4.259 7.958.625 3.377 3.615 5.829 7.099 5.829z"/>
</svg>
