<?xml version="1.0" encoding="utf-8"?>
<!-- Generator: Adobe Illustrator 22.1.0, SVG Export Plug-In . SVG Version: 6.00 Build 0)  -->
<svg version="1.1" id="Layer_1" xmlns="http://www.w3.org/2000/svg" xmlns:xlink="http://www.w3.org/1999/xlink" x="0px" y="0px"
	 viewBox="0 0 512 512" style="enable-background:new 0 0 512 512;" xml:space="preserve">
<style type="text/css">
	.st0{fill:#FFFFFF;}
	.st1{fill:#666666;}
</style>
<g id="g4343" transform="matrix(1.25,0,0,-1.25,-427.15061,1268.2924)">
	<g id="g4423" transform="matrix(7.4395075,0,0,7.4395075,741.72049,1014.6332)">
		<path id="path4425" class="st0" d="M-26.3-8.7c-10.4,0-18.8-8.4-18.8-18.8s8.4-18.8,18.8-18.8s18.8,8.3,18.8,18.8
			S-15.9-8.7-26.3-8.7"/>
	</g>
	<g id="g4427" transform="matrix(7.4395075,0,0,7.4395075,594.93157,394.21619)">
		<path id="path4429" class="st1" d="M-13.5,45.5c-0.2,0.2-0.4,0.4-0.7,0.7c-0.6,0.5-1.2,1.2-1.8,1.9c-0.8,1.1-1.4,2.3-1.7,3.7
			c-0.7,2.8,0.6,4.8,0.6,4.9c0.1,0.2,0.1,0.2-0.1,0.3c-0.2,0.1-0.2,0.1-0.3-0.1c-0.1-0.1-1.4-2.2-0.6-5.2c0.3-1.4,1-2.7,1.8-3.9
			c0.6-0.8,1.3-1.5,1.8-2c0.2-0.2,0.5-0.5,0.6-0.6c0.3-0.4,0.4-0.8,0.2-1c-0.2-0.2-0.5-0.2-0.8,0.1c-0.7,0.5-1.4,1-2,1.7
			c-1.3,1.3-2.2,2.9-2.9,4.7c-0.6,1.7-1,3.6-0.9,5.3c0.1,1.8,0.7,3.7,1.8,5.1c0.3-0.5,0.6-0.7,0.7-0.8c0.3-0.2,2.5-0.2,4.7,0.2
			c0.3,0.1,1,0.2,1.7,1.2c0.2,0.2,0.7,0.4,0.9,0.4c0.2,0,0.2,0.2,0.2,0.2c0,0.2-0.2,0.2-0.2,0.2c0,0-0.8-0.2-1.2-0.6
			c-0.7-0.9-1.1-1-1.4-1c-2.2-0.2-4.1-0.2-4.5-0.2c-0.2,0.2-0.7,1-1.2,1.7c0.5,0.4,0.7,0.9,0.7,0.9c0.1,0.1,0,0.2-0.1,0.2
			c-0.1,0.1-0.2,0-0.2-0.1c0,0-0.2-0.6-0.7-0.6c-0.2,0-0.4,0.2-0.6,0.3l0,0c-0.2,0.2-0.2,0.5-0.2,0.7c0.6,0.6,1.4,1.4,2.1,2.1
			c1,1,1.4,1.4,1.4,1.6c0.1,0.3,0.2,0.6,0.2,0.8c0.2,0.7,0.2,1.2,1,1.6c0.4,0.2,0.9,0.4,1.3,0.7c1,0.6,2,1.1,2.7,1.2
			c0.3,0.1,1.6-0.4,2.6-0.7c1-0.4,2.1-0.7,2.5-0.7c3.7,0,7.2-1.7,9.8-4.6c2.3-2.7,3.7-6.1,3.7-9.5c0-3.3-1.3-6.8-3.4-9.5
			C2.3,44.5-0.9,42-6.4,42c-2.5,0-4.9,0.6-6.9,1.7c0.1,0.1,0.2,0.2,0.2,0.2C-13,44.2-13,44.9-13.5,45.5 M-6.6,74.7
			c-10.4,0-18.8-8.4-18.8-18.8s8.4-18.8,18.8-18.8s18.8,8.4,18.8,18.8S3.8,74.7-6.6,74.7 M-12.7,66.2c-0.1-0.1-0.2-0.2-0.3-0.2
			c-0.2,0-0.4,0.2-0.7,0.2l-0.4,0.2c-0.2,0.1-0.4,0-0.5,0c-0.2-0.2-0.2-0.2-0.2-0.3c0-0.1,0.1-0.2,0.2-0.2c0.1,0,0.2,0.1,0.2,0.2
			c0,0,0,0.1,0.1,0.1c0,0,0.1,0,0.2,0l0.4-0.2c0.3-0.2,0.6-0.2,0.8-0.2c0.3-0.1,0.6,0.2,0.7,0.2c0.1,0.1,0.1,0.2,0,0.2
			C-12.6,66.3-12.6,66.3-12.7,66.2 M-8.3,48.7c-0.2-0.2-0.5-0.3-0.6-0.5v-0.1c0-0.1,0-0.2,0.1-0.2c0.1-0.1,0.2,0,0.2,0.1
			c0.1,0.2,0.2,0.2,0.5,0.3c0.2,0.2,0.3,0.2,0.3,0.4C-7.6,49-7.8,50-7.8,50c0,0.2,0.1,0.2,0.1,0.2c0.1,0.1,0,0.2-0.1,0.2
			c-0.2-0.1-0.2-0.1-0.3-0.2c0,0-0.2-0.2-0.2-0.4v-0.1C-8.3,49.7-8.2,49.1-8.3,48.7L-8.3,48.7C-8.2,48.8-8.2,48.8-8.3,48.7
			 M-10.7,54.2c0.1,0,1.4-0.8,1.3-2.9c-0.2-0.6-0.2-1.4-0.2-2.4c0-0.2,0-0.2,0-0.4c-0.1-0.2-0.2-0.5-0.2-0.9c0-0.2,0-0.3,0.2-0.6
			c0.2-0.4,0.6-0.7,1.2-0.9c0.1,0,0.2-0.2,0.4-0.2c0.6-0.4,1.5-1.2,2.6-1.4c1.4-0.3,2.7,0.1,3.8,1.2c0.2,0,0.8,0.1,1.4,0.2
			c1.5,0.2,1.7,0.6,1.7,0.8l0,0l0,0c0,0.4-0.1,0.7-0.5,1.2c-0.2,0.2-0.6,0.5-0.8,0.7c2.5,2.7,3.3,6,2.2,9.3
			c-0.7,1.7-1.7,3.2-3.2,4.4s-3,1.8-4.6,2l0,0c-0.1,0.2-0.2,0.4-0.3,0.7c-0.2,0.4-0.5,0.9-0.6,1.2l-0.2,1.1
			c-0.2,0.8-0.2,1.3-0.4,1.5c-0.2,0.2-0.6,0.6-1,0.6c-0.2,0-0.2-0.1-0.3-0.2c0-0.2,0.1-0.2,0.2-0.3c0.2-0.1,0.6-0.2,0.7-0.4
			c0.2-0.2,0.2-0.7,0.3-1.3l0.2-1.1c0.1-0.4,0.3-0.9,0.6-1.4c0.2-0.4,0.4-0.7,0.5-1c0.3-1.7-0.1-2.7-1.4-3.2c-1-0.3-2,0.2-2.2,0.6
			c-0.2,0.2-0.2,1-0.2,1.6c0,0.4,0,0.7,0,1c-0.1,0.3-0.2,0.7-0.5,1.2c-0.2,0.4-0.4,0.8-0.4,1c0,0.2,0.2,0.6,0.2,0.6
			c0.1,0.2,0,0.2-0.2,0.3c-0.2,0.1-0.2,0-0.3-0.2c0-0.1-0.2-0.4-0.2-0.7c0-0.3,0.2-0.8,0.5-1.3c0.2-0.3,0.4-0.7,0.4-1
			c0-0.2,0-0.6,0-0.9c0-0.7-0.1-1.4,0.2-1.8c0.4-0.7,1.7-1.3,2.9-0.9c1.5,0.6,2.1,1.8,1.7,3.7c1.5-0.2,2.9-0.8,4.1-1.8
			c1.3-1.1,2.3-2.5,2.9-4.1c0.6-1.4,0.6-3,0.2-4.5C1.9,52,1,50.5-0.4,49.1l0,0l-0.1-0.1V49c0-0.1,0.1-0.2,0.2-0.2c0,0,0.6-0.2,1-0.7
			c0.1-0.1,0.2-0.2,0.2-0.2c-0.1,0.1-0.2,0.1-0.2,0.1c-1,0.4-2.2,0.6-2.3,0.6c-0.2,0-0.2-0.1-0.2-0.2c0-0.2,0.1-0.2,0.2-0.2
			c0,0,1.3-0.2,2.2-0.6c0.2-0.2,0.2-0.3,0.3-0.5c-0.3-0.2-1.5-0.5-2.8-0.6h-0.1l-0.1-0.2c-2.5-2.4-4.8-0.6-5.9,0.2
			c-0.3,0.2-0.5,0.3-0.6,0.4c-0.5,0.2-0.7,0.3-0.9,0.6c-0.2,0.5,0.2,1.1,0.2,1.1l0.1,0.1v0.1c-0.1,1.1,0.1,2,0.2,2.7l0,0
			c0,0.1,0.1,0.2,0.1,0.2c0.7,2,2.2,2.2,2.9,2.3c0.2,0.1,0.4,0.1,0.5,0.2c0.2,0.1,0.2,0.2,0.5,0.5c0.3,0.3,1.2,1.4,1.5,1.2
			c0-0.2,0-0.6-0.2-1.2c-0.6-1.2-0.6-1.5-0.6-1.7c0.2-0.1,0.2-0.2,0.3-0.2c0.2,0,0.2,0.1,0.2,0.2V53c0,0.1,0,0.1-0.1,0.2
			c0,0.2,0.2,0.7,0.6,1.4c0.2,0.3,0.2,0.7,0.2,0.9c0.2-0.5,0.2-1.1,0.1-1.4v-0.4l0.2-0.1l0.1-0.1c0.2-0.1,0.2-0.1,0.3,0.1
			c0.1,0.1,0.1,0.1,0.1,0.2c0,0.1,0,0.2-0.1,0.2c0,0.2,0.1,0.3,0.1,0.6c0,0.6-0.2,1.4-0.7,1.7c-0.7,0.3-1.5-0.6-2.2-1.4
			c-0.2-0.2-0.3-0.3-0.4-0.4c-0.1,0-0.2-0.1-0.2-0.1c-0.6-0.1-1.7-0.2-2.6-1.3c0.2,2.1-1,3.4-1,3.5c-0.1,0.2-0.2,0.2-0.3,0
			c-0.1-0.2-0.2-0.2,0-0.3c0.1-0.1,1-1.2,0.9-3.2c-0.4,1.3-1.3,1.8-1.3,1.8c-0.2,0.1-0.2,0-0.3-0.1C-10.9,54.5-10.9,54.3-10.7,54.2
			 M-6.2,46.4c-0.2,0.2-0.6,0.6-0.7,0.7c-0.1,0.1-0.2,0.1-0.2,0s-0.1-0.2,0-0.2c0,0,0.6-0.6,0.8-0.7c0.2-0.2,0.5-0.2,0.5-0.2
			c0.2,0,0.2,0.1,0.2,0.2c0,0.2-0.1,0.2-0.2,0.2C-6,46.3-6,46.3-6.2,46.4"/>
	</g>
	<g id="g4431" transform="matrix(7.4395075,0,0,7.4395075,1102.5254,626.33477)">
		<path id="path4433" class="st0" d="M-57.9,25.3v-1.2h-0.5v1h-0.2v-1H-59v1.2h-0.3v-1.4h1.7v1.5L-57.9,25.3z M-59.4,22.9l0.9-0.7
			l-1.1-0.4l-0.1-0.3l1.7-0.2l0.1,0.2l-1.3,0.2l1.2,0.5l-1,0.8l1.3-0.2l0.1,0.2l-1.7,0.2V22.9L-59.4,22.9z M-58.9,19
			c-0.2-0.2-0.4-0.2-0.6-0.1c-0.2,0.1-0.3,0.2-0.3,0.6c0,0.2,0.2,0.6,0.3,0.7c0.2,0.2,0.4,0.1,0.6,0c0.2-0.1,0.2-0.2,0.3-0.5
			C-58.5,19.5-58.7,19.2-58.9,19 M-58.7,20.5c-0.2,0.2-0.5,0.2-0.8,0.1c-0.3-0.2-0.6-0.6-0.6-0.8c0-0.2,0-0.2,0-0.3l0,0
			c0.1-0.3,0.2-0.6,0.6-0.7c0.3-0.2,0.6-0.1,0.9,0.1l0,0c0.3,0.2,0.5,0.6,0.5,1C-58.3,20.1-58.4,20.3-58.7,20.5 M-60.6,18.3l0.5-0.2
			l-0.5-0.9l-0.5,0.2l-0.2-0.2l1.6-0.7l0.2,0.2l-0.8,0.4l0.5,0.9l0.8-0.4l0.2,0.2l-1.6,0.7L-60.6,18.3L-60.6,18.3z M-61.2,15.2
			c-0.2,0.1-0.6-0.3-0.7-0.4l-0.2-0.2c-0.1-0.1-0.2-0.2-0.3-0.2c-0.1,0-0.1,0-0.1,0.1c-0.1,0.1,0,0.2,0,0.2c0.1,0.2,0.3,0.6,0.7,0.6
			l-0.1,0.3c-0.4-0.2-0.7-0.3-0.9-0.7c-0.1-0.2-0.2-0.3-0.1-0.6c0.1-0.2,0.2-0.2,0.3-0.2c0.2-0.1,0.5,0.2,0.6,0.3l0.2,0.2
			c0,0,0.2,0.2,0.3,0.2c0.1,0,0.1-0.1,0.2-0.1c0.1-0.1,0-0.2,0-0.2c-0.2-0.2-0.4-0.6-0.9-0.7l0.1-0.2c0.6,0.2,0.8,0.3,1,0.7
			c0.1,0.2,0.2,0.5,0.2,0.7C-60.8,15.1-61,15.2-61.2,15.2 M-63,14l-0.2,0.2l-1.2-1.2l0.2-0.2l0.6,0.6l1-1l0.2,0.2l-1,1L-63,14
			L-63,14z M-64.5,11.7l-0.4-0.3l-0.2,0.6L-64.5,11.7z M-65.4,12.2l0.4-1.9l0.2,0.2l-0.1,0.6l0.7,0.6l0.5-0.2l0.2,0.2l-1.7,0.9
			L-65.4,12.2L-65.4,12.2z M-66,10.1c-0.2-0.2-0.5-0.3-0.7-0.2s-0.3,0.2-0.4,0.3c-0.1,0.2-0.1,0.4,0.1,0.6c0.2,0.2,0.6,0.3,0.9,0.3
			l0.1,0.2c-0.3,0.1-0.6-0.1-0.8-0.2c-0.2-0.2-0.6-0.4-0.6-0.7c0-0.2,0.2-0.6,0.3-0.7c0.2-0.2,0.6-0.2,0.9-0.2
			c0.3,0.2,0.7,0.4,0.8,0.9l-0.2,0.1C-65.8,10.3-65.8,10.1-66,10.1 M-69.6,8.4c-0.2,0-0.2,0.1-0.2,0.2s0,0.2,0.1,0.2
			c0.1,0,0.2,0.1,0.2,0.2l0.7-0.2C-69.1,8.6-69.5,8.3-69.6,8.4 M-68.3,9.2l-0.3,0.1c0-0.1,0-0.2-0.1-0.2l-0.7,0.3
			c-0.1,0-0.3,0.2-0.3,0.2c0,0,0,0.1,0,0.2c0.2,0.2,0.5,0.2,0.7,0.2v0.2c-0.2,0-0.6-0.1-0.8-0.2C-70,9.9-70,9.7-70,9.7
			c0-0.2,0.1-0.2,0.2-0.2C-69.8,9.3-70,9.2-70,9.2C-70,8.9-70,8.9-70,8.8c0.1-0.2,0.2-0.2,0.5-0.2c0.4-0.1,0.8,0.2,1.1,0.5l0.2-0.1
			l0.4,0.2l-0.5,0.2C-68.4,8.9-68.4,9.1-68.3,9.2 M-72.3,8.6h-0.2c-0.1,0-0.3,0-0.4,0.1c0,0-0.1,0.1,0,0.2c0,0.1,0.1,0.2,0.2,0.2
			c0.2,0.2,0.6,0.2,1-0.1l0.2,0.2c-0.4,0.2-0.7,0.2-1.1,0.2c-0.2-0.1-0.4-0.2-0.5-0.3c-0.1-0.2,0-0.2,0.1-0.4
			c0.1-0.3,0.4-0.3,0.6-0.3h0.3c0.1,0,0.3,0,0.4-0.1c0-0.1,0.1-0.1,0-0.2c0-0.2-0.2-0.2-0.2-0.2c-0.2-0.2-0.7-0.2-1.2,0.2l-0.2-0.2
			c0.5-0.2,0.8-0.2,1.2-0.2c0.2,0.1,0.5,0.2,0.6,0.4c0.1,0.2,0,0.3-0.1,0.4C-71.7,8.6-72.2,8.6-72.3,8.6 M-73.8,8.3h-0.9V8.1h0.6
			c0,0,0-0.2,0-0.2c-0.1-0.2-0.2-0.2-0.3-0.2c-0.2-0.1-0.6,0-0.7,0.2c-0.2,0.2-0.2,0.4-0.2,0.6c0.1,0.2,0.2,0.3,0.3,0.4
			c0.2,0.1,0.6,0.1,0.9-0.2l0.2,0.2c-0.2,0.2-0.5,0.2-0.7,0.2s-0.7-0.1-1-0.3c-0.2-0.2-0.2-0.6-0.2-0.8c0.1-0.3,0.2-0.6,0.6-0.6
			c0.3-0.2,0.7-0.1,1.1,0.2c0.2,0.2,0.2,0.2,0.2,0.5L-73.8,8.3L-73.8,8.3z M-76.5,8.2c-0.1-0.2-0.2-0.3-0.4-0.4
			c-0.2-0.1-0.6,0-0.7,0.2c-0.2,0.2-0.2,0.4-0.2,0.6c0.1,0.2,0.2,0.4,0.5,0.4s0.6-0.1,0.7-0.2C-76.5,8.6-76.5,8.2-76.5,8.2
			 M-77.2,9.3c-0.2,0-0.2,0-0.3-0.1l0,0C-77.8,9-78,8.9-78.1,8.6c-0.1-0.2,0-0.6,0.2-0.8l0,0c0.2-0.2,0.7-0.3,1-0.3
			c0.3,0.1,0.6,0.2,0.7,0.6c0.2,0.2,0.2,0.6-0.1,0.8C-76.5,9.2-76.9,9.3-77.2,9.3 M-79,8.3c-0.2-0.2-0.5-0.1-0.7-0.1L-80,8.4
			l0.3,1.1l0.4-0.2c0.2-0.1,0.4-0.1,0.5-0.4C-78.9,8.8-78.9,8.6-79,8.3 M-79.3,9.7L-80,9.9l-0.4-1.7l0.6-0.2c0.3-0.1,0.6-0.2,1,0.2
			c0.2,0.2,0.3,0.6,0.2,1C-78.7,9.5-78.9,9.6-79.3,9.7 M-82.1,9.7l-0.5,0.2l0.6,0.4L-82.1,9.7L-82.1,9.7z M-83.6,9.7l0.2-0.2
			l0.5,0.3l0.7-0.4V8.9l0.2-0.2l0.1,2l-0.2,0.2L-83.6,9.7L-83.6,9.7z M-83.7,10.7l0.2,0.2l-0.8,0.6l0.2,0.3l1-0.7l0.2,0.2l-1.2,0.8
			l-1-1.4l1.2-0.9l0.2,0.2l-1,0.7l0.2,0.3L-83.7,10.7L-83.7,10.7z M-85.8,12.7c-0.1,0.1-0.2,0.2-0.2,0.3c0,0.1,0,0.1,0.1,0.1
			c0.1,0.1,0.2,0,0.2,0c0.2-0.2,0.5-0.4,0.6-0.8h0.3c-0.1,0.5-0.2,0.7-0.6,1c-0.2,0.2-0.3,0.2-0.6,0.2c-0.2-0.1-0.2-0.2-0.2-0.2
			c-0.1-0.2,0.2-0.6,0.2-0.7l0.2-0.2c0,0,0.2-0.2,0.2-0.4c0-0.1-0.1-0.1-0.1-0.2c-0.1-0.1-0.2,0-0.2,0.1c-0.2,0.2-0.6,0.4-0.6,1
			h-0.3c0.2-0.6,0.2-0.8,0.6-1.1c0.2-0.2,0.4-0.2,0.7-0.2c0.2,0.1,0.2,0.2,0.2,0.3c0.1,0.2-0.2,0.6-0.3,0.7L-85.8,12.7L-85.8,12.7z
			 M-87.3,14.1l-0.4,0.5l0.3,0.2l0.3-0.5c0.1-0.1,0.2-0.2,0.2-0.4c0-0.1-0.1-0.2-0.2-0.2C-87.1,13.9-87.3,14.1-87.3,14.1 M-86.5,14
			c0.1,0.2-0.1,0.5-0.2,0.6l-0.6,0.7l-1.4-1.1l0.2-0.2l0.6,0.5l0.4-0.5l-0.2-0.7l0.2-0.2l0.3,0.7c0.2-0.2,0.2-0.2,0.4-0.1
			C-86.6,13.6-86.5,13.8-86.5,14 M-89.1,16.2l0.6-0.8l0.2,0.2l-0.6,0.8l0.3,0.2l0.6-1l0.2,0.2l-0.7,1.2l-1.5-1l0.8-1.3l0.2,0.2
			l-0.6,1L-89.1,16.2L-89.1,16.2z M-88.9,17.4l0.2,0.2l-0.7,1.7l-0.2-0.2l0.2-0.7l-1.4-0.6l0.2-0.2l1.4,0.6L-88.9,17.4L-88.9,17.4z
			 M-89.8,19.4l0.2,0.1l-0.5,1.7l-0.2-0.1l0.2-0.7l-1.4-0.4l0.1-0.2l1.4,0.4L-89.8,19.4z M-91,21.7l-0.1,0.6l0.6-0.2L-91,21.7z
			 M-90.1,22.2l-1.8,0.6l0.1-0.3l0.6-0.2l0.2-0.8l-0.5-0.3l0.1-0.3l1.7,1.2C-90.1,21.9-90.1,22.2-90.1,22.2z M-91.3,24.8v-0.6
			c0-0.1,0.1-0.3-0.2-0.5c-0.1-0.1-0.2-0.1-0.2,0c-0.2,0.1-0.2,0.3-0.2,0.5v0.6H-91.3L-91.3,24.8z M-90.6,24.8v-0.6
			c0-0.1,0.1-0.3-0.1-0.4c-0.1,0-0.2,0-0.2,0c-0.2,0.1-0.2,0.4-0.2,0.4v0.6C-91,24.8-90.6,24.8-90.6,24.8z M-91.9,23.4
			c0.2-0.2,0.3-0.2,0.5-0.2s0.2,0.1,0.3,0.2c0.1-0.1,0.1-0.1,0.1-0.1c0.2-0.1,0.3-0.1,0.4,0c0.2,0.2,0.2,0.4,0.2,0.6v1h-1.7v-0.9
			C-92.1,23.9-92.1,23.6-91.9,23.4"/>
	</g>
</g>
</svg>
