<?xml version="1.0" encoding="utf-8"?>
<svg xmlns="https://www.w3.org/2000/svg" version="1.1" x="0px" y="0px" width="100px" height="100px" viewBox="0 0 100 100" enable-background="new 0 0 100 100" xml:space="preserve">
  <path d="M99.828,30.723c-1.46-16.066-12.83-27.721-27.061-27.721c-9.481,0-18.162,5.102-23.046,13.279  C44.88,7.998,36.555,3,27.226,3C12.997,3,1.625,14.655,0.167,30.721c-0.115,0.71-0.588,4.445,0.85,10.535  C3.09,50.04,7.878,58.031,14.861,64.357l34.836,31.613l35.435-31.613c6.981-6.327,11.771-14.316,13.845-23.104  C100.414,35.167,99.941,31.433,99.828,30.723z M95.232,40.375c-1.894,8.024-6.279,15.333-12.674,21.125L49.721,90.797l-32.275-29.29  C11.04,55.704,6.656,48.396,4.761,40.373c-1.361-5.764-0.802-9.02-0.8-9.041l0.029-0.194C5.24,17.063,15.011,6.846,27.226,6.846  c9.014,0,16.948,5.538,20.714,14.452l1.771,4.199l1.771-4.199c3.705-8.777,12.059-14.45,21.285-14.45  c12.213,0,21.986,10.217,23.262,24.475C96.034,31.353,96.593,34.611,95.232,40.375z"/>
  <path d="M30.767,14.688c-10.604,0-19.23,8.627-19.23,19.23c0,1.063,0.86,1.923,1.923,1.923  c1.064,0,1.923-0.859,1.923-1.923c0-8.483,6.902-15.385,15.385-15.385c1.064,0,1.923-0.859,1.923-1.923  C32.689,15.548,31.829,14.688,30.767,14.688z"/>
</svg>
