<?xml version="1.0" encoding="utf-8"?>
<svg xmlns="https://www.w3.org/2000/svg" version="1.1" x="0px" y="0px" width="100px" height="100px" viewBox="0 0 100 100" enable-background="new 0 0 100 100" xml:space="preserve">
  <path d="M41.295,61.873v-26.85c9.985-4.53,14.407-16.296,9.876-26.281c-1.573-3.466-4.108-6.407-7.305-8.472    c-0.771-0.501-1.801-0.282-2.302,0.488c-0.175,0.27-0.269,0.584-0.27,0.906v14.247l-8.321,4.146l-8.321-4.146V1.664    c0-0.919-0.746-1.664-1.665-1.663c-0.322,0-0.637,0.093-0.907,0.269c-9.209,5.95-11.851,18.239-5.9,27.448    c2.065,3.196,5.006,5.732,8.472,7.305v26.85c-7.11,3.202-11.673,10.284-11.65,18.081C12.961,90.984,21.87,99.958,32.899,100    c11.03,0.041,20.004-8.868,20.046-19.897C52.974,72.267,48.419,65.138,41.295,61.873z M48.477,86.083    c-3.343,8.562-12.994,12.793-21.557,9.45c-8.562-3.343-12.793-12.994-9.45-21.557c1.691-4.332,5.118-7.759,9.45-9.45    c0.64-0.249,1.061-0.865,1.061-1.551V33.918c0-0.686-0.421-1.3-1.061-1.549c-8.516-3.276-12.764-12.835-9.488-21.352    c0.856-2.226,2.184-4.24,3.892-5.903v11.827c0,0.631,0.357,1.208,0.922,1.49l9.986,4.975c0.467,0.233,1.018,0.233,1.485,0    l9.986-4.975c0.565-0.282,0.922-0.858,0.922-1.49V5.114c6.536,6.367,6.673,16.827,0.306,23.363    c-1.664,1.708-3.678,3.036-5.903,3.892c-0.639,0.249-1.06,0.864-1.061,1.549v29.058c0,0.686,0.421,1.302,1.061,1.551    C47.589,67.87,51.82,77.521,48.477,86.083z"/>
  <path d="M46.06,79.113l-5.825-9.95c-0.296-0.513-0.843-0.83-1.436-0.832h-11.65    c-0.593,0.001-1.14,0.318-1.437,0.832l-5.825,9.95c-0.304,0.519-0.304,1.162,0,1.681l5.825,9.949    c0.299,0.51,0.846,0.824,1.437,0.824h11.65c0.591,0,1.138-0.314,1.436-0.824l5.825-9.949    C46.364,80.275,46.364,79.632,46.06,79.113z M37.845,88.23h-9.743l-4.85-8.276l4.85-8.285l9.743-0.008l4.85,8.285L37.845,88.23z"/>
  <path d="M32.974,33.518c-0.919,0-1.664,0.745-1.664,1.664v26.533c0,0.919,0.745,1.665,1.664,1.665    c0.919,0,1.665-0.745,1.665-1.665V35.182C34.638,34.263,33.893,33.518,32.974,33.518z"/>
  <path d="M89.56,54.922V49.93c0-0.919-0.745-1.665-1.664-1.665h-4.993V15.372l1.498-2.978    c0.157-0.315,0.21-0.671,0.151-1.019L82.888,1.39C82.753,0.584,82.055-0.004,81.239,0h-6.657c-0.813,0-1.507,0.588-1.641,1.39    l-1.664,9.986c-0.059,0.347-0.005,0.704,0.151,1.019l1.498,2.978v32.894h-5.001c-0.919,0-1.665,0.745-1.665,1.665v4.993    c0.019,0.463,0.212,0.901,0.54,1.228c0.559,0.556,0.873,1.312,0.87,2.101c-0.003,0.812-0.335,1.588-0.922,2.15    c-0.312,0.312-0.488,0.736-0.488,1.178v26.629c0.008,6.431,5.219,11.643,11.65,11.65c6.431-0.007,11.643-5.219,11.65-11.65V61.58    c-0.018-0.463-0.21-0.902-0.539-1.228c-0.559-0.556-0.872-1.312-0.871-2.101c0.003-0.812,0.336-1.589,0.922-2.152    C89.385,55.787,89.56,55.364,89.56,54.922z M75.991,3.329h3.838l1.343,8.062l-1.423,2.844c-0.115,0.231-0.175,0.486-0.174,0.744    v33.287h-3.329V14.979c0.002-0.257-0.054-0.512-0.167-0.744l-1.431-2.844L75.991,3.329z M86.232,54.28    c-1.863,2.314-1.863,5.615,0,7.93v25.999c0,4.595-3.726,8.321-8.322,8.321c-4.596,0-8.322-3.726-8.322-8.321V62.22    c1.864-2.315,1.864-5.615,0-7.93v-2.696h16.644V54.28z"/>
  <path d="M74.582,64.908c-0.919,0-1.665,0.745-1.665,1.664v21.637c0,0.919,0.746,1.664,1.665,1.664    s1.665-0.745,1.665-1.664V66.572C76.246,65.653,75.501,64.908,74.582,64.908z"/>
  <path d="M81.239,64.908c-0.919,0-1.664,0.745-1.664,1.664v21.637c0,0.919,0.745,1.664,1.664,1.664    s1.665-0.745,1.665-1.664V66.572C82.903,65.653,82.158,64.908,81.239,64.908z"/>
</svg>
