<?xml version="1.0" encoding="utf-8"?>
<svg xmlns="http://www.w3.org/2000/svg" xmlns:xlink="http://www.w3.org/1999/xlink" version="1.1" id="Layer_1" x="0px" y="0px" width="100px" height="100px" viewBox="0 0 100 100" enable-background="new 0 0 100 100" xml:space="preserve">
  <path fill="#303030" d="M73.249,43.959c-0.479-1.211-1.85-1.805-3.062-1.326c-1.212,0.479-1.806,1.85-1.327,3.062    c1.199,3.032,1.807,6.237,1.807,9.525c0,14.285-11.622,25.908-25.907,25.908c-14.287,0-25.91-11.623-25.91-25.908    c0-14.285,11.623-25.907,25.91-25.907c3.3,0,6.51,0.611,9.542,1.817c1.21,0.482,2.583-0.109,3.064-1.32    c0.481-1.21-0.109-2.583-1.32-3.064c-3.589-1.428-7.386-2.152-11.286-2.152c-16.889,0-30.628,13.738-30.628,30.625    S27.872,85.846,44.76,85.846c16.887,0,30.625-13.738,30.625-30.626C75.386,51.335,74.667,47.547,73.249,43.959z"/>
  <path fill="#303030" d="M87.794,42.882c-0.358-1.253-1.663-1.977-2.917-1.619c-1.253,0.358-1.978,1.665-1.619,2.917    c1.022,3.575,1.541,7.289,1.541,11.04c0,22.079-17.961,40.042-40.039,40.042c-22.079,0-40.042-17.963-40.042-40.042    S22.681,15.178,44.76,15.178c3.759,0,7.479,0.521,11.058,1.548c1.252,0.359,2.559-0.364,2.918-1.617    c0.36-1.252-0.364-2.559-1.617-2.918c-4.001-1.149-8.16-1.732-12.36-1.732C20.079,10.459,0,30.539,0,55.22    C0,79.901,20.079,99.98,44.76,99.98c24.679,0,44.757-20.08,44.757-44.761C89.518,51.03,88.938,46.879,87.794,42.882z"/>
  <path fill="#303030" d="M61.187,53.779c-0.116-1.298-1.262-2.251-2.56-2.14c-1.298,0.116-2.256,1.262-2.14,2.56    c0.03,0.336,0.045,0.68,0.045,1.021c0,6.492-5.281,11.772-11.772,11.772c-6.493,0-11.775-5.281-11.775-11.772    c0-6.493,5.283-11.775,11.776-11.775c0.363,0,0.718,0.016,1.056,0.047c1.299,0.119,2.446-0.835,2.566-2.133    c0.12-1.298-0.835-2.446-2.133-2.566c-0.481-0.044-0.982-0.066-1.489-0.066c-9.095,0-16.494,7.398-16.494,16.494    c0,9.093,7.399,16.491,16.494,16.491c9.093,0,16.491-7.398,16.491-16.491C61.251,54.739,61.229,54.254,61.187,53.779z"/>
  <path fill="#303030" d="M99.639,15.862c-0.733-1.77-2.445-2.914-4.36-2.914h-8.227V4.722c0-1.916-1.144-3.627-2.914-4.36    c-1.769-0.733-3.787-0.331-5.142,1.023L65.251,15.13c-1.336,1.336-2.072,3.113-2.072,5.003v13.351L44.005,52.658    c-0.921,0.921-0.921,2.415,0,3.337c0.461,0.46,1.064,0.691,1.668,0.691c0.604,0,1.208-0.23,1.668-0.691l19.174-19.174h13.351    c1.89,0,3.667-0.736,5.003-2.072l13.746-13.746C99.97,19.649,100.372,17.631,99.639,15.862z M67.897,20.134    c0-0.63,0.245-1.222,0.69-1.667L82.333,4.724v9.607L67.897,28.766V20.134L67.897,20.134z M81.533,31.413    c-0.438,0.438-1.046,0.69-1.667,0.69h-8.632L85.67,17.667l9.607,0.001L81.533,31.413z"/>
</svg>
