<?xml version="1.0" encoding="utf-8"?>
<svg xmlns="https://www.w3.org/2000/svg" version="1.1" x="0px" y="0px" width="100px" height="100px" viewBox="0 0 100 100" enable-background="new 0 0 100 100" xml:space="preserve">
  <path d="M20.777,44.274H1.914c-0.882,0-1.613,0.731-1.613,1.613s0.731,1.613,1.613,1.613h18.863   c0.904,0,1.613-0.71,1.613-1.613C22.391,45.006,21.659,44.274,20.777,44.274z"/>
  <path d="M59.408,94.412H40.544c-0.882,0-1.613,0.73-1.613,1.612s0.731,1.613,1.613,1.613h18.863   c0.903,0,1.612-0.731,1.612-1.613S60.29,94.412,59.408,94.412z"/>
  <path d="M59.408,84.389H40.544c-0.882,0-1.613,0.73-1.613,1.613c0,0.882,0.731,1.612,1.613,1.612h18.863   c0.903,0,1.612-0.73,1.612-1.612C61.02,85.119,60.29,84.389,59.408,84.389z"/>
  <path d="M59.408,74.365H40.544c-0.882,0-1.613,0.731-1.613,1.613s0.731,1.613,1.613,1.613h18.863   c0.903,0,1.612-0.731,1.612-1.613S60.29,74.365,59.408,74.365z"/>
  <path d="M59.408,64.32H40.544c-0.882,0-1.613,0.731-1.613,1.613s0.731,1.613,1.613,1.613h18.863   c0.903,0,1.612-0.71,1.612-1.613C61.021,65.053,60.29,64.32,59.408,64.32z"/>
  <path d="M20.777,64.32H1.914c-0.882,0-1.613,0.731-1.613,1.613s0.731,1.613,1.613,1.613h18.863   c0.904,0,1.613-0.71,1.613-1.613C22.391,65.053,21.659,64.32,20.777,64.32z"/>
  <path d="M20.777,54.298H1.914c-0.882,0-1.613,0.73-1.613,1.612c0,0.883,0.731,1.613,1.613,1.613h18.863   c0.904,0,1.613-0.73,1.613-1.613C22.39,55.028,21.659,54.298,20.777,54.298z"/>
  <path d="M20.777,94.412H1.914c-0.882,0-1.613,0.73-1.613,1.612s0.731,1.613,1.613,1.613h18.863   c0.904,0,1.613-0.731,1.613-1.613S21.659,94.412,20.777,94.412z"/>
  <path d="M20.777,84.389H1.914c-0.882,0-1.613,0.73-1.613,1.613c0,0.882,0.731,1.612,1.613,1.612h18.863   c0.904,0,1.613-0.73,1.613-1.612C22.39,85.119,21.659,84.389,20.777,84.389z"/>
  <path d="M20.777,74.365H1.914c-0.882,0-1.613,0.731-1.613,1.613s0.731,1.613,1.613,1.613h18.863   c0.904,0,1.613-0.731,1.613-1.613S21.659,74.365,20.777,74.365z"/>
  <path d="M96.209,64.32H77.195c-0.883,0-1.613,0.731-1.613,1.613s0.73,1.613,1.613,1.613h19.014   c0.902,0,1.613-0.71,1.613-1.613C97.822,65.053,97.091,64.32,96.209,64.32z"/>
  <path d="M96.209,54.298H77.195c-0.883,0-1.613,0.73-1.613,1.612c0,0.883,0.73,1.613,1.613,1.613h19.014   c0.902,0,1.613-0.73,1.613-1.613C97.822,55.028,97.091,54.298,96.209,54.298z"/>
  <path d="M96.209,94.412H77.195c-0.883,0-1.613,0.73-1.613,1.612s0.73,1.613,1.613,1.613h19.014   c0.902,0,1.613-0.731,1.613-1.613S97.091,94.412,96.209,94.412z"/>
  <path d="M96.209,84.389H77.195c-0.883,0-1.613,0.73-1.613,1.613c0,0.882,0.73,1.612,1.613,1.612h19.014   c0.902,0,1.613-0.73,1.613-1.612C97.822,85.119,97.091,84.389,96.209,84.389z"/>
  <path d="M96.209,74.365H77.195c-0.883,0-1.613,0.731-1.613,1.613s0.73,1.613,1.613,1.613h19.014   c0.902,0,1.613-0.731,1.613-1.613S97.091,74.365,96.209,74.365z"/>
  <path d="M22.348,30.981c-0.581-0.688-1.592-0.773-2.28-0.192c-1.14,0.968-3.205,2.301-4.13,2.301   c-0.559,0-2.129-0.709-3.162-1.184c-1.549-0.709-3.033-1.397-4.259-1.483c0.645-1.119,1.162-2.258,1.333-3.334   c0-0.021,0-0.043,0-0.043c0.237-1.871-0.516-4.151-1.205-5.765h5.765c0.882,0,1.613-0.73,1.613-1.612s-0.731-1.613-1.613-1.613   H6.99v-0.021c-0.946-1.699-2.387-4.97-2.301-6.604c0.538-4.689,4.539-5.206,6.238-5.206c3.376,0,5.377,1.786,5.915,5.313   c0.129,0.882,0.968,1.483,1.85,1.354c0.882-0.129,1.484-0.968,1.355-1.85C19.251,5.925,15.939,3,10.949,3   c-5.184,0-8.905,3.183-9.442,8.13c0,0.021,0,0.043,0,0.086c-0.129,2.107,1.054,5.055,1.914,6.84H1.613   C0.731,18.056,0,18.787,0,19.669s0.731,1.612,1.613,1.612H5.14c0.774,1.527,1.721,3.958,1.549,5.355   c-0.323,1.936-3.055,5.27-4.71,6.947c-0.603,0.603-0.624,1.592-0.043,2.236c0.323,0.345,0.753,0.517,1.183,0.517   c0.366,0,0.731-0.129,1.033-0.388c1.14-0.968,3.205-2.301,4.129-2.301c0.56,0,2.129,0.709,3.162,1.184   c1.656,0.753,3.248,1.483,4.517,1.483c2.474,0,5.614-2.538,6.216-3.054C22.842,32.682,22.928,31.671,22.348,30.981L22.348,30.981z"/>
  <path d="M99.35,38.081L99.35,38.081c-0.709-0.538-1.721-0.388-2.258,0.322c-3.098,4.151-8.173,5.679-12.604,3.829   c-0.021,0-0.021-0.021-0.043-0.021c-3.055-1.184-5.463-3.786-6.754-7.077h13.185c0.882,0,1.612-0.731,1.612-1.613   s-0.73-1.613-1.612-1.613H76.809c-0.107-0.645-0.15-1.291-0.172-1.936c0-0.387,0-0.796,0.021-1.183h16.563   c0.881,0,1.612-0.731,1.612-1.613s-0.731-1.613-1.612-1.613H77.174c1.012-3.635,3.42-6.688,6.711-8.28   c4.538-2.044,9.614-0.817,12.948,3.098c0.581,0.688,1.592,0.752,2.28,0.193c0.688-0.581,0.753-1.593,0.193-2.28   c-4.302-5.056-10.861-6.604-16.755-3.937c-0.021,0-0.021,0.021-0.043,0.021c-4.409,2.129-7.528,6.302-8.647,11.206h-2.838   c-0.883,0-1.613,0.73-1.613,1.612c0,0.883,0.73,1.613,1.613,1.613h2.408c-0.021,0.43-0.021,0.839,0,1.27   c0.021,0.624,0.065,1.248,0.151,1.85h-2.538c-0.882,0-1.613,0.73-1.613,1.613c0,0.882,0.731,1.612,1.613,1.612h3.248   c1.484,4.646,4.754,8.433,8.991,10.088c1.655,0.688,3.397,1.032,5.098,1.032c4.28,0,8.453-2.086,11.313-5.915   C100.21,39.629,100.061,38.617,99.35,38.081z"/>
  <path d="M49.922,39.155h0.172c1.892,0,3.57,1.312,3.915,3.033c0.366,1.979-0.602,3.851-2.344,4.561   c-1.807,0.73-3.764,0.106-4.667-1.484c-0.452-0.774-1.42-1.033-2.194-0.603c-0.774,0.451-1.054,1.42-0.603,2.193   c0.946,1.656,2.474,2.753,4.216,3.185v4.688c0,0.882,0.731,1.613,1.613,1.613c0.882,0,1.613-0.731,1.613-1.613v-4.625   c0.409-0.086,0.84-0.215,1.248-0.366c3.098-1.269,4.926-4.688,4.279-8.173l0,0c-0.645-3.27-3.635-5.635-7.098-5.635H49.9   c-1.936,0-3.57-1.333-3.915-3.205c-0.366-1.914,0.581-3.678,2.345-4.388c0.043-0.021,0.086-0.043,0.129-0.064   c1.527-0.773,3.506-0.129,4.625,1.484c0.516,0.73,1.505,0.925,2.236,0.409c0.731-0.517,0.926-1.506,0.41-2.237   c-1.032-1.505-2.539-2.518-4.131-2.947v-4.817c0-0.883-0.73-1.613-1.613-1.613c-0.882,0-1.613,0.73-1.613,1.613v4.753   c-0.452,0.106-0.882,0.258-1.291,0.451c-3.141,1.291-4.904,4.561-4.259,7.958C43.448,36.703,46.438,39.155,49.922,39.155z"/>
</svg>
