<svg xmlns="http://www.w3.org/2000/svg" width="255" height="467.77" viewBox="0 0 255 467.77">
  <path d="M212.86 4.06 158.246.815C149.481.292 137.386 0 124.196 0 108.8 0 94.081.396 83.819 1.074L42.36 3.816C18.999 5.358 0 25.667 0 49.073v362.101c0 23.186 18.669 44.737 41.609 48.032l42.944 6.186c10.54 1.513 25.052 2.382 39.801 2.382 13.145 0 25.565-.676 34.959-1.899l54.223-7.114c23.028-3.017 41.762-24.364 41.762-47.581V49.084c-.012-23.433-19.039-43.633-42.438-45.024zM11.841 299.093c4.085 1.6 10.057 3.605 18.021 5.657v23.155c-8.533-1.595-14.419-3.098-18.021-4.139v-24.673zm0 30.869c3.999 1.122 9.955 2.544 18.021 4.026v26.254c-8.541-1.788-14.449-3.448-18.021-4.576v-25.704zm0 31.94c3.999 1.214 9.915 2.793 18.021 4.453v23.485c-8.589-1.137-14.482-2.178-18.021-2.904v-25.034zm200.145 85.102-54.223 7.114c-8.485 1.117-20.271 1.737-33.197 1.737h-.007c-14.704 0-28.678-.798-38.331-2.179l-42.937-6.19c-3.397-.487-6.604-1.635-9.676-3.087 2.44.827 4.951 1.482 7.528 1.848l42.937 6.181c10.806 1.554 25.217 2.351 39.413 2.351 12.563 0 24.948-.624 34.53-1.868l54.233-7.115c5.388-.705 10.521-2.478 15.203-5.088-4.585 3.239-9.816 5.555-15.473 6.296zm31.453-35.825c0 .838-.183 1.661-.249 2.488-4.895 13.533-17.209 24.359-31.691 26.243l-54.232 7.109c-19.962 2.62-52.418 2.412-72.326-.463l-42.944-6.18c-12.253-1.767-22.909-9.938-28.898-20.642-.734-2.798-1.25-5.642-1.25-8.562V393c3.865.776 9.798 1.797 18.108 2.863.475 12.767 10.847 23.877 23.628 25.004l53.065 4.586c5.863.508 13.563.767 21.267.767 7.704 0 15.396-.254 21.261-.767l53.065-4.586c12.567-1.102 22.779-11.882 23.557-24.374 7.795-1.062 13.578-2.117 17.631-2.971v17.656h.008v.001zm-141.396-70.167v27.507a629.063 629.063 0 0 1-15.831-.924V340.27c4.992.294 10.301.528 15.831.742zm-15.83-6.699v-20.825c4.999.401 10.293.731 15.831 1.001v20.581a740.34 740.34 0 0 1-15.831-.757zm15.83 40.147v20.429h5.926v-20.215c5.063.188 10.333.324 15.823.421v20.267c-13.918-.147-26.456-.488-37.579-.976v-20.824c4.999.355 10.308.644 15.83.898zm32.265-32.829c5.764 0 11.243-.071 16.509-.183v27.71c-6.16.138-12.553.198-19.426.152-.577-.01-1.097-.025-1.673-.03v-27.659c1.549 0 3.083.01 4.59.01zm-4.59-5.951v-20.429c.774 0 1.556.005 2.324.005 6.619 0 12.793-.143 18.775-.346v20.602c-6.668.142-13.624.223-21.099.168zm1.627 39.547c1.831.016 3.644.025 5.421.025 4.88 0 9.531-.065 14.046-.152v20.262a923.69 923.69 0 0 1-21.104.07v-20.23c.571-.001 1.076.02 1.637.025zm5.442 26.157c7.83 0 15.036-.112 21.937-.254v17.555l-10.055.868c-11.455 1.005-30.074 1.005-41.515 0l-9.077-.787v-17.991a1256.847 1256.847 0 0 0 38.71.609zm83.243-65.801v27.106c-4.621.909-9.877 1.792-15.823 2.604v-27.426c5.895-.72 11.161-1.486 15.823-2.284zm-15.823-3.656v-22.135a252.913 252.913 0 0 0 15.823-3.214v22.992a311.83 311.83 0 0 1-15.823 2.357zm15.823 36.836v22.49a446.814 446.814 0 0 1-15.823 1.655v-21.617c5.886-.787 11.172-1.64 15.823-2.528zm-.228 28.497c-1.122 9.166-8.744 16.905-18.078 17.702l-5.434.478v-15.976c9.085-.655 16.9-1.411 23.512-2.204zm-21.521-64.653c-5.606.614-11.761 1.158-18.464 1.635v-21.211c6.647-.654 12.862-1.406 18.464-2.254v21.83zm0 5.962v27.507c-5.57.665-11.776 1.244-18.464 1.747v-27.665c6.652-.457 12.862-.985 18.464-1.589zm0 33.464v21.348c-5.616.426-11.776.807-18.464 1.132V373.79a416.744 416.744 0 0 0 18.464-1.757zm-7.906 27.832v16.077l-25.726 2.229v-17.173c9.461-.26 18.007-.65 25.726-1.133zm-16.479-65.226c-5.383.314-11.085.559-17.153.746v-20.718c6.018-.27 11.796-.62 17.153-1.066v21.038zm0 5.89v27.715c-5.342.33-11.115.569-17.153.757v-27.735a656.812 656.812 0 0 0 17.153-.737zm0 33.626v20.622c-5.383.213-11.101.381-17.153.497v-20.347c6.068-.188 11.77-.451 17.153-.772zm-50.104-38.547a831.798 831.798 0 0 1-15.823-.335v-20.516c5.055.193 10.333.336 15.823.406v20.445zm0 5.926v27.635a742.388 742.388 0 0 1-15.823-.427v-27.533a983.05 983.05 0 0 0 15.823.325zm-31.638 59.027v17.697l-23.077-2.001v-16.818c7 .436 14.711.817 23.077 1.122zm-11.868-66.633a596.287 596.287 0 0 1-19.822-1.691v-21.535c6.03.853 12.657 1.625 19.822 2.29v20.936zm0 5.961v27.233a506.243 506.243 0 0 1-19.822-1.985v-26.888c6.005.605 12.672 1.157 19.822 1.64zm0 33.205v21.008a865.425 865.425 0 0 1-19.822-1.203v-21.734c6.038.721 12.665 1.36 19.822 1.929zm-17.135 25.959v16.691l-9.06-.787c-9.552-.822-17.318-8.912-18.138-18.362 7.45.863 16.463 1.717 27.198 2.458zm-8.602-67.491c-7.102-.828-13.383-1.722-18.755-2.61v-22.77c5.436 1.249 11.669 2.463 18.755 3.595v21.785zm0 6.011v26.832c-7.119-.959-13.35-1.975-18.755-2.99v-26.4a394.457 394.457 0 0 0 18.755 2.558zm0 32.861v21.982c-7.109-.584-13.391-1.209-18.755-1.839v-23.059c5.42.996 11.699 1.981 18.755 2.916zm188.89 17.021c-3.768.827-9.526 1.914-17.483 3.026v-22.902c7.774-1.69 13.437-3.382 17.483-4.778v24.654zm0-30.976c-3.58 1.331-9.282 3.129-17.483 4.977v-26.938c7.729-1.498 13.487-2.971 17.483-4.169v26.13zm0-32.357c-3.61 1.152-9.323 2.712-17.483 4.347v-23.384c7.703-2.082 13.477-4.134 17.483-5.784v24.821zm0-31.361c-11.258 4.936-45.696 16.839-115.775 16.554-69.979-.513-104.469-11.933-115.816-16.666V56.122c5.301-12.703 17.207-22.688 31.065-24.507l54.232-7.109c19.964-2.615 52.433-2.402 72.323.464l42.939 6.18c13.848 1.991 25.735 12.134 31.036 24.908V292.76h-.004v.001zM213.246 25.288l-42.93-6.177c-20.367-2.94-53.532-3.146-73.945-.482l-54.232 7.109c-11.969 1.564-22.572 8.509-29.76 18.004 2.529-14.939 15.31-27.088 30.77-28.114l41.459-2.742c10.413-.688 24.75-1.082 39.342-1.082 12.619 0 24.547.292 33.606.835l54.613 3.248c15.382.916 28.133 12.877 30.732 27.705-7.19-9.544-17.742-16.582-29.655-18.304z"/>
  <path d="M18.657 81.908a2.961 2.961 0 0 0-2.96 2.963V255.59a2.96 2.96 0 0 0 2.96 2.96h215.545a2.964 2.964 0 0 0 2.965-2.96V84.871a2.965 2.965 0 0 0-2.965-2.963H18.657zm212.585 170.716H21.621V87.831h209.621v164.793zM97.09 44.95h63.944a2.96 2.96 0 1 0 0-5.923H97.09a2.962 2.962 0 1 0 0 5.923zm37.574 223.492h-12.522c-7.45 0-13.51 6.058-13.51 13.507v10.232c0 7.449 6.061 13.508 13.51 13.508h12.522c7.449 0 13.508-6.059 13.508-13.508v-10.232c0-7.449-6.059-13.507-13.508-13.507zm7.581 23.74c0 4.18-3.401 7.586-7.581 7.586h-12.522c-4.179 0-7.584-3.406-7.584-7.586V281.95c0-4.179 3.405-7.581 7.584-7.581h12.522c4.18 0 7.581 3.402 7.581 7.581v10.232zm-94.12-13.823a2.933 2.933 0 0 0-3.981 1.295l-1.167 2.574c-.681.432-3.903.914-8.366.041-4.819-.949-8.312-3.209-8.731-4.062l-1.318-4.169c-.482-1.56-2.102-2.428-3.714-1.939a2.948 2.948 0 0 0-1.935 3.712l1.32 4.184c1.254 4.017 7.749 7.013 13.238 8.09.564.106 3.13.573 5.982.573 3.356 0 7.094-.645 8.43-3.285l1.541-3.042a2.949 2.949 0 0 0-1.299-3.972zm185.605-2.91c-2.681-3.265-9.796-3.666-15.295-2.625-1.219.224-11.897 2.387-12.391 7.841l-.305 3.387a2.947 2.947 0 0 0 2.677 3.214c.096.011.183.016.269.016a2.949 2.949 0 0 0 2.945-2.691l.143-2.818c.478-.649 3.311-2.285 7.759-3.112 4.814-.904 8.902-.087 9.623.543l2.772 3.388a2.947 2.947 0 0 0 4.164.421 2.949 2.949 0 0 0 .416-4.164l-2.777-3.4z"/>
  <path d="M222.99 281.32a4.4 4.4 0 1 1 .005 8.797 4.4 4.4 0 0 1-.005-8.797z"/>
</svg>
