<svg xmlns="https://www.w3.org/2000/svg" version="1.1" viewBox="0 0 100 100">
  <path d="M41.295 61.873v-26.85c9.985-4.53 14.407-16.296 9.876-26.281A19.85 19.85 0 0 0 43.866.27a1.664 1.664 0 0 0-2.572 1.394v14.247l-8.321 4.146-8.321-4.146V1.664A1.663 1.663 0 0 0 22.08.27c-9.209 5.95-11.851 18.239-5.9 27.448a19.86 19.86 0 0 0 8.472 7.305v26.85a19.77 19.77 0 0 0-11.65 18.081C12.961 90.984 21.87 99.958 32.899 100c11.03.041 20.004-8.868 20.046-19.897a19.97 19.97 0 0 0-11.65-18.23m7.182 24.21c-3.343 8.562-12.994 12.793-21.557 9.45s-12.793-12.994-9.45-21.557a16.64 16.64 0 0 1 9.45-9.45 1.66 1.66 0 0 0 1.061-1.551V33.918c0-.686-.421-1.3-1.061-1.549-8.516-3.276-12.764-12.835-9.488-21.352a16.5 16.5 0 0 1 3.892-5.903v11.827c0 .631.357 1.208.922 1.49l9.986 4.975a1.67 1.67 0 0 0 1.485 0l9.986-4.975c.565-.282.922-.858.922-1.49V5.114c6.536 6.367 6.673 16.827.306 23.363a16.5 16.5 0 0 1-5.903 3.892 1.665 1.665 0 0 0-1.061 1.549v29.058c0 .686.421 1.302 1.061 1.551 8.561 3.343 12.792 12.994 9.449 21.556"/>
  <path d="m46.06 79.113-5.825-9.95a1.66 1.66 0 0 0-1.436-.832h-11.65a1.66 1.66 0 0 0-1.437.832l-5.825 9.95a1.66 1.66 0 0 0 0 1.681l5.825 9.949c.299.51.846.824 1.437.824h11.65c.591 0 1.138-.314 1.436-.824l5.825-9.949a1.66 1.66 0 0 0 0-1.681m-8.215 9.117h-9.743l-4.85-8.276 4.85-8.285 9.743-.008 4.85 8.285zm-4.871-54.712c-.919 0-1.664.745-1.664 1.664v26.533a1.665 1.665 0 1 0 3.329 0V35.182a1.665 1.665 0 0 0-1.665-1.664M89.56 54.922V49.93c0-.919-.745-1.665-1.664-1.665h-4.993V15.372l1.498-2.978a1.66 1.66 0 0 0 .151-1.019L82.888 1.39A1.664 1.664 0 0 0 81.239 0h-6.657c-.813 0-1.507.588-1.641 1.39l-1.664 9.986c-.059.347-.005.704.151 1.019l1.498 2.978v32.894h-5.001c-.919 0-1.665.745-1.665 1.665v4.993c.019.463.212.901.54 1.228.559.556.873 1.312.87 2.101a3 3 0 0 1-.922 2.15 1.67 1.67 0 0 0-.488 1.178v26.629c.008 6.431 5.219 11.643 11.65 11.65 6.431-.007 11.643-5.219 11.65-11.65V61.58a1.83 1.83 0 0 0-.539-1.228 2.96 2.96 0 0 1-.871-2.101 3 3 0 0 1 .922-2.152 1.66 1.66 0 0 0 .488-1.177M75.991 3.329h3.838l1.343 8.062-1.423 2.844a1.66 1.66 0 0 0-.174.744v33.287h-3.329V14.979a1.7 1.7 0 0 0-.167-.744l-1.431-2.844zM86.232 54.28a6.324 6.324 0 0 0 0 7.93v25.999a8.322 8.322 0 0 1-16.644 0V62.22a6.32 6.32 0 0 0 0-7.93v-2.696h16.644z"/>
  <path d="M74.582 64.908c-.919 0-1.665.745-1.665 1.664v21.637a1.665 1.665 0 0 0 3.33 0V66.572a1.665 1.665 0 0 0-1.665-1.664m6.657 0c-.919 0-1.664.745-1.664 1.664v21.637a1.664 1.664 0 0 0 3.329 0V66.572a1.665 1.665 0 0 0-1.665-1.664"/>
</svg>
