<svg xmlns="https://www.w3.org/2000/svg" version="1.1" viewBox="0 0 100 100">
  <path d="M50 0c-.922 0-1.667.745-1.667 1.667V23.82c0 .922.745 1.667 1.667 1.667s1.667-.745 1.667-1.667V3.363c24.965.88 45 21.463 45 46.637 0 25.731-20.935 46.667-46.667 46.667S3.333 75.731 3.333 50c0-12.434 4.833-24.132 13.61-32.94a1.666 1.666 0 0 0-2.359-2.354C5.178 24.144 0 36.678 0 50c0 27.57 22.43 50 50 50s50-22.43 50-50S77.57 0 50 0"/>
  <path d="M47.592 55.887a5.93 5.93 0 0 0 4.803 2.447c1.57 0 3.08-.62 4.198-1.74a5.93 5.93 0 0 0 1.722-4.662 5.93 5.93 0 0 0-2.432-4.343L34.31 31.983a1.667 1.667 0 0 0-2.329 2.328zm6.333-5.6a2.606 2.606 0 1 1-3.636 3.645L40.767 40.77z"/>
</svg>
