<svg xmlns="https://www.w3.org/2000/svg" viewBox="0 0 100 100">
  <path d="M98.327 96.667H75.428l-13.765-7.646V67.63a29.2 29.2 0 0 0 11.666 2.372c14.723.003 26.662-11.93 26.665-26.653.003-14.191-11.111-25.897-25.283-26.63C69.233 3.07 53.728-3.555 40.079 1.923a26.63 26.63 0 0 0-14.796 14.796C10.58 17.48-.724 30.016.036 44.72c.733 14.172 12.439 25.286 26.629 25.282 4.01.018 7.981-.789 11.666-2.372v21.39l-13.764 7.646h-22.9a1.668 1.668 0 0 0 0 3.334h96.66a1.667 1.667 0 1 0 0-3.333M26.666 66.669c-12.883.004-23.33-10.437-23.333-23.319-.003-12.809 10.321-23.225 23.129-23.332a1.67 1.67 0 0 0 1.557-1.111C32.29 6.769 45.592.391 57.73 4.661a23.3 23.3 0 0 1 14.245 14.246 1.67 1.67 0 0 0 1.557 1.111c12.882.108 23.237 10.64 23.128 23.523-.107 12.807-10.522 23.132-23.33 23.128a25.5 25.5 0 0 1-11.666-2.725v-4.918l14.51-14.511c.651-.65.651-1.705.001-2.355h-.001l-5-5a1.666 1.666 0 0 0-2.356-.001v.001L54.997 50.981V33.339c0-.92-.746-1.667-1.667-1.667h-6.666c-.92 0-1.667.746-1.667 1.667v17.642L31.177 37.16a1.666 1.666 0 0 0-2.356-.001v.001l-5 5a1.665 1.665 0 0 0-.001 2.355h.001l14.51 14.511v4.919a25.5 25.5 0 0 1-11.665 2.724m4.764 29.998 9.378-5.209c.529-.294.857-.852.856-1.457V58.336c0-.442-.176-.866-.488-1.178l-13.82-13.82 2.643-2.644 15.487 15.487a1.666 1.666 0 0 0 2.845-1.178V35.005h3.333v19.999a1.667 1.667 0 0 0 2.845 1.179l15.487-15.487 2.643 2.644-13.82 13.82a1.67 1.67 0 0 0-.489 1.178v31.665c0 .605.328 1.163.857 1.457l9.377 5.209H31.43z"/>
  <path d="M39.872 17.677a1.666 1.666 0 0 0-2.208-.864 16.73 16.73 0 0 0-8.742 8.193h-2.256a18.17 18.17 0 0 0-11.001 3.667 1.667 1.667 0 0 0 1.997 2.669l.006-.004a14.86 14.86 0 0 1 8.999-2.999H30c.673 0 1.28-.405 1.539-1.026a13.36 13.36 0 0 1 7.462-7.446 1.67 1.67 0 0 0 .871-2.19M84.33 28.673a18.17 18.17 0 0 0-11-3.667h-2.257a16.73 16.73 0 0 0-8.741-8.193 1.666 1.666 0 1 0-1.337 3.053 13.36 13.36 0 0 1 7.462 7.446 1.665 1.665 0 0 0 1.539 1.026h3.333a14.87 14.87 0 0 1 9 2.999 1.666 1.666 0 0 0 2.001-2.664M44.998 83.335h3.333v6.666h-3.333zm0-13.333h3.333v10h-3.333z"/>
</svg>
