<svg xmlns="https://www.w3.org/2000/svg" viewBox="0 0 100 100">
  <path d="M70.649 40.351V20.353C70.649 9.13 60.812 0 48.719 0S26.79 9.13 26.79 20.353v19.999H11V100h77.193V40.351zM30.298 20.353c0-9.288 8.263-16.844 18.421-16.844S67.14 11.065 67.14 20.353v19.999H30.298zm54.386 76.138H14.509v-7.018h70.175zm0-10.526H14.509V43.859h70.175z"/>
  <path d="M49.597 54.386a7.024 7.024 0 0 0-7.018 7.017V71.93a7.025 7.025 0 0 0 7.018 7.018 7.025 7.025 0 0 0 7.017-7.018V61.403a7.024 7.024 0 0 0-7.017-7.017m3.508 17.544c0 1.935-1.574 3.509-3.509 3.509s-3.509-1.574-3.509-3.509V61.403c0-1.935 1.574-3.509 3.509-3.509s3.509 1.574 3.509 3.509z"/>
</svg>
