<svg xmlns="https://www.w3.org/2000/svg" viewBox="0 0 100 100">
  <path d="M73.249 43.959a2.36 2.36 0 0 0-4.389 1.736 25.8 25.8 0 0 1 1.807 9.525c0 14.285-11.622 25.908-25.907 25.908-14.287 0-25.91-11.623-25.91-25.908s11.623-25.907 25.91-25.907c3.3 0 6.51.611 9.542 1.817a2.358 2.358 0 1 0 1.744-4.384 30.4 30.4 0 0 0-11.286-2.152c-16.889 0-30.628 13.738-30.628 30.625s13.74 30.627 30.628 30.627S75.385 72.108 75.385 55.22a30.5 30.5 0 0 0-2.136-11.261"/>
  <path d="M87.794 42.882a2.358 2.358 0 1 0-4.536 1.298 40.2 40.2 0 0 1 1.541 11.04c0 22.079-17.961 40.042-40.039 40.042S4.718 77.299 4.718 55.22 22.681 15.178 44.76 15.178c3.759 0 7.479.521 11.058 1.548a2.359 2.359 0 1 0 1.301-4.535 44.8 44.8 0 0 0-12.36-1.732C20.079 10.459 0 30.539 0 55.22s20.079 44.76 44.76 44.76c24.679 0 44.757-20.08 44.757-44.761a44.8 44.8 0 0 0-1.723-12.337"/>
  <path d="M61.187 53.779a2.36 2.36 0 1 0-4.7.42c.03.336.045.68.045 1.021 0 6.492-5.281 11.772-11.772 11.772-6.493 0-11.775-5.281-11.775-11.772 0-6.493 5.283-11.775 11.776-11.775.363 0 .718.016 1.056.047a2.359 2.359 0 1 0 .433-4.699 16 16 0 0 0-1.489-.066c-9.095 0-16.494 7.398-16.494 16.494 0 9.093 7.399 16.491 16.494 16.491 9.093 0 16.491-7.398 16.491-16.491a17 17 0 0 0-.065-1.442"/>
  <path d="M99.639 15.862a4.71 4.71 0 0 0-4.36-2.914h-8.227V4.722a4.705 4.705 0 0 0-2.914-4.36 4.705 4.705 0 0 0-5.142 1.023L65.251 15.13a7.03 7.03 0 0 0-2.072 5.003v13.351L44.005 52.658a2.36 2.36 0 0 0 3.336 3.337l19.174-19.174h13.351a7.03 7.03 0 0 0 5.003-2.072l13.746-13.746a4.7 4.7 0 0 0 1.024-5.141m-31.742 4.272c0-.63.245-1.222.69-1.667L82.333 4.724v9.607L67.897 28.766zm13.636 11.279a2.38 2.38 0 0 1-1.667.69h-8.632L85.67 17.667l9.607.001z"/>
</svg>
