<svg xmlns="https://www.w3.org/2000/svg" version="1.1" viewBox="0 0 100 100">
  <path fill="currentColor" d="M71 14.5c1.2 2.7 1.9 7.2.8 10.5 4.7 4 6.3 13.7 4.1 21.7 6.7.5 14.6-.2 19.8 1.8-4.8-.6-11.4-1.8-17.6-1.4-1.2.1-2.9 0-2.8 1.6 7.2.6 14.3 1.2 20.2 3-5.9-1-13-2.4-20.2-2.6-3 5.9-9 8.8-17.4 9.4.9 1.9 2.6 2.7 3 5.8.6 4.7-1 11.6.6 14.7.7 1.5 2 1.5 2.8 2.8-2 2.4-7.1-.3-7.7-2.8-1-4.4 1.5-11.2-1.2-14.1.2 4.8-1.1 11.5.2 15.6.5 1.6 2 2.3 1.6 3.9-9.5.9-5.5-12.3-7.1-20.1-1.4.1-.8 2.1-.8 3 0 7.6 1.5 18.1-6.7 17.1-.2-1.6 1.1-2.1 1.6-3.7 1.5-4.3-.3-10.7.4-15.9-3.1 2.3.3 10.7-1.6 14.9-1.1 2.4-4.8 3.5-7.5 2.4.4-1.8 2.2-1.5 3-3.2 1.1-2.3 0-5.8.4-9.2-5.8 1.1-10.4-.2-12.5-3.9-1-1.6-1.2-3.6-2.4-5.1-1.2-1.4-3-1.6-3.7-3.7 7.2-1.7 7.5 7.4 13.9 7.6 2 .1 3-.6 4.9-1 .5-2.3 1.6-4.1 3.2-5.3-8-1.1-14.7-3.7-17.8-9.6-7.3.4-14 1.3-20.2 2.8 5.6-2 12.6-2.7 20-3-.4-2.6-4.3-1.9-6.7-1.8-4.4.5-9.9 1.1-13.5 1.7 5.1-1.8 12.3-1.6 19.2-1.6-2.1-6.6-1.4-17.2 3.2-21.1-1.3-3.2-.9-8.7.8-11.3 5.2.2 8.3 2.4 11.6 4.7 4.1-1.1 8.2-1.7 13.7-1.4 2.3.1 4.8 1.2 6.5 1s3.6-2 5.3-2.8c2.3-.9 4.2-1.3 6.6-1.4"/>
</svg>
