<svg xmlns="https://www.w3.org/2000/svg" viewBox="0 0 100 100">
  <path fill="currentColor" d="M0 13.595q0-4.803 3.361-7.924t8.74-3.121q5.283 0 8.548 3.073 3.362 3.17 3.362 8.26 0 4.61-3.266 7.683-3.36 3.17-8.836 3.17h-.096q-5.281 0-8.548-3.17C-.002 18.396 0 16.796 0 13.595m1.249 84.037V33.475H22.57v64.157zm33.134 0h21.322V61.808q0-3.362.768-5.186a13.9 13.9 0 0 1 4.082-5.523q2.738-2.257 6.867-2.257 10.757 0 10.757 14.503v34.287H99.5V60.847q0-14.214-6.723-21.561c-6.723-7.347-10.404-7.347-17.768-7.347q-12.39 0-19.304 10.66v.192h-.096l.096-.192v-9.124H34.383q.192 3.074.192 19.113c0 16.039-.064 25.707-.192 45.044"/>
</svg>
