<svg xmlns="http://www.w3.org/2000/svg" version="1.1" viewBox="0 0 100 100">
  <path d="m83.60411,51.41689l-5.0778,-5.08814a2.15652,2.15652 0 0 1 -0.62835,-1.52059l0,-6.22427c0,-5.75232 -0.59735,-7.83787 -1.7197,-9.94065a11.71271,11.71271 0 0 0 -4.86698,-4.878c-2.09864,-1.12442 -4.18075,-1.72384 -9.91998,-1.72384l-8.20923,0a0.42993,0.42993 0 0 1 -0.30315,-0.73377l5.07574,-5.08814a2.13585,2.13585 0 0 1 1.51852,-0.62973l2.85446,0c7.65253,0 10.42776,0.79853 13.22572,2.29776c2.79727,1.49992 4.99375,3.69984 6.49022,6.504s2.29294,5.5849 2.29294,13.25397l0,13.46686a0.42993,0.42993 0 0 1 -0.73308,0.30384l0.00069,0.00069zm-35.01825,32.25887l5.07712,-5.08814a2.13585,2.13585 0 0 1 1.51714,-0.62973l6.21118,0c5.73923,0 7.82065,-0.59942 9.91929,-1.72384a11.71271,11.71271 0 0 0 4.86698,-4.878c1.12235,-2.10209 1.7197,-4.18833 1.7197,-9.93996l0,-8.22715a0.42993,0.42993 0 0 1 0.73308,-0.30384l5.07643,5.08745c0.40237,0.40374 0.62904,0.9508 0.62904,1.52127l0,2.86066c0,7.66907 -0.79715,10.45049 -2.29362,13.25397c-1.49578,2.80416 -3.69157,5.00477 -6.48953,6.504c-2.79727,1.49923 -5.57318,2.29776 -13.22572,2.29776l-13.43723,0a0.42993,0.42993 0 0 1 -0.30315,-0.73377l-0.00069,-0.00069zm-32.18997,-35.09197l5.07712,5.08745c0.40237,0.40374 0.62835,0.9508 0.62835,1.52127l0,6.22427c0,5.75163 0.59804,7.83787 1.7197,9.94065a11.71271,11.71271 0 0 0 4.86766,4.878c2.09864,1.12442 4.17937,1.72246 9.91929,1.72246l8.20992,0a0.42993,0.42993 0 0 1 0.30315,0.73514l-5.07643,5.08745a2.13585,2.13585 0 0 1 -1.51783,0.62973l-2.85446,0c-7.65322,0 -10.42845,-0.79853 -13.22572,-2.29776s-4.99375,-3.69984 -6.49022,-6.504s-2.29294,-5.5849 -2.29294,-13.25397l0,-13.46686a0.42993,0.42993 0 0 1 0.73239,-0.30384m29.94113,-27.17211a2.13585,2.13585 0 0 1 -1.51714,0.62973l-6.21118,0c-5.73923,0 -7.82065,0.59942 -9.91929,1.72384a11.71271,11.71271 0 0 0 -4.86766,4.878c-1.12166,2.10278 -1.7197,4.18902 -1.7197,9.94065l0,8.22715a0.42993,0.42993 0 0 1 -0.73239,0.30384l-5.0778,-5.08745a2.15652,2.15652 0 0 1 -0.62835,-1.52059l0,-2.86135c0,-7.66907 0.79715,-10.4498 2.29294,-13.25397c1.49647,-2.80416 3.69226,-5.00408 6.49022,-6.504c2.79727,-1.49854 5.57249,-2.29776 13.22572,-2.29776l13.43723,0a0.42993,0.42993 0 0 1 0.30315,0.73446l-5.07574,5.08745zm26.54307,19.29152l-6.92221,-6.63077a4.27169,4.27169 0 0 0 -1.56399,-1.0004a4.27169,4.27169 0 0 0 -1.51783,-0.27628l-20.42834,0a0.42993,0.42993 0 0 1 -0.30384,-0.73446l5.08125,-5.08814a2.13585,2.13585 0 0 1 1.51714,-0.62973l16.27998,0c4.7402,0 8.58404,3.85141 8.58404,8.60264l0,5.44641a0.42993,0.42993 0 0 1 -0.72619,0.31004l0,0.00069zm-13.60259,32.232l6.6163,-6.93806a4.27169,4.27169 0 0 0 0.99834,-1.56675c0.17845,-0.47264 0.27559,-0.98525 0.27559,-1.52127l0,-20.47244a0.42993,0.42993 0 0 1 0.73308,-0.30384l5.0778,5.09227c0.40168,0.40306 0.62697,0.95011 0.62697,1.5199l0,16.31512c0,4.75123 -3.84246,8.60264 -8.58335,8.60264l-5.4347,0a0.42993,0.42993 0 0 1 -0.31004,-0.72757m-32.15828,-13.63635l6.9229,6.63008a4.27169,4.27169 0 0 0 1.56399,1.0004c0.47195,0.17914 0.98318,0.27697 1.51783,0.27697l20.42834,0a0.42993,0.42993 0 0 1 0.30315,0.73377l-5.08125,5.08883a2.13585,2.13585 0 0 1 -1.51645,0.62904l-16.28067,0c-4.7402,0 -8.58335,-3.85141 -8.58335,-8.60264l0,-5.44641a0.42993,0.42993 0 0 1 0.7255,-0.31073l0,0.00069zm13.60259,-32.22856l-6.61561,6.93806a4.27169,4.27169 0 0 0 -0.99903,1.56675a4.34059,4.34059 0 0 0 -0.27559,1.52127l0,20.47244a0.42993,0.42993 0 0 1 -0.73239,0.30453l-5.0778,-5.09296a2.15652,2.15652 0 0 1 -0.62766,-1.5199l0,-16.31512c0,-4.75054 3.84315,-8.60264 8.58404,-8.60264l5.43401,0a0.42993,0.42993 0 0 1 0.31004,0.72757"/>
</svg>
