<svg xmlns="https://www.w3.org/2000/svg" viewBox="0 0 100 100">
  <path fill="currentColor" d="m98.61 52-7.37-7.385a3.13 3.13 0 0 1-.912-2.207v-9.034c0-8.349-.867-11.376-2.496-14.428a17 17 0 0 0-7.064-7.08C77.722 10.234 74.7 9.364 66.37 9.364H54.455a.624.624 0 0 1-.44-1.065L61.382.914A3.1 3.1 0 0 1 63.586 0h4.143c11.107 0 15.135 1.159 19.196 3.335 4.06 2.177 7.248 5.37 9.42 9.44s3.328 8.106 3.328 19.237v19.546a.624.624 0 0 1-1.064.441zM47.784 98.821l7.369-7.385a3.1 3.1 0 0 1 2.202-.914h9.015c8.33 0 11.351-.87 14.397-2.502a17 17 0 0 0 7.064-7.08c1.629-3.051 2.496-6.079 2.496-14.427V54.572a.624.624 0 0 1 1.064-.441l7.368 7.384c.584.586.913 1.38.913 2.208v4.152c0 11.131-1.157 15.168-3.329 19.237-2.171 4.07-5.358 7.264-9.419 9.44-4.06 2.176-8.089 3.335-19.196 3.335H48.225a.624.624 0 0 1-.44-1.065zM1.063 47.888l7.369 7.384c.584.586.912 1.38.912 2.208v9.034c0 8.348.868 11.376 2.496 14.428a17 17 0 0 0 7.065 7.08c3.046 1.632 6.066 2.5 14.397 2.5h11.916a.624.624 0 0 1 .44 1.067l-7.368 7.384a3.1 3.1 0 0 1-2.203.914h-4.143c-11.108 0-15.136-1.159-19.196-3.335s-7.248-5.37-9.42-9.44S0 79.006 0 67.875V48.329a.624.624 0 0 1 1.063-.441M44.52 8.45a3.1 3.1 0 0 1-2.202.914h-9.015c-8.33 0-11.351.87-14.397 2.502a17 17 0 0 0-7.065 7.08c-1.628 3.052-2.496 6.08-2.496 14.428v11.941a.624.624 0 0 1-1.063.441l-7.37-7.384A3.13 3.13 0 0 1 0 36.165v-4.153c0-11.131 1.157-15.167 3.328-19.237 2.172-4.07 5.359-7.263 9.42-9.44C16.808 1.16 20.836 0 31.944 0h19.503a.624.624 0 0 1 .44 1.066zm38.525 28-10.047-9.624a6.2 6.2 0 0 0-2.27-1.452 6.2 6.2 0 0 0-2.203-.401h-29.65a.624.624 0 0 1-.441-1.066l7.375-7.385a3.1 3.1 0 0 1 2.202-.914H71.64c6.88 0 12.459 5.59 12.459 12.486v7.905a.624.624 0 0 1-1.054.45zM63.302 83.232l9.603-10.07a6.2 6.2 0 0 0 1.449-2.274c.259-.686.4-1.43.4-2.208V38.966a.624.624 0 0 1 1.064-.441l7.37 7.391c.583.585.91 1.379.91 2.206v23.68c0 6.896-5.577 12.486-12.458 12.486h-7.888a.624.624 0 0 1-.45-1.056M16.627 63.44l10.048 9.623a6.2 6.2 0 0 0 2.27 1.452c.685.26 1.427.402 2.203.402h29.65a.624.624 0 0 1 .44 1.065l-7.375 7.386a3.1 3.1 0 0 1-2.201.913h-23.63c-6.88 0-12.458-5.59-12.458-12.486V63.89a.624.624 0 0 1 1.053-.451zM36.37 16.663l-9.602 10.07a6.2 6.2 0 0 0-1.45 2.274 6.3 6.3 0 0 0-.4 2.208v29.714a.624.624 0 0 1-1.063.442l-7.37-7.392a3.13 3.13 0 0 1-.911-2.206v-23.68c0-6.895 5.578-12.486 12.459-12.486h7.887a.624.624 0 0 1 .45 1.056"/>
</svg>
