<?xml version="1.0" encoding="utf-8"?>
<!-- Generator: Adobe Illustrator 22.1.0, SVG Export Plug-In . SVG Version: 6.00 Build 0)  -->
<svg version="1.1" id="Layer_1" xmlns="http://www.w3.org/2000/svg" xmlns:xlink="http://www.w3.org/1999/xlink" x="0px" y="0px"
	 viewBox="0 0 512 512" style="enable-background:new 0 0 512 512;" xml:space="preserve">
<style type="text/css">
	.st0{fill:#666666;}
</style>
<g id="g3348" transform="matrix(7.0133699,0,0,-7.0133699,184.4516,489.91397)">
	<path id="path3350" class="st0" d="M-12.9,13.2h4v3.3h1.8v-8h-1.8v3.3h-4V8.4h-1.8v8h1.8V13.2z"/>
</g>
<g id="g3354">
	<g id="g3360" transform="translate(37.3755,444.7798)">
		<path id="path3362" class="st0" d="M120.9-36.8c0,10,3.2,14.1,13.7,14.1c10.6,0,13.7-4.1,13.7-14.1v-33.7h12.9v34
			c0,7.2-0.8,12.1-3.6,15.2c-5,5.5-12.3,7.6-22.8,7.6c-10.6,0-17.9-2.2-22.9-7.6c-2.9-3.1-3.7-8.1-3.7-15.2v-34h12.7V-36.8
			L120.9-36.8z"/>
	</g>
	<g id="g3364" transform="translate(45.3774,444.8823)">
		<path id="path3366" class="st0" d="M178.7-37.7h18.1l-9.3-21.6L178.7-37.7z M194.8-70.6l26,56.1h-14.2l-5.6-13.4h-26.5l-5.3,13.4
			h-13.6l25.7-56.1H194.8z"/>
	</g>
	<g id="g3368" transform="translate(51.2056,448.8745)">
		<path id="path3370" class="st0" d="M220.7-74.5l14.1,43.2l11.8-43.2h15.2l13.5,43.2l13.2-43.2h13.1l-18.7,56.1H267l-12.9-41.9
			l-11.4,41.9h-15.6l-20.2-56.1H220.7z"/>
	</g>
	<g id="g3372" transform="translate(63.145,446.0962)">
		<path id="path3374" class="st0" d="M306.8-48.9h35.3v9.8h-35.4c0.1,10.2,4.4,13.8,14.5,13.8h21v9.8h-21.5c-7.3,0-13-0.6-19-4.9
			c-6.3-4.6-9.3-12-9.3-22.2c0-19.8,9.1-29.1,28.6-29.1h21.1v9.8h-21C312-61.9,307.3-57.7,306.8-48.9"/>
	</g>
	<path id="path3376" class="st0" d="M416.6,374.3H430v56.1h-13.4V374.3z"/>
</g>
<g id="g3378" transform="matrix(7.0133699,0,0,-7.0133699,-22.64833,3618.6134)">
	<g id="g3380">
		<g id="g3386">
			<g id="g3388">
				<path id="path3402" class="st0" d="M18.3,489.4c0.2-3.2,2.5-5,2.5-5l0,0c3.8-3.7,13-8.4,15.2-9.4l0,0h0.2l0,0c0,0,0.1,0.1,0,0.2
					l0,0c-5.8,12.7-13.8,22.5-13.8,22.5l0,0C22.4,497.7,18,493.6,18.3,489.4"/>
			</g>
		</g>
	</g>
</g>
<g id="g3404" transform="matrix(7.0133699,0,0,-7.0133699,-22.64833,3618.6134)">
	<g id="g3406">
		<g id="g3412">
			<g id="g3414">
				<path id="path3428" class="st0" d="M19.3,471.5c1.7-2.9,4.4-5.2,7.4-4.5l0,0c2.1,0.5,6.6,3.7,8,4.7l0,0l0,0
					c0.1,0.1,0.1,0.2,0.1,0.2l0,0c0,0.1-0.2,0.1-0.2,0.1l0,0l0,0L19.3,471.5L19.3,471.5z"/>
			</g>
		</g>
	</g>
</g>
<g id="g3430" transform="matrix(7.0133699,0,0,-7.0133699,-22.64833,3618.6134)">
	<g id="g3432">
		<g id="g3438">
			<g id="g3440">
				<path id="path3454" class="st0" d="M15.6,478.4c1.7-3.5,4.8-4.6,4.8-4.6l0,0c1.5-0.6,2.9-0.6,2.9-0.6l0,0c0.2,0,9.1,0,11.4,0
					l0,0c0.1,0,0.2,0.1,0.2,0.1l0,0c0.1,0.1-0.1,0.2-0.1,0.2l0,0l0,0c-6.7,4.5-19.8,11.4-19.8,11.4l0,0
					C14,481.3,15.6,478.4,15.6,478.4"/>
			</g>
		</g>
	</g>
</g>
<g id="g3456" transform="matrix(7.0133699,0,0,-7.0133699,-22.64833,3618.6134)">
	<g id="g3458">
		<g id="g3464">
			<g id="g3466">
				<path id="path3480" class="st0" d="M33.5,503.8c-4-1-5-4.7-5-4.7l0,0c-0.7-2.3,0-4.9,0-4.9l0,0c1.3-6,8-15.9,9.4-17.9l0,0
					c0.1-0.1,0.2-0.1,0.2-0.1l0,0c0.2,0,0.2,0.2,0.2,0.2l0,0c2.3,22-2.2,27.9-2.2,27.9l0,0C35.4,504.2,33.5,503.8,33.5,503.8"/>
			</g>
		</g>
	</g>
</g>
<g id="g3482" transform="matrix(7.0133699,0,0,-7.0133699,-22.64833,3618.6134)">
	<g id="g3484">
		<g id="g3490">
			<g id="g3492">
				<path id="path3506" class="st0" d="M40.9,476.5L40.9,476.5c0-0.2,0.1-0.2,0.1-0.2l0,0c0.2-0.1,0.2,0.1,0.2,0.1l0,0l0,0
					c1.5,2.1,8.1,11.9,9.4,17.9l0,0c0,0,0.7,2.9,0,4.9l0,0c0,0-1,3.7-5.1,4.7l0,0c0,0-1.2,0.2-2.4,0.5l0,0
					C43.3,504.3,38.8,498.4,40.9,476.5"/>
			</g>
		</g>
	</g>
</g>
<g id="g3508" transform="matrix(7.0133699,0,0,-7.0133699,-22.64833,3618.6134)">
	<g id="g3510">
		<g id="g3516">
			<g id="g3518">
				<path id="path3532" class="st0" d="M44.7,472c0,0-0.1,0-0.2-0.1l0,0c0,0,0-0.1,0.1-0.2l0,0l0,0c1.5-1,5.9-4.1,8-4.8l0,0
					c0,0,4-1.3,7.4,4.5l0,0L44.7,472L44.7,472L44.7,472z"/>
			</g>
		</g>
	</g>
</g>
<g id="g3534" transform="matrix(7.0133699,0,0,-7.0133699,-22.64833,3618.6134)">
	<g id="g3536">
		<g id="g3542">
			<g id="g3544">
				<path id="path3558" class="st0" d="M44.4,473.5L44.4,473.5c0,0-0.1-0.1-0.1-0.2l0,0c0,0,0.1-0.1,0.2-0.1l0,0l0,0
					c2.4,0,11.5,0,11.8,0l0,0c0,0,1.2,0,2.7,0.6l0,0c0,0,3.3,1,4.9,4.7l0,0c0,0,1.5,3,0.4,6.6l0,0C64.1,485,51,478,44.4,473.5"/>
			</g>
		</g>
	</g>
</g>
<g id="g3560" transform="matrix(7.0133699,0,0,-7.0133699,-22.64833,3618.6134)">
	<g id="g3562">
		<g id="g3568">
			<g id="g3570">
				<path id="path3584" class="st0" d="M43,475.3L43,475.3c0,0-0.1-0.2,0-0.2l0,0c0,0,0.1-0.1,0.2,0l0,0c2.2,1.1,11.4,5.7,15,9.4
					l0,0c0,0,2.4,1.9,2.5,5l0,0c0.2,4.2-4,8.2-4,8.2l0,0C56.9,497.7,49,488,43,475.3"/>
			</g>
		</g>
	</g>
</g>
</svg>
