<?xml version="1.0" encoding="utf-8"?>
<svg version="1.1" xmlns="http://www.w3.org/2000/svg" x="0px" y="0px"
	 viewBox="0 0 512 512" style="enable-background:new 0 0 512 512;" xml:space="preserve">
<style type="text/css">
	.st0{fill:#666666;}
</style>
<path class="st0" d="M451.6,247.2c0,0,2.9-2.9,1.4-8.2c-1.4-5.2,4-10.8,9.1-6.2C467.2,237.5,459.9,246.8,451.6,247.2L451.6,247.2z"
	/>
<g>
	<path class="st0" d="M191.4,238.6c-0.4-1-0.7-4.7-5.1-3.1c-6.1,2.3-9.6-0.6-8.9-3.5c1.7-6,4.7-13.6,7.1-20.4
		c0.7-2.7,2.3-5.4,4.5-7.6c-3.5,0.8-7,1.5-10.6,2.2c1.6,1.6,2.1,3.2,1.2,5.4c-2.6,7.3-5.4,15.5-8.2,22.6l-5.4-20.9
		c-0.3-1.4-0.3-3.1,0.4-4.5c-5.4,1-11.5,2.5-16.9,3.6c1.7,1.4,2.4,3.1,3.3,5.4c4.8,18.7,9.5,37.4,14.2,56.2c0.2,2.5-0.2,4.5-0.7,6.1
		c5.5-1.6,11-3.3,16.4-4.7c-1.2-1.5-2.1-3-2.8-5.1c-2-9.1-4.1-18.3-6.2-27.5l1.6-3.8l15.2,34.5c5.4-1.1,11-2.4,16.2-3.5
		c-1.8-1.7-3.3-3.9-4.4-6.1C198.7,255.3,195,247,191.4,238.6z"/>
	<path class="st0" d="M153.6,260.9c2.8,4.5,7.6,18.4,0.2,21.6c-8.4,3.6-13.4-17.6-18.2-31.5c-8-24.5-6.6-29.9-2.6-31.1
		c7.1-2.4,9.8,3.1,12.2,5.2c-1.3-3.6-1.6-7.5-2.9-11.5c-4.9,5.4-6.8,2.1-12.4,3.8c-15.3,4.7-12.9,27.3-8.2,39.8
		c7.3,20.4,20.4,33.1,33.1,27.7C164.4,280.7,164.2,265.1,153.6,260.9z"/>
	<path class="st0" d="M56.1,235.9c-0.9-2.6-1.1-5.1-1.1-7.3c-5.8,3.6-11.5,7.1-17.3,10.6c2.4,1.4,4.5,2.8,5.2,4.5
		c11.8,19.5,23.6,39.1,35.5,58.8c7.8,24.2-18.2,23.1-21.2,10.9c-0.9-3.6-3.6-10.9,5.2-13.9c-0.7-7.5-7.5-8.2-12.4-5.6
		c-16.7,9.1,2.6,43.3,27.7,30.1c9.4-4.9,16.2-21.3,11.5-29.7L56.1,235.9z"/>
	<path class="st0" d="M132.1,283.7c-13-17.1-25.7-34.1-38.4-51c-4.3,2.2-8.5,4.4-12.7,6.6c2.4,2,4.5,4.2,5.2,7.6
		c4,18.2,8,36.3,12.2,54.4c0.3,2.8,0,5.4-1.1,8c3.7-1.6,7.2-3.5,10.8-5.1c-3-1.3-4.3-3-5.2-5.1c-1-4-1.9-7.8-2.8-11.8l12-6.2
		l6.6,9.6c0.7,2.9,0.6,5.6-0.5,7.8c6.8-3.3,13.8-6.8,20.7-10.1C136.1,287.7,133.9,286.1,132.1,283.7z M99.2,282.3L99.2,282.3
		C99.2,282.3,99.2,282.3,99.2,282.3L94,258l15.3,19.1C109.3,277.1,99.5,281.9,99.2,282.3z"/>
	<path class="st0" d="M230.9,177.4c-4.9,0.2-13.8,0.6-20.4,1.1c1.2,1.6,2.1,3.5,2.6,5.6c2.2,26.2,4.5,52.6,6.8,79
		c0,2.9-0.9,4.9-2.6,6.4c6.9-0.9,16.5-2.4,20.4-2.9C268.1,262.1,265,175.4,230.9,177.4z M233.8,262.8c-2.2-26.9-4.2-53.8-6.4-80.6
		c14.4-4.4,15.3,21.1,16.6,37.6C244.9,234.1,250.7,262.6,233.8,262.8z"/>
	<path class="st0" d="M391.2,290.1c-8.4,3.6-13.6,4.2-12.2-2.2c3.8-9.1,7.5-18.3,11.3-27.5c6-0.2,5.3,5,4.9,10.2
		c0.4,0,0.7,0.2,1.1,0.4l8-19.7l-1.2-0.4c-1.3,5.7-8.6,7.6-10.4,2.9c2.8-7.5,5.8-15,8.9-22.6c4.7,0.7,9.1,2.3,9.6,13.1
		c0.6,0,1.3,0,1.8,0l2.1-10.9l-25.9-11.3c0.2,1.5-0.7,5.7-1.6,7.1c-7.5,20.3-12.9,33.6-20.7,51.8c-1.8,3.4-3.3,5.4-4.9,5.8
		c1.7,0.9,25.7,12,25.5,12.2l4.4-7.8L391.2,290.1z"/>
	<path class="st0" d="M423.2,304c-4.9,3.1-12.4,4-14.8,0.2c9.4-18.1,18.8-36.2,28.2-54.3c0.7-1.4,2.2-2.6,4.2-2.9
		c-5.4-2.9-10.8-6.2-16.4-9.4c0,2.2-0.2,4.4-1.1,6.6c-8.9,17.4-18.1,34.8-27.1,52.2c-2.4,3.1-4,2.9-5.8,3.1
		c8.7,4.5,17.4,9.1,26.2,13.6l8.2-8.2L423.2,304z"/>
	<path class="st0" d="M477,270.3c0,0,0.3,1.2-2.8,0c-3-1.4-3.3-11.9-17.9-10.8c-21.4,1.5-13.2,34.9-13.2,38.2
		c0,1.5,4.6,24.8-6.2,24.4c-10.5-0.4-8.9-16.2-8.9-16.2c0.2-0.6-0.7-1.1-1.2-0.2c-2,3.5-4.8,7.8-6.4,10.4c0,3.6,3.3-1.8,6.7,4.1
		c6.9,11,18,6.7,22.9,1.8c9.7-9.3,6.9-23.7,6.2-36.4c-0.4-6.2-3.7-21,4.7-21.9c8.9-0.9,9.8,12.9,9.1,16.5c0,0.5,1.2,1.2,1.6,0.7
		c1.7-3.2,3.7-6.5,6.1-9.4C477.9,271.4,477.2,270.8,477,270.3z"/>
	<path class="st0" d="M288.1,199.6c-5-0.4-9.7-0.7-14.4-1.1c1,3,1.9,6.1,1,9.1c-5.8,17.6-11.5,35.3-17.6,52.9
		c-0.9,2.6-2.3,4.6-4.7,6.4c4.3,0.2,8.3,0.6,11.8,1.1c-2.1-2.7-2.3-4.9-2.1-7.1c1.2-3.9,2.6-7.7,3.8-11.5l13.4,0.7l0.5,11.7
		c-0.9,3-2.3,5.2-4.5,6.6c8.5,0.7,15.8,1,23.1,2.1c-2.1-2.2-3.1-4.5-3.5-7.6C292.6,241.8,290.3,220.7,288.1,199.6z M267.2,244.8
		L267.2,244.8C267.2,244.8,267.2,244.8,267.2,244.8l8-23.5l3.3,24.2C278.5,245.5,267.7,244.7,267.2,244.8z"/>
	<path class="st0" d="M354.3,210.9c-3-0.8-6.7-1.9-9.8-2.6c0.9,1.8,0.9,4,0.5,6.2c-3.2,11.3-6.5,24-9.8,35.1l-10.8-44.2
		c-3.4-0.9-6.9-1.4-10.2-2.1c0.7,1.8,1.2,4,1.1,6.7c-3.5,18-7.1,36.2-10.6,54.4c-0.5,2.7-1.5,4.8-2.9,6.9c3,0.3,6,0.9,9.1,1.4
		c-0.8-2.6-1.6-5.5-1.2-7.1c2.6-11.3,5.1-24.7,7.5-35.8l9.1,45.9l7.8,1.8l16.9-61.9C351.7,213.5,352.9,212,354.3,210.9z"/>
	<path class="st0" d="M374.4,225.8c1.2-2.8,2.8-5.1,4.9-6.4c-5.4-2.1-10.9-4-16.4-6.2c0,2.6,0,5.1-0.4,7.6
		c-5.8,17.1-11.5,34.4-17.1,51.5c-1,3.4-2.7,5.8-4.6,7.4c5.4,1.8,11.1,3.6,16.5,5.2c-0.7-2.6-0.5-5.2,0.4-7.8
		C363.1,260,368.8,242.9,374.4,225.8z"/>
</g>
</svg>
