<?xml version="1.0" encoding="utf-8"?>
<svg version="1.1" xmlns="http://www.w3.org/2000/svg" x="0px" y="0px"
	 viewBox="0 0 512 512" style="enable-background:new 0 0 512 512;" xml:space="preserve">
<style type="text/css">
	.st0{enable-background:new;}
	.st1{fill:#666666;}
</style>
<g class="st0">
	<g>
		<g>
			<path class="st1" d="M297.4,114.6c-17.6,8.7-29.6,24.9-30.2,43.4c26.1,4.5,46.2,26.5,46.2,53.2c0,30.1-25.1,54.2-55.9,54.2
				c-34.1,0-57.3-29.8-56.7-63.2c0-48.7,40.7-88.2,91-88.2c1.6,0,3.2,0.1,4.7,0.1c-12.8-5.8-27.1-9.1-42-9.1
				c-55.8,0-101,45.2-101,101c0,56.2,45.2,101.5,101,101.5S356,262.4,356,206.1C356,165.6,331.9,130.7,297.4,114.6z M298,114.3
				c-0.5,0-1,0-1.5-0.1c0.3,0.1,0.6,0.3,0.9,0.4C297.6,114.5,297.8,114.4,298,114.3z"/>
		</g>
	</g>
</g>
<g class="st0">
	<g>
		<g>
			<path class="st1" d="M121.6,349.1c-15.4,0-27.9,12.5-27.9,27.9s12.5,27.9,27.9,27.9s27.9-12.5,27.9-27.9
				C149.4,361.5,136.9,349.1,121.6,349.1z M121.6,392.1c-6.6,0-11.9-6.8-11.9-15.2c0-8.4,5.3-15.2,11.9-15.2
				c6.6,0,11.9,6.8,11.9,15.2S128.1,392.1,121.6,392.1z M333.1,349.1c-15.4,0-27.9,12.5-27.9,27.9s12.5,27.9,27.9,27.9
				S361,392.3,361,377C361,361.5,348.6,349.1,333.1,349.1z M333.1,392.1c-6.6,0-11.9-6.8-11.9-15.2c0-8.4,5.3-15.2,11.9-15.2
				c6.6,0,11.9,6.8,11.9,15.2C345,385.3,339.7,392.1,333.1,392.1z M474.7,377c0-15.4-11.4-27.9-25.5-27.9c-14,0-25.5,12.5-25.5,27.9
				s11.4,28,25.5,28c6.2,0,16.1,0.7,23.1-4.5v-9.9l-1.7,0.3c-3.3,1.4-7.6,2.2-13.5,2.2c-6.8,0-10.5-0.8-15.2-5.3
				c-1-1.5-1.7-3.3-2.5-5.1h34.9C474.5,380.8,474.7,378.9,474.7,377z M439.3,371.1c1.8-5.5,6-9.5,11-9.5s9.3,3.9,11,9.5H439.3z
				 M78,349.9l-13.6,33.7l-13.6-33.7H34.7l21.7,53.5l0.1,0.2h15.9l0.1-0.2L94,349.9H78z M290.5,348c0-8,9.4-7.1,15.6-5.9v-12.9
				c-21-4.6-30.4,1.9-30.5,17.2V404h15v-40h13.7v-13.9h-13.7V348L290.5,348z M392.1,349.7c-8.4,0.1-17.1,1.1-25.5,3.8v50.8H381v-0.3
				h0.3v-39.2c3.6-0.9,7.1-1.3,10.6-1.4c7.8,0.3,11.6,5,11.4,13.1v27.8h15.4V376C419.3,359.2,410.4,350.4,392.1,349.7z M213.5,377.4
				c0,15.4,12.1,27.5,23.4,27.5c11.3,0,12.4-3.6,15.6-4.8v4.1h13.7v-51.5c-8.4-1.9-14.6-3.3-24.8-3.3
				C225.9,349.5,213.5,362,213.5,377.4z M251.4,363.4v23.3c0,1.6-3.6,5.3-10,5.3c-6.4-0.1-11.5-6.2-11.5-14.6
				C230,366.6,240.1,359.2,251.4,363.4z M193.1,350.9c-3.2-1.2-6.5-1.9-10.1-1.9c-15.4,0-27.9,12.5-27.9,27.9s12.5,27.9,27.9,27.9
				c8.2,0,16.4-0.6,24.8-2.1v-73.8h-14.7V350.9z M193.1,390.4c-2.1,1.1-4.6,1.7-7.1,1.7c-8.5,0-15.4-6.8-15.4-15.2
				c0-8.4,6.9-15.2,15.4-15.2c2.5,0,5,0.6,7.1,1.7V390.4z"/>
		</g>
	</g>
</g>
</svg>
