<?xml version="1.0" encoding="utf-8"?>
<!-- Generator: Adobe Illustrator 22.1.0, SVG Export Plug-In . SVG Version: 6.00 Build 0)  -->
<svg version="1.1" id="Capa_1" xmlns="http://www.w3.org/2000/svg" xmlns:xlink="http://www.w3.org/1999/xlink" x="0px" y="0px"
	 viewBox="0 0 100 100" style="enable-background:new 0 0 100 100;" xml:space="preserve">
<style type="text/css">
	.st0{fill:#1F0040;}
	.st1{fill:#D291FF;}
</style>
<g>
	<path class="st0" d="M13.3,14.3h73.3v71.3H13.3V14.3z"/>
	<path class="st1" d="M10,11v78h80V11H10z M13.3,14.3h73.3v71.3H13.3V14.3z M32.6,55.2l-2.6,10c-0.1,0.3-0.2,0.4-0.5,0.4h-4.9
		c-0.3,0-0.4-0.1-0.3-0.5l9.5-33.1c0.2-0.6,0.3-1.1,0.3-2.7c0-0.2,0.1-0.3,0.3-0.3h7c0.2,0,0.3,0.1,0.4,0.3l10.6,35.9
		c0.1,0.3,0,0.4-0.3,0.4h-5.5c-0.3,0-0.4-0.1-0.5-0.3l-2.8-10H32.6L32.6,55.2z M42,49.8c-0.9-3.7-3.2-11.8-4-15.7h-0.1
		C37.2,38,35.3,44.6,34,49.8C34,49.8,42,49.8,42,49.8z M59.8,53.2c0.1,4.5,2.2,7.5,7.3,7.5c2,0,3.7-0.3,5.4-1
		c0.2-0.1,0.4-0.1,0.4,0.2v4.2c0,0.3-0.1,0.5-0.3,0.7c-1.8,0.9-4,1.3-6.7,1.3c-8.8,0-12.1-6.5-12.1-13.8c0-7.9,4.1-14.3,11.2-14.3
		c7.3,0,9.8,6.1,9.8,11.1c0,1.6-0.1,2.9-0.3,3.5c-0.1,0.3-0.2,0.4-0.4,0.4c-0.7,0.1-2.6,0.2-5.6,0.2L59.8,53.2L59.8,53.2z
		 M66.6,48.6c1.7,0,2.3,0,2.5-0.1c0-0.2,0.1-0.4,0.1-0.6c0-1.8-0.9-5.1-4.3-5.1c-3.2,0-4.6,2.8-4.9,5.8H66.6L66.6,48.6z"/>
</g>
</svg>
