<?xml version="1.0" encoding="utf-8"?>
<!-- Generator: Adobe Illustrator 22.1.0, SVG Export Plug-In . SVG Version: 6.00 Build 0)  -->
<svg version="1.1" id="_x31_0" xmlns="http://www.w3.org/2000/svg" xmlns:xlink="http://www.w3.org/1999/xlink" x="0px" y="0px"
	 viewBox="0 0 100 100" style="enable-background:new 0 0 100 100;" xml:space="preserve">
<style type="text/css">
	.st0{fill:#374149;}
</style>
<g>
	<path class="st0" d="M47.2,51.1c-0.6,0.6-0.6,1.7,0,2.3c0.6,0.6,1.7,0.6,2.3,0c0.6-0.6,0.6-1.7,0-2.3
		C48.9,50.5,47.9,50.5,47.2,51.1z M48.1,52c0.2-0.2,0.4-0.2,0.6,0c0.2,0.2,0.2,0.4,0,0.6c-0.2,0.2-0.4,0.2-0.6,0
		C47.9,52.4,47.9,52.1,48.1,52z"/>
	<path class="st0" d="M55.4,43.9c-0.4,0.4-0.4,1,0,1.5c0.4,0.4,1,0.4,1.4,0c0.4-0.4,0.4-1.1,0-1.5C56.4,43.5,55.8,43.5,55.4,43.9z"
		/>
	<path class="st0" d="M60.9,38.3c-0.4,0.4-0.4,1,0,1.5c0.4,0.4,1.1,0.4,1.5,0c0.4-0.4,0.4-1.1,0-1.5C62,37.9,61.4,37.9,60.9,38.3z"
		/>
	<path class="st0" d="M83.5,28.2c-0.5-0.7-0.9-1.4-1.5-2.1c-2.1-2.9-4.7-5.4-7.4-7.6c-0.7-0.5-1.4-1-2.1-1.5c-6.4-4.4-14.2-7-22.6-7
		c-22.1,0-40,17.9-40,40c0,22.1,17.9,40,40,40c22.1,0,40-17.9,40-40C90,42,87.6,34.5,83.5,28.2z M61.3,43.4c0.1-0.3,0-0.7-0.3-0.9
		c-0.4-0.4-1.1-0.4-1.5,0c-0.4,0.4-0.4,1.1,0,1.5c0.1,0.1,0.2,0.1,0.3,0.2c0,0,0,0,0,0c0.1,0,0.2,0.1,0.3,0.1c0,0,0,0,0,0
		c0,0,0.1,0,0.1,0c0,0,0.1,0,0.1,0L48.8,56c-0.2,0.2-0.6,0.2-0.9,0l-3.2-3.2c-0.2-0.2-0.2-0.6,0-0.9l11.8-11.8c-0.1,0.3,0,0.7,0.3,1
		c0.4,0.4,1,0.4,1.4,0c0.4-0.4,0.4-1.1,0-1.5c-0.1-0.1-0.2-0.1-0.3-0.2c0,0,0,0,0,0c-0.1,0-0.2-0.1-0.3-0.1c0,0,0,0,0,0
		c0,0-0.1,0-0.1,0c0,0-0.1,0-0.1,0l3.7-3.7l0.8-0.8c1,1.6,2.3,2.9,3.8,3.9c0.1,0.1,0.2,0.1,0.3,0.2l-2.4,2.4L61.3,43.4z M65.5,30.2
		c-0.1,0.1-0.3,0.2-0.5,0.2c-0.1,0-0.2,0-0.3-0.1c-0.1,0-0.2-0.1-0.2-0.2l-1.8-1.8l1-1l1.8,1.8C65.8,29.5,65.8,29.9,65.5,30.2z
		 M65.6,25.6l1-1c0.1,0,0.1,0,0.1,0.1l1.7,1.7c0.3,0.3,0.3,0.7,0,1c-0.1,0.1-0.3,0.2-0.5,0.2c-0.2,0-0.4-0.1-0.5-0.2L65.6,25.6z
		 M72.2,37.9l-1.8-1.8c-0.1-0.1-0.1-0.2-0.1-0.2c-0.1-0.3-0.1-0.6,0.2-0.8c0.1-0.1,0.3-0.2,0.5-0.2c0.2,0,0.4,0.1,0.5,0.2l1.8,1.8
		L72.2,37.9z M73.3,32.3c0.1-0.1,0.3-0.2,0.5-0.2c0.2,0,0.4,0.1,0.5,0.2l1,1c0.2,0.3,0.4,0.6,0.6,0.9L75.1,35l-1.8-1.8
		C73,33,73,32.6,73.3,32.3z M21,58.8C20.2,56,19.7,53,19.7,50c0-16.7,13.6-30.3,30.3-30.3c4.5,0,8.8,1,12.6,2.8
		c0.8,0.3,1.5,0.7,2.2,1.1c0,0,0.1,0,0.1,0.1l-5.9,5.9l1.3,2.8L42.7,49.9c-1.3,1.3-1.3,3.5,0,4.8l0.2,0.2l-3.8,3.8l-0.9,0.9L35.9,63
		l-1.7,2.4c-0.1,0.2-0.2,0.3-0.1,0.5c0,0.2,0.1,0.3,0.2,0.5c0.3,0.3,0.7,0.3,1,0.1l5-3.5l0.6-0.4l3.8-3.8l1-1l0.2,0.2
		c0.4,0.4,0.8,0.7,1.3,0.8c0.7,0.2,1.4,0.2,2.1,0c0.5-0.1,0.9-0.4,1.3-0.8l17.6-17.6l2.8,1.3l4.4-4.4l1.3-1.2
		c0.4,0.8,0.8,1.6,1.1,2.4c1.5,3.6,2.3,7.5,2.3,11.7c0,3-0.4,6-1.3,8.8H53.4l-0.9,1c-1.1,1.1-2.6,1.7-4.2,1.7
		c-0.8,0-1.6-0.2-2.3-0.5l-1.2,1.2L44,62.9l0,0l0,0h13.4v4.1H42.6V77l0,2.4c-4.3-1.1-8.3-3.1-11.7-5.8v-2h7.5V69h-2.8H34h-3v-6h1.9
		l1.9-2.7l1.1-1.5h0l0,0H21z M59.9,75.7V63h5.2v13.3c-4.5,2.6-9.6,4.1-15.1,4.1c-1.7,0-3.3-0.1-4.9-0.4V69.6h12.3v3.6h-8.6v2.5v0
		l0,0v0H59.9z M28.4,71.2c-2.4-2.4-4.3-5.2-5.8-8.3h5.8v4.8L28.4,71.2z M77.4,63c-0.5,1.1-1.1,2.2-1.8,3.2h-8V63h6.8L77.4,63z
		 M73.8,68.7c-1.5,1.9-3.2,3.6-5.1,5.1c-0.4,0.3-0.7,0.6-1.1,0.8v-6h3.9L73.8,68.7z"/>
</g>
</svg>
