<?xml version="1.0" encoding="utf-8"?>
<!-- Generator: Adobe Illustrator 22.1.0, SVG Export Plug-In . SVG Version: 6.00 Build 0)  -->
<svg version="1.1" id="Layer_1" xmlns="http://www.w3.org/2000/svg" xmlns:xlink="http://www.w3.org/1999/xlink" x="0px" y="0px"
	 viewBox="0 0 100 100" style="enable-background:new 0 0 100 100;" xml:space="preserve">
<style type="text/css">
	.st0{fill:#C62717;}
	.st1{fill:#333333;}
	.st2{fill:#FFFFFF;fill-opacity:0.15;}
	.st3{fill:none;stroke:#9A916C;stroke-width:0.56;}
	.st4{fill:#6D6D6D;}
	.st5{fill:#7F7F7F;}
	.st6{opacity:0.2;fill:none;stroke:#FFFFFF;stroke-width:0.1084;stroke-miterlimit:10;enable-background:new    ;}
	.st7{opacity:0.2;fill:none;stroke:#606060;stroke-width:0.1084;stroke-miterlimit:10;enable-background:new    ;}
	.st8{fill:#BCA16A;}
	.st9{fill:#606060;}
	.st10{opacity:0.2;fill:#BCA16A;stroke:#FFFFFF;stroke-width:0.2427;stroke-miterlimit:10;enable-background:new    ;}
	.st11{opacity:0.2;fill:#BCA16A;stroke:#606060;stroke-width:0.2427;stroke-miterlimit:10;enable-background:new    ;}
	.st12{fill:#404040;}
	.st13{fill:#2A2A29;}
	.st14{fill:#474747;}
	.st15{fill:#595959;}
	.st16{fill:#373737;}
	.st17{fill:#2B2B2B;}
	.st18{fill:#292929;}
	.st19{fill:#383838;}
	.st20{fill:#212121;}
	.st21{fill:#A1A1A1;}
	.st22{fill:#ABABAB;}
	.st23{fill:#C7C7C7;}
	.st24{fill:#E6E6E6;}
	.st25{fill:#737373;}
	.st26{opacity:0.1;enable-background:new    ;}
	.st27{fill:#B7B7B7;}
	.st28{opacity:0.15;}
	.st29{opacity:0.15;enable-background:new    ;}
	.st30{opacity:0.2;}
	.st31{fill:#666666;}
	.st32{opacity:0.24;}
	.st33{fill:#FFFFFF;}
	
		.st34{opacity:0.24;fill:none;stroke:#FFFFFF;stroke-width:0.1144;stroke-linecap:round;stroke-linejoin:round;enable-background:new    ;}
	.st35{opacity:0.24;fill:#FFFFFF;enable-background:new    ;}
	.st36{opacity:0.15;fill:none;stroke:#FFFFFF;stroke-width:9.077392e-02;stroke-linecap:round;enable-background:new    ;}
	.st37{opacity:0.3;fill:none;stroke:#FFFFFF;stroke-width:9.150596e-02;stroke-linecap:round;enable-background:new    ;}
	.st38{opacity:0.77;fill:none;stroke:#353535;stroke-width:9.150596e-02;stroke-linecap:round;enable-background:new    ;}
	.st39{fill:#353535;}
	.st40{opacity:0.2;fill:none;stroke:#FFFFFF;stroke-width:9.150596e-02;stroke-miterlimit:10;enable-background:new    ;}
</style>
<desc>Fritzing breadboard generated by brd2svg</desc>
<path class="st0" d="M15.4,14.9l1.6-1.6h14.8l3.3-3.3H78l3.3,3.3h3.3v70.8l-3.3,3.3H18.7l-3.3-3.3V14.9 M72.6,13.3
	c0,1.2,1,2.1,2.1,2.1c1.2,0,2.1-1,2.1-2.1s-1-2.1-2.1-2.1C73.5,11.2,72.6,12.1,72.6,13.3z M16.6,79.2c0,1.2,1,2.1,2.1,2.1
	c1.2,0,2.1-1,2.1-2.1c0,0,0,0,0,0c0-1.2-1-2.1-2.1-2.1C17.5,77,16.6,78,16.6,79.2C16.6,79.2,16.6,79.2,16.6,79.2z M50.3,82.9
	c0,0.7,0.6,1.3,1.3,1.3c0.7,0,1.3-0.6,1.3-1.3c0,0,0,0,0,0c0-0.7-0.6-1.3-1.3-1.3C50.9,81.6,50.3,82.2,50.3,82.9
	C50.3,82.9,50.3,82.9,50.3,82.9z M50.3,73.8c0,0.7,0.6,1.3,1.3,1.3c0.7,0,1.3-0.6,1.3-1.3c0,0,0,0,0,0c0-0.7-0.6-1.3-1.3-1.3
	C50.9,72.5,50.3,73.1,50.3,73.8C50.3,73.8,50.3,73.8,50.3,73.8z M60.9,85.8c0,0.4,0.3,0.7,0.7,0.7s0.7-0.3,0.7-0.7c0,0,0,0,0,0
	c0-0.4-0.3-0.7-0.7-0.7C61.2,85.1,60.9,85.4,60.9,85.8C60.9,85.8,60.9,85.8,60.9,85.8z M64.2,85.8c0,0.4,0.3,0.7,0.7,0.7
	s0.7-0.3,0.7-0.7c0,0,0,0,0,0c0-0.4-0.3-0.7-0.7-0.7S64.2,85.4,64.2,85.8C64.2,85.8,64.2,85.8,64.2,85.8z M67.4,85.8
	c0,0.4,0.3,0.7,0.7,0.7s0.7-0.3,0.7-0.7c0,0,0,0,0,0c0-0.4-0.3-0.7-0.7-0.7S67.4,85.4,67.4,85.8C67.4,85.8,67.4,85.8,67.4,85.8z
	 M80.6,52.8c0,0.4,0.3,0.7,0.7,0.7s0.7-0.3,0.7-0.7c0-0.4-0.3-0.7-0.7-0.7S80.6,52.5,80.6,52.8z M80.6,49.5c0,0.4,0.3,0.7,0.7,0.7
	s0.7-0.3,0.7-0.7s-0.3-0.7-0.7-0.7S80.6,49.2,80.6,49.5L80.6,49.5z M80.6,33.1c0,0.4,0.3,0.7,0.7,0.7s0.7-0.3,0.7-0.7
	c0-0.4-0.3-0.7-0.7-0.7S80.6,32.7,80.6,33.1L80.6,33.1z M80.6,29.8c0,0.4,0.3,0.7,0.7,0.7s0.7-0.3,0.7-0.7c0-0.4-0.3-0.7-0.7-0.7
	S80.6,29.4,80.6,29.8L80.6,29.8z M80.6,26.5c0,0.4,0.3,0.7,0.7,0.7s0.7-0.3,0.7-0.7c0-0.4-0.3-0.7-0.7-0.7S80.6,26.1,80.6,26.5z
	 M80.6,23.2c0,0.4,0.3,0.7,0.7,0.7s0.7-0.3,0.7-0.7c0-0.4-0.3-0.7-0.7-0.7S80.6,22.8,80.6,23.2z M80.6,19.9c0,0.4,0.3,0.7,0.7,0.7
	s0.7-0.3,0.7-0.7c0-0.4-0.3-0.7-0.7-0.7S80.6,19.5,80.6,19.9L80.6,19.9z M80.6,16.6c0,0.4,0.3,0.7,0.7,0.7s0.7-0.3,0.7-0.7
	c0-0.4-0.3-0.7-0.7-0.7S80.6,16.2,80.6,16.6z M18,67.6c0,0.4,0.3,0.7,0.7,0.7s0.7-0.3,0.7-0.7S19.1,67,18.7,67S18,67.3,18,67.6
	L18,67.6z M18,23.2c0,0.4,0.3,0.7,0.7,0.7s0.7-0.3,0.7-0.7c0-0.4-0.3-0.7-0.7-0.7S18,22.8,18,23.2L18,23.2z M18,26.5
	c0,0.4,0.3,0.7,0.7,0.7s0.7-0.3,0.7-0.7c0-0.4-0.3-0.7-0.7-0.7S18,26.1,18,26.5z M18,29.8c0,0.4,0.3,0.7,0.7,0.7s0.7-0.3,0.7-0.7
	c0-0.4-0.3-0.7-0.7-0.7S18,29.4,18,29.8z M18,33.1c0,0.4,0.3,0.7,0.7,0.7s0.7-0.3,0.7-0.7l0,0c0-0.4-0.3-0.7-0.7-0.7
	S18,32.7,18,33.1z M18,36.4c0,0.4,0.3,0.7,0.7,0.7s0.7-0.3,0.7-0.7c0-0.4-0.3-0.7-0.7-0.7S18,36,18,36.4L18,36.4z M18,39.6
	c0,0.4,0.3,0.7,0.7,0.7s0.7-0.3,0.7-0.7S19.1,39,18.7,39S18,39.3,18,39.6z M18,44.6c0,0.4,0.3,0.7,0.7,0.7s0.7-0.3,0.7-0.7
	s-0.3-0.7-0.7-0.7S18,44.2,18,44.6z M18,47.9c0,0.4,0.3,0.7,0.7,0.7s0.7-0.3,0.7-0.7s-0.3-0.7-0.7-0.7S18,47.5,18,47.9L18,47.9z
	 M18,51.2c0,0.4,0.3,0.7,0.7,0.7s0.7-0.3,0.7-0.7c0-0.4-0.3-0.7-0.7-0.7S18,50.8,18,51.2L18,51.2z M18,54.5c0,0.4,0.3,0.7,0.7,0.7
	s0.7-0.3,0.7-0.7c0-0.4-0.3-0.7-0.7-0.7S18,54.1,18,54.5L18,54.5z M18,57.8c0,0.4,0.3,0.7,0.7,0.7s0.7-0.3,0.7-0.7s-0.3-0.7-0.7-0.7
	S18,57.4,18,57.8z M18,61.1c0,0.4,0.3,0.7,0.7,0.7s0.7-0.3,0.7-0.7s-0.3-0.7-0.7-0.7S18,60.7,18,61.1L18,61.1z M80.6,46.2
	c0,0.4,0.3,0.7,0.7,0.7s0.7-0.3,0.7-0.7s-0.3-0.7-0.7-0.7S80.6,45.9,80.6,46.2z M80.6,42.9c0,0.4,0.3,0.7,0.7,0.7s0.7-0.3,0.7-0.7
	s-0.3-0.7-0.7-0.7S80.6,42.6,80.6,42.9z M18,64.4c0,0.4,0.3,0.7,0.7,0.7s0.7-0.3,0.7-0.7c0-0.4-0.3-0.7-0.7-0.7S18,64,18,64.4z
	 M80.6,56.1c0,0.4,0.3,0.7,0.7,0.7s0.7-0.3,0.7-0.7c0-0.4-0.3-0.7-0.7-0.7S80.6,55.8,80.6,56.1L80.6,56.1z M18,16.6
	c0,0.4,0.3,0.7,0.7,0.7s0.7-0.3,0.7-0.7s-0.3-0.7-0.7-0.7S18,16.2,18,16.6L18,16.6z M18,19.9c0,0.4,0.3,0.7,0.7,0.7s0.7-0.3,0.7-0.7
	s-0.3-0.7-0.7-0.7S18,19.5,18,19.9z M80.6,39.6c0,0.4,0.3,0.7,0.7,0.7s0.7-0.3,0.7-0.7S81.6,39,81.3,39S80.6,39.3,80.6,39.6
	L80.6,39.6z"/>
<rect x="66.5" y="52.9" class="st1" width="6.5" height="3.1"/>
<rect x="66.5" y="43" class="st1" width="6.5" height="3.1"/>
<rect x="69.6" y="30.8" class="st2" width="0.4" height="1.2"/>
<rect x="34.7" y="36.4" class="st1" width="4.2" height="6.5"/>
<rect x="39.8" y="39.2" class="st2" width="0.5" height="0.9"/>
<rect x="46.4" y="49.1" class="st2" width="0.5" height="0.9"/>
<rect x="46.4" y="29.3" class="st2" width="0.5" height="0.9"/>
<rect x="44.8" y="49.1" class="st2" width="0.5" height="0.9"/>
<rect x="53" y="29.3" class="st2" width="0.5" height="0.9"/>
<rect x="59.6" y="42.5" class="st2" width="0.5" height="0.9"/>
<rect x="59.6" y="35.9" class="st2" width="0.5" height="0.9"/>
<rect x="69.5" y="32.6" class="st2" width="0.5" height="0.9"/>
<rect x="59.6" y="40.8" class="st2" width="0.5" height="0.9"/>
<rect x="53" y="49.1" class="st2" width="0.5" height="0.9"/>
<rect x="51.4" y="49.1" class="st2" width="0.5" height="0.9"/>
<rect x="54.7" y="49.1" class="st2" width="0.5" height="0.9"/>
<rect x="38.2" y="26" class="st2" width="0.5" height="0.9"/>
<rect x="38.2" y="29.3" class="st2" width="0.5" height="0.9"/>
<rect x="32.1" y="28.4" class="st2" width="2.8" height="2.6"/>
<rect x="32.1" y="25.2" class="st2" width="2.8" height="2.6"/>
<rect x="68.7" y="36.2" class="st1" width="1.6" height="3.7"/>
<rect x="45.6" y="35.3" class="st1" width="8.8" height="8.8"/>
<rect x="26.7" y="53.6" class="st1" width="13.6" height="5.1"/>
<circle id="connector32pin" class="st3" cx="61.5" cy="85.8" r="0.9"/>
<circle id="connector33pin" class="st3" cx="64.8" cy="85.8" r="0.9"/>
<circle id="connector34pin" class="st3" cx="68.1" cy="85.8" r="0.9"/>
<circle id="connector86pin" class="st3" cx="81.3" cy="52.8" r="0.9"/>
<circle id="connector87pin" class="st3" cx="81.3" cy="49.5" r="0.9"/>
<circle id="connector88pin" class="st3" cx="81.3" cy="33.1" r="0.9"/>
<circle id="connector89pin" class="st3" cx="81.3" cy="29.8" r="0.9"/>
<circle id="connector90pin" class="st3" cx="81.3" cy="26.5" r="0.9"/>
<circle id="connector91pin" class="st3" cx="81.3" cy="23.2" r="0.9"/>
<circle id="connector92pin" class="st3" cx="81.3" cy="19.9" r="0.9"/>
<circle id="connector93pin" class="st3" cx="81.3" cy="16.6" r="0.9"/>
<circle id="connector94pin" class="st3" cx="18.7" cy="67.6" r="0.9"/>
<circle id="connector95pin" class="st3" cx="18.7" cy="23.2" r="0.9"/>
<circle id="connector96pin" class="st3" cx="18.7" cy="26.5" r="0.9"/>
<circle id="connector97pin" class="st3" cx="18.7" cy="29.8" r="0.9"/>
<circle id="connector98pin" class="st3" cx="18.7" cy="33.1" r="0.9"/>
<circle id="connector99pin" class="st3" cx="18.7" cy="36.4" r="0.9"/>
<circle id="connector100pin" class="st3" cx="18.7" cy="39.6" r="0.9"/>
<circle id="connector101pin" class="st3" cx="18.7" cy="44.6" r="0.9"/>
<circle id="connector102pin" class="st3" cx="18.7" cy="47.9" r="0.9"/>
<circle id="connector103pin" class="st3" cx="18.7" cy="51.2" r="0.9"/>
<circle id="connector104pin" class="st3" cx="18.7" cy="54.5" r="0.9"/>
<circle id="connector105pin" class="st3" cx="18.7" cy="57.8" r="0.9"/>
<circle id="connector106pin" class="st3" cx="18.7" cy="61.1" r="0.9"/>
<circle id="connector107pin" class="st3" cx="81.3" cy="46.2" r="0.9"/>
<circle id="connector108pin" class="st3" cx="81.3" cy="42.9" r="0.9"/>
<circle id="connector109pin" class="st3" cx="18.7" cy="64.4" r="0.9"/>
<circle id="connector110pin" class="st3" cx="81.3" cy="56.1" r="0.9"/>
<circle id="connector111pin" class="st3" cx="18.7" cy="16.6" r="0.9"/>
<circle id="connector112pin" class="st3" cx="18.7" cy="19.9" r="0.9"/>
<circle id="connector113pin" class="st3" cx="81.3" cy="39.6" r="0.9"/>
<g id="tactile_switch_smd" transform="matrix(1, 0, 0, 1, 132.185, 106.978)">
	<g transform="matrix(0, -1, 1, 0, 0, 16.392)">
		<polygon class="st4" points="57.4,-50.4 58.5,-49.3 62.9,-49.3 63.9,-50.4 63.9,-54.7 62.9,-55.8 58.5,-55.8 57.4,-54.7 		"/>
		
			<rect x="56.9" y="-54.7" transform="matrix(-2.535182e-06 -1 1 -2.535182e-06 113.2313 8.118)" class="st4" width="7.5" height="4.4"/>
		
			<rect x="58.5" y="-56.3" transform="matrix(-2.535182e-06 -1 1 -2.535182e-06 113.232 8.1168)" class="st4" width="4.4" height="7.5"/>
		<polygon class="st5" points="57.8,-50.6 58.7,-49.6 62.6,-49.6 63.6,-50.6 63.6,-54.5 62.6,-55.5 58.7,-55.5 57.8,-54.5 		"/>
		<polyline class="st6" points="58.8,-55.3 57.9,-54.4 57.9,-50.7 58.8,-49.8 62.5,-49.8 		"/>
		<polyline class="st7" points="62.5,-49.8 63.4,-50.7 63.4,-54.4 62.5,-55.3 58.8,-55.3 		"/>
		<g>
			<path class="st8" d="M60.7-50.9c-0.9,0-1.7-0.8-1.7-1.7c0-0.9,0.8-1.7,1.7-1.7c0.9,0,1.7,0.8,1.7,1.7
				C62.4-51.6,61.6-50.9,60.7-50.9z"/>
			<path class="st9" d="M60.7-54.1c0.9,0,1.6,0.7,1.6,1.6c0,0.9-0.7,1.6-1.6,1.6c-0.9,0-1.6-0.7-1.6-1.6
				C59.1-53.4,59.8-54.1,60.7-54.1 M60.7-54.4c-1,0-1.8,0.8-1.8,1.8c0,1,0.8,1.8,1.8,1.8c1,0,1.8-0.8,1.8-1.8
				C62.5-53.6,61.7-54.4,60.7-54.4L60.7-54.4z"/>
		</g>
		<path class="st10" d="M61.7-51.6c-0.6,0.6-1.5,0.6-2,0c-0.6-0.6-0.6-1.5,0-2"/>
		<path class="st11" d="M59.7-53.6c0.6-0.6,1.5-0.6,2,0c0.6,0.6,0.6,1.5,0,2"/>
	</g>
</g>
<g id="duemilanove_shield" transform="matrix(1, 0, 0, 1, -1.54514, -0.28586)">
	<g>
		<rect x="18.6" y="43.2" class="st12" width="3.3" height="26.4"/>
		<rect x="18.6" y="15.2" class="st12" width="3.3" height="26.4"/>
		<rect x="81.1" y="38.3" class="st12" width="3.3" height="19.8"/>
		<polyline class="st12" points="84.4,35 81.1,35 81.1,15.2 84.4,15.2 		"/>
		<g>
			<rect x="19.6" y="67.2" width="1.3" height="1.3"/>
			<rect x="19.6" y="63.9" width="1.3" height="1.3"/>
			<rect x="19.6" y="60.7" width="1.3" height="1.3"/>
			<rect x="19.6" y="57.4" width="1.3" height="1.3"/>
			<rect x="19.6" y="54.1" width="1.3" height="1.3"/>
			<rect x="19.6" y="50.8" width="1.3" height="1.3"/>
			<rect x="19.6" y="47.5" width="1.3" height="1.3"/>
			<rect x="19.6" y="44.2" width="1.3" height="1.3"/>
			<rect x="19.6" y="39.3" width="1.3" height="1.3"/>
			<rect x="19.6" y="36" width="1.3" height="1.3"/>
			<rect x="19.6" y="32.7" width="1.3" height="1.3"/>
			<rect x="19.6" y="29.4" width="1.3" height="1.3"/>
			<rect x="19.6" y="26.1" width="1.3" height="1.3"/>
			<rect x="19.6" y="22.8" width="1.3" height="1.3"/>
			<rect x="19.6" y="19.5" width="1.3" height="1.3"/>
			<rect x="19.6" y="16.2" width="1.3" height="1.3"/>
			<rect x="82.2" y="55.7" width="1.3" height="1.3"/>
			<rect x="82.2" y="52.4" width="1.3" height="1.3"/>
			<rect x="82.2" y="49.1" width="1.3" height="1.3"/>
			<rect x="82.2" y="45.8" width="1.3" height="1.3"/>
			<rect x="82.2" y="42.6" width="1.3" height="1.3"/>
			<rect x="82.2" y="39.3" width="1.3" height="1.3"/>
			<rect x="82.2" y="32.7" width="1.3" height="1.3"/>
			<rect x="82.2" y="29.4" width="1.3" height="1.3"/>
			<rect x="82.2" y="26.1" width="1.3" height="1.3"/>
			<rect x="82.2" y="22.8" width="1.3" height="1.3"/>
			<rect x="82.2" y="19.5" width="1.3" height="1.3"/>
			<rect x="82.2" y="16.2" width="1.3" height="1.3"/>
		</g>
		<g>
			<polygon class="st13" points="19.1,69 19.6,68.5 19.6,67.2 19.1,66.8 			"/>
			<polygon class="st13" points="19.1,65.7 19.6,65.2 19.6,63.9 19.1,63.5 			"/>
			<polygon class="st13" points="19.1,62.4 19.6,61.9 19.6,60.7 19.1,60.2 			"/>
			<polygon class="st13" points="19.1,59.1 19.6,58.6 19.6,57.4 19.1,56.9 			"/>
			<polygon class="st13" points="19.1,55.8 19.6,55.3 19.6,54.1 19.1,53.6 			"/>
			<polygon class="st13" points="19.1,52.5 19.6,52 19.6,50.8 19.1,50.3 			"/>
			<polygon class="st13" points="19.1,49.2 19.6,48.7 19.6,47.5 19.1,47 			"/>
			<polygon class="st13" points="19.1,45.9 19.6,45.5 19.6,44.2 19.1,43.7 			"/>
			<polygon class="st13" points="19.1,41 19.6,40.5 19.6,39.3 19.1,38.8 			"/>
			<polygon class="st13" points="19.1,37.7 19.6,37.2 19.6,36 19.1,35.5 			"/>
			<polygon class="st13" points="19.1,34.4 19.6,34 19.6,32.7 19.1,32.2 			"/>
			<polygon class="st13" points="19.1,31.1 19.6,30.7 19.6,29.4 19.1,28.9 			"/>
			<polygon class="st13" points="19.1,27.8 19.6,27.4 19.6,26.1 19.1,25.6 			"/>
			<polygon class="st13" points="19.1,24.5 19.6,24.1 19.6,22.8 19.1,22.3 			"/>
			<polygon class="st13" points="19.1,21.2 19.6,20.8 19.6,19.5 19.1,19 			"/>
			<polygon class="st13" points="19.1,18 19.6,17.5 19.6,16.2 19.1,15.7 			"/>
			<polygon class="st13" points="81.7,57.5 82.2,57 82.2,55.7 81.7,55.3 			"/>
			<polygon class="st13" points="81.7,54.2 82.2,53.7 82.2,52.4 81.7,52 			"/>
			<polygon class="st13" points="81.7,50.9 82.2,50.4 82.2,49.1 81.7,48.7 			"/>
			<polygon class="st13" points="81.7,47.6 82.2,47.1 82.2,45.8 81.7,45.4 			"/>
			<polygon class="st13" points="81.7,44.3 82.2,43.8 82.2,42.6 81.7,42.1 			"/>
			<polygon class="st13" points="81.7,41 82.2,40.5 82.2,39.3 81.7,38.8 			"/>
			<polygon class="st13" points="81.7,34.4 82.2,34 82.2,32.7 81.7,32.2 			"/>
			<polygon class="st13" points="81.7,31.2 82.2,30.7 82.2,29.4 81.7,28.9 			"/>
			<polygon class="st13" points="81.7,27.9 82.2,27.4 82.2,26.1 81.7,25.6 			"/>
			<polygon class="st13" points="81.7,24.6 82.2,24.1 82.2,22.8 81.7,22.4 			"/>
			<polygon class="st13" points="81.7,21.3 82.2,20.8 82.2,19.5 81.7,19.1 			"/>
			<polygon class="st13" points="81.7,15.8 81.7,18 82.2,17.5 82.2,16.2 			"/>
		</g>
		<g>
			<polygon class="st14" points="19.6,67.2 20.9,67.2 21.3,66.8 19.1,66.8 			"/>
			<polygon class="st14" points="19.6,63.9 20.9,63.9 21.3,63.5 19.1,63.5 			"/>
			<polygon class="st14" points="19.6,60.7 20.9,60.7 21.3,60.2 19.1,60.2 			"/>
			<polygon class="st14" points="19.6,57.4 20.9,57.4 21.3,56.9 19.1,56.9 			"/>
			<polygon class="st14" points="19.6,54.1 20.9,54.1 21.3,53.6 19.1,53.6 			"/>
			<polygon class="st14" points="19.6,50.8 20.9,50.8 21.3,50.3 19.1,50.3 			"/>
			<polygon class="st14" points="19.6,47.5 20.9,47.5 21.3,47 19.1,47 			"/>
			<polygon class="st14" points="19.6,44.2 20.9,44.2 21.3,43.7 19.1,43.7 			"/>
			<polygon class="st14" points="19.6,39.3 20.9,39.3 21.3,38.8 19.1,38.8 			"/>
			<polygon class="st14" points="19.6,36 20.9,36 21.3,35.5 19.1,35.5 			"/>
			<polygon class="st14" points="19.6,32.7 20.9,32.7 21.3,32.2 19.1,32.2 			"/>
			<polygon class="st14" points="19.6,29.4 20.9,29.4 21.3,28.9 19.1,28.9 			"/>
			<polygon class="st14" points="19.6,26.1 20.9,26.1 21.3,25.6 19.1,25.6 			"/>
			<polygon class="st14" points="19.6,22.8 20.9,22.8 21.3,22.3 19.1,22.3 			"/>
			<polygon class="st14" points="19.6,19.5 20.9,19.5 21.3,19 19.1,19 			"/>
			<polygon class="st14" points="19.6,16.2 20.9,16.2 21.3,15.7 19.1,15.7 			"/>
			<polygon class="st14" points="82.2,55.7 83.4,55.7 83.9,55.3 81.7,55.3 			"/>
			<polygon class="st14" points="82.2,52.4 83.4,52.4 83.9,52 81.7,52 			"/>
			<polygon class="st14" points="82.2,49.1 83.4,49.1 83.9,48.7 81.7,48.7 			"/>
			<polygon class="st14" points="82.2,45.8 83.4,45.8 83.9,45.4 81.7,45.4 			"/>
			<polygon class="st14" points="82.2,42.6 83.4,42.6 83.9,42.1 81.7,42.1 			"/>
			<polygon class="st14" points="82.2,39.3 83.4,39.3 83.9,38.8 81.7,38.8 			"/>
			<polygon class="st14" points="82.2,32.7 83.4,32.7 83.9,32.2 81.7,32.2 			"/>
			<polygon class="st14" points="82.2,29.4 83.4,29.4 83.9,28.9 81.7,28.9 			"/>
			<polygon class="st14" points="82.2,26.1 83.4,26.1 83.9,25.6 81.7,25.6 			"/>
			<polygon class="st14" points="82.2,22.8 83.4,22.8 83.9,22.4 81.7,22.4 			"/>
			<polygon class="st14" points="82.2,19.5 83.4,19.5 83.9,19.1 81.7,19.1 			"/>
			<polygon class="st14" points="83.4,16.2 83.9,15.8 81.7,15.8 82.2,16.2 			"/>
		</g>
		<g>
			<polygon class="st15" points="20.9,68.5 21.3,69 21.3,66.8 20.9,67.2 			"/>
			<polygon class="st15" points="20.9,65.2 21.3,65.7 21.3,63.5 20.9,63.9 			"/>
			<polygon class="st15" points="20.9,61.9 21.3,62.4 21.3,60.2 20.9,60.7 			"/>
			<polygon class="st15" points="20.9,58.6 21.3,59.1 21.3,56.9 20.9,57.4 			"/>
			<polygon class="st15" points="20.9,55.3 21.3,55.8 21.3,53.6 20.9,54.1 			"/>
			<polygon class="st15" points="20.9,52 21.3,52.5 21.3,50.3 20.9,50.8 			"/>
			<polygon class="st15" points="20.9,48.7 21.3,49.2 21.3,47 20.9,47.5 			"/>
			<polygon class="st15" points="20.9,45.5 21.3,45.9 21.3,43.7 20.9,44.2 			"/>
			<polygon class="st15" points="20.9,40.5 21.3,41 21.3,38.8 20.9,39.3 			"/>
			<polygon class="st15" points="20.9,37.2 21.3,37.7 21.3,35.5 20.9,36 			"/>
			<polygon class="st15" points="20.9,34 21.3,34.4 21.3,32.2 20.9,32.7 			"/>
			<polygon class="st15" points="20.9,30.7 21.3,31.1 21.3,28.9 20.9,29.4 			"/>
			<polygon class="st15" points="20.9,27.4 21.3,27.8 21.3,25.6 20.9,26.1 			"/>
			<polygon class="st15" points="20.9,24.1 21.3,24.5 21.3,22.3 20.9,22.8 			"/>
			<polygon class="st15" points="20.9,20.8 21.3,21.2 21.3,19 20.9,19.5 			"/>
			<polygon class="st15" points="20.9,17.5 21.3,18 21.3,15.7 20.9,16.2 			"/>
			<polygon class="st15" points="83.4,57 83.9,57.5 83.9,55.3 83.4,55.7 			"/>
			<polygon class="st15" points="83.4,53.7 83.9,54.2 83.9,52 83.4,52.4 			"/>
			<polygon class="st15" points="83.4,50.4 83.9,50.9 83.9,48.7 83.4,49.1 			"/>
			<polygon class="st15" points="83.4,47.1 83.9,47.6 83.9,45.4 83.4,45.9 			"/>
			<polygon class="st15" points="83.4,43.8 83.9,44.3 83.9,42.1 83.4,42.6 			"/>
			<polygon class="st15" points="83.4,40.5 83.9,41 83.9,38.8 83.4,39.3 			"/>
			<polygon class="st15" points="83.4,34 83.9,34.4 83.9,32.2 83.4,32.7 			"/>
			<polygon class="st15" points="83.4,30.7 83.9,31.2 83.9,28.9 83.4,29.4 			"/>
			<polygon class="st15" points="83.4,27.4 83.9,27.9 83.9,25.6 83.4,26.1 			"/>
			<polygon class="st15" points="83.4,24.1 83.9,24.6 83.9,22.4 83.4,22.8 			"/>
			<polygon class="st15" points="83.4,20.8 83.9,21.3 83.9,19.1 83.4,19.5 			"/>
			<polygon class="st15" points="83.4,16.2 83.4,17.5 83.9,18 83.9,15.8 			"/>
		</g>
		<g>
			<polygon class="st16" points="19.6,68.5 19.1,69 21.3,69 20.9,68.5 			"/>
			<polygon class="st16" points="19.6,65.2 19.1,65.7 21.3,65.7 20.9,65.2 			"/>
			<polygon class="st16" points="19.6,61.9 19.1,62.4 21.3,62.4 20.9,61.9 			"/>
			<polygon class="st16" points="19.6,58.6 19.1,59.1 21.3,59.1 20.9,58.6 			"/>
			<polygon class="st16" points="19.6,55.3 19.1,55.8 21.3,55.8 20.9,55.3 			"/>
			<polygon class="st16" points="19.6,52 19.1,52.5 21.3,52.5 20.9,52 			"/>
			<polygon class="st16" points="19.6,48.7 19.1,49.2 21.3,49.2 20.9,48.7 			"/>
			<polygon class="st16" points="19.6,45.5 19.1,45.9 21.3,45.9 20.9,45.5 			"/>
			<polygon class="st16" points="19.6,40.5 19.1,41 21.3,41 20.9,40.5 			"/>
			<polygon class="st16" points="19.6,37.2 19.1,37.7 21.3,37.7 20.9,37.2 			"/>
			<polygon class="st16" points="19.6,34 19.1,34.4 21.3,34.4 20.9,34 			"/>
			<polygon class="st16" points="19.6,30.7 19.1,31.1 21.3,31.1 20.9,30.7 			"/>
			<polygon class="st16" points="19.6,27.4 19.1,27.8 21.3,27.8 20.9,27.4 			"/>
			<polygon class="st16" points="19.6,24.1 19.1,24.5 21.3,24.5 20.9,24.1 			"/>
			<polygon class="st16" points="19.6,20.8 19.1,21.2 21.3,21.2 20.9,20.8 			"/>
			<polygon class="st16" points="19.6,17.5 19.1,18 21.3,18 20.9,17.5 			"/>
			<polygon class="st16" points="82.2,57 81.7,57.5 83.9,57.5 83.4,57 			"/>
			<polygon class="st16" points="82.2,53.7 81.7,54.2 83.9,54.2 83.4,53.7 			"/>
			<polygon class="st16" points="82.2,50.4 81.7,50.9 83.9,50.9 83.4,50.4 			"/>
			<polygon class="st16" points="82.2,47.1 81.7,47.6 83.9,47.6 83.4,47.1 			"/>
			<polygon class="st16" points="82.2,43.8 81.7,44.3 83.9,44.3 83.4,43.8 			"/>
			<polygon class="st16" points="82.2,40.5 81.7,41 83.9,41 83.4,40.5 			"/>
			<polygon class="st16" points="82.2,34 81.7,34.4 83.9,34.4 83.4,34 			"/>
			<polygon class="st16" points="82.2,30.7 81.7,31.2 83.9,31.2 83.4,30.7 			"/>
			<polygon class="st16" points="82.2,27.4 81.7,27.9 83.9,27.9 83.4,27.4 			"/>
			<polygon class="st16" points="82.2,24.1 81.7,24.6 83.9,24.6 83.4,24.1 			"/>
			<polygon class="st16" points="82.2,20.8 81.7,21.3 83.9,21.3 83.4,20.8 			"/>
			<polygon class="st16" points="83.4,17.5 82.2,17.5 81.7,18 83.9,18 			"/>
		</g>
	</g>
</g>
<g id="audio-jack-3.5mm-smd" transform="matrix(1, 0, 0, 1, 56.1798, 139.45)">
	<g transform="matrix(0, 1, -1, 0, 32.567, -13.487)">
		<polygon class="st17" points="-38.8,35.2 -38.8,35.2 -38.8,39 -38.8,39 -38.8,39.9 -36.8,39.9 -36.8,34.3 -38.8,34.3 		"/>
		<polygon class="st18" points="-38.8,38.9 -38.8,39 -38.8,39 -38.8,39.7 -36.8,39.7 -36.8,38.9 		"/>
		<polygon class="st18" points="-38.8,35.5 -38.8,35.2 -38.8,35.2 -38.8,34.5 -36.8,34.5 -36.8,35.5 		"/>
		
			<rect x="-38.5" y="35.9" transform="matrix(2.535182e-06 1 -1 2.535182e-06 -0.9485 74.6475)" class="st1" width="1.5" height="1.9"/>
		
			<rect x="-38.2" y="36" transform="matrix(2.535182e-06 1 -1 2.535182e-06 -0.8568 74.7392)" class="st19" width="0.8" height="1.9"/>
		
			<rect x="-37.9" y="38.8" transform="matrix(2.535182e-06 1 -1 2.535182e-06 1.9786 77.5649)" class="st20" width="0.2" height="2"/>
		
			<rect x="-37.9" y="33.5" transform="matrix(2.535182e-06 1 -1 2.535182e-06 -3.3555 72.2308)" class="st20" width="0.2" height="2"/>
		
			<rect x="-39.2" y="36.7" transform="matrix(2.535182e-06 1 -1 2.535182e-06 0.7146 73.5018)" class="st21" width="5.5" height="0.9"/>
		
			<rect x="-38.1" y="36.7" transform="matrix(2.535182e-06 1 -1 2.535182e-06 0.7835 73.5707)" class="st22" width="3.4" height="0.9"/>
		
			<rect x="-37.1" y="36.4" transform="matrix(2.535182e-06 1 -1 2.535182e-06 0.4559 73.2431)" class="st23" width="1.5" height="0.9"/>
		
			<rect x="-36.8" y="36.5" transform="matrix(2.535182e-06 1 -1 2.535182e-06 0.5476 73.3348)" class="st24" width="0.8" height="0.9"/>
		
			<rect x="-36.5" y="34" transform="matrix(2.535182e-06 1 -1 2.535182e-06 -1.956 70.8313)" class="st25" width="0.2" height="0.9"/>
		
			<rect x="-36.5" y="39.3" transform="matrix(2.535182e-06 1 -1 2.535182e-06 3.3779 76.1651)" class="st25" width="0.2" height="0.9"/>
		<g>
			<g>
				
					<rect x="-52.2" y="27.9" transform="matrix(2.535182e-06 1 -1 2.535182e-06 -10.7035 84.9181)" class="st1" width="8.7" height="18.4"/>
			</g>
		</g>
		<rect x="-43" y="32.1" transform="matrix(2.535182e-06 1 -1 2.535182e-06 -9.0527 75.7017)" width="1.2" height="2.4"/>
		<rect x="-45.3" y="39.7" transform="matrix(2.535182e-06 1 -1 2.535182e-06 -3.859 85.6463)" width="1.2" height="2.4"/>
		
			<rect x="-42.6" y="31.7" transform="matrix(2.535182e-06 1 -1 2.535182e-06 -9.44 75.3144)" class="st23" width="0.4" height="2.4"/>
		
			<rect x="-44.9" y="40.1" transform="matrix(2.535182e-06 1 -1 2.535182e-06 -3.4717 86.0336)" class="st23" width="0.4" height="2.4"/>
	</g>
</g>
<g id="micro-sd-socket-pp" transform="matrix(1, 0, 0, 1, 21.9367, 119.135)">
	<g transform="matrix(-1, 0, 0, -1, 39.143, 42.3576)">
		<rect x="17.9" y="83.7" width="4.4" height="13.3"/>
		<rect x="23.9" y="87.4" width="10.8" height="9.5"/>
		<path class="st12" d="M25.2,97v-0.5c0-0.2,0.1-0.4,0.2-0.4h0.9c0.1,0,0.2,0.2,0.2,0.4V97"/>
		<path class="st26" d="M26.5,95.4l0,0.9c0,0.2-0.1,0.3-0.2,0.3c-0.1,0-0.6,0-0.7,0c-0.1,0-0.2-0.1-0.2-0.3l-0.1-1"/>
		<path class="st12" d="M32.3,97v-0.5c0-0.2,0.1-0.4,0.2-0.4h0.9c0.1,0,0.2,0.2,0.2,0.4V97"/>
		<path class="st26" d="M33.6,95.4l0,0.9c0,0.2-0.1,0.3-0.2,0.3s-0.6,0-0.7,0c-0.1,0-0.2-0.1-0.2-0.3l-0.1-1"/>
		<rect x="23.5" y="84.6" class="st12" width="11.2" height="1.6"/>
		<g>
			<g>
				<rect x="28.2" y="82.5" class="st27" width="0.4" height="2"/>
				<rect x="26.9" y="82.5" class="st27" width="0.4" height="2"/>
				<rect x="25.5" y="82.5" class="st27" width="0.4" height="2"/>
				<rect x="24.2" y="82.5" class="st27" width="0.4" height="2"/>
			</g>
		</g>
		<g>
			<g>
				<rect x="33.9" y="82.5" class="st27" width="0.4" height="2"/>
				<rect x="32.5" y="82.5" class="st27" width="0.4" height="2"/>
				<rect x="31.1" y="82.5" class="st27" width="0.4" height="2"/>
				<rect x="29.8" y="82.5" class="st27" width="0.4" height="2"/>
			</g>
		</g>
		<g class="st28">
			<polygon points="28.8,84.4 28.8,84.2 28.1,84.2 28.1,84.4 27.5,84.4 27.5,84.2 26.7,84.2 26.7,84.4 26.1,84.4 26.1,84.2 
				25.4,84.2 25.4,84.4 24.7,84.4 24.7,84.2 24,84.2 24,84.4 23.9,84.4 23.9,85.4 29,85.4 29,84.4 			"/>
		</g>
		<g class="st28">
			<polygon points="34.5,84.4 34.5,84.2 33.7,84.2 33.7,84.4 33.1,84.4 33.1,84.2 32.4,84.2 32.4,84.4 31.8,84.4 31.8,84.2 31,84.2 
				31,84.4 30.4,84.4 30.4,84.2 29.6,84.2 29.6,84.4 29.5,84.4 29.5,85.4 34.6,85.4 34.6,84.4 			"/>
		</g>
		<g>
			<g>
				<rect x="24.1" y="84.4" class="st27" width="0.6" height="0.1"/>
				<rect x="25.4" y="84.4" class="st27" width="0.6" height="0.1"/>
				<rect x="26.8" y="84.4" class="st27" width="0.6" height="0.1"/>
				<rect x="28.1" y="84.4" class="st27" width="0.6" height="0.1"/>
				<rect x="28.2" y="84.5" class="st27" width="0.4" height="0.9"/>
				<rect x="26.9" y="84.5" class="st27" width="0.4" height="0.9"/>
				<rect x="25.5" y="84.5" class="st27" width="0.4" height="0.9"/>
				<rect x="24.2" y="84.5" class="st27" width="0.4" height="0.9"/>
			</g>
			<rect x="23.8" y="85.1" class="st29" width="5.4" height="0.8"/>
		</g>
		<g>
			<g>
				<rect x="29.7" y="84.4" class="st27" width="0.6" height="0.1"/>
				<rect x="31" y="84.4" class="st27" width="0.6" height="0.1"/>
				<rect x="32.4" y="84.4" class="st27" width="0.6" height="0.1"/>
				<rect x="33.8" y="84.4" class="st27" width="0.6" height="0.1"/>
				<rect x="33.9" y="84.5" class="st27" width="0.4" height="0.9"/>
				<rect x="32.5" y="84.5" class="st27" width="0.4" height="0.9"/>
				<rect x="31.1" y="84.5" class="st27" width="0.4" height="0.9"/>
				<rect x="29.8" y="84.5" class="st27" width="0.4" height="0.9"/>
			</g>
			<rect x="29.5" y="85.1" class="st29" width="5.4" height="0.8"/>
		</g>
		<g class="st30">
			<path class="st31" d="M34.7,78.6L34,79.7l-10.8,0l-0.6-1h-1l-0.6-1.1h-2.2v1.2c0,0,0.7,0,0.9,0c0.1,0,0.1,0.2,0,0.2l-0.1,0
				c-0.2,0-0.2,0-0.2,0.1v0.5c0,0.1,0.1,0.1,0.2,0.1h0.1c0.1,0,0.1,0.2,0,0.2h-1.8v1.4h17.9v-2.8H34.7z"/>
		</g>
		<g>
			<path class="st9" d="M34.7,78.8L34,79.8l-10.8,0l-0.6-1l-1,0l-0.6-1.1h-2.2v1.2c0,0,0.7,0,0.9,0c0.1,0,0.1,0.2,0,0.2h-0.1
				c-0.2,0-0.2,0-0.2,0.1v0.5c0,0.1,0.1,0.1,0.2,0.1h0.1c0.1,0,0.1,0.2,0,0.2h-1.8V97h1.7l0-0.3c0-0.1,0.1-0.1,0.1-0.1h0.1
				c0.1,0,0.1,0.1,0.1,0.1l0,0.3h4.9l-0.2-8.5c0-0.1,0.1-0.3,0.2-0.3c0.1,0,0.2,0.1,0.2,0.3l0.4,7.8c0,0.1,0.1,0.3,0.2,0.3h0.6
				c0.1,0,0.2-0.1,0.2-0.3l0.4-7.8c0-0.1,0.1-0.3,0.2-0.3c0.1,0,0.2,0.1,0.2,0.3L26.9,97h5l-0.2-8.5c0-0.1,0.1-0.3,0.2-0.3
				c0.1,0,0.2,0.1,0.2,0.3l0.4,7.8c0,0.1,0.1,0.3,0.2,0.3h0.6c0.1,0,0.2-0.1,0.2-0.3l0.4-7.8c0-0.1,0.1-0.3,0.2-0.3
				c0.1,0,0.2,0.1,0.2,0.3L34,97h1.6l0-18.2H34.7z M20.8,85.3H21c0.1,0,0.1,0.1,0.1,0.1c0,0.1,0,0.1-0.1,0.1c0,0-0.1,0.1-0.1,0.1
				v5.7c0,0.1-0.1,0.1-0.1,0.1h-3v-7.2h0.6c0.1,0,0.1,0.1,0.1,0.1l0.5,3.5c0,0.1,0,0.2-0.1,0.2l-0.2,0.2c0,0.1-0.1,0.2-0.1,0.2v1.2
				c0,0.1,0.1,0.1,0.1,0.1h1.6c0.1,0,0.1-0.1,0.1-0.1v-1.1c0-0.1,0-0.2-0.1-0.2l-0.4-0.4C20,88,20,87.9,20,87.8l-0.3-3.4
				c0-0.1,0-0.1,0.1-0.1c0,0,1.2,0,1.2,0s0.1,0.1,0.1,0.1c0,0.1-0.1,0.1-0.1,0.1l-0.2,0c-0.1,0-0.1,0.1-0.1,0.1v0.5
				C20.7,85.2,20.7,85.3,20.8,85.3z M28.8,85c0,0.1-0.1,0.3-0.3,0.3h-4.3c-0.1,0-0.3-0.1-0.3-0.3v-2.6c0-0.1,0.1-0.3,0.3-0.3h4.3
				c0.1,0,0.3,0.1,0.3,0.3L28.8,85L28.8,85z M34.5,85c0,0.1-0.1,0.3-0.3,0.3h-4.3c-0.1,0-0.3-0.1-0.3-0.3v-2.6
				c0-0.1,0.1-0.3,0.3-0.3h4.3c0.1,0,0.3,0.1,0.3,0.3V85z"/>
		</g>
		<g class="st32">
			<rect x="17.8" y="80.1" class="st33" width="0.5" height="4.2"/>
		</g>
		<g class="st32">
			<rect x="18.8" y="77.7" class="st33" width="0.7" height="1.2"/>
		</g>
		<g class="st32">
			<rect x="17.8" y="91.5" class="st33" width="0.5" height="5.5"/>
		</g>
		<g class="st28">
			<rect x="35.2" y="78.8" class="st33" width="0.3" height="18.2"/>
		</g>
		<path class="st34" d="M18.7,84.4l0.5,3.5c0,0.1,0,0.2-0.1,0.2l-0.2,0.3c0,0.1-0.1,0.2-0.1,0.2v1.1"/>
		<rect x="17.8" y="84.3" class="st35" width="0.1" height="7.2"/>
		<g>
			<path class="st36" d="M26.7,88.5c0,0-0.4,7.5-0.4,7.8c0,0.2-0.1,0.2-0.1,0.2"/>
			<path class="st36" d="M25,88.4c0,0,0.4,7.6,0.4,7.8c0,0.2,0.1,0.2,0.1,0.2"/>
		</g>
		<g>
			<path class="st36" d="M33.9,88.5c0,0-0.4,7.5-0.4,7.8c0,0.2-0.1,0.2-0.1,0.2"/>
			<path class="st36" d="M32.1,88.4c0,0,0.4,7.6,0.4,7.8c0,0.2,0.1,0.2,0.1,0.2"/>
		</g>
		<path class="st37" d="M23.9,82.4V85c0,0.2,0.1,0.3,0.3,0.3h4.3c0.2,0,0.3-0.1,0.3-0.3v-2.7"/>
		<line class="st38" x1="24.2" y1="82.1" x2="28.6" y2="82.1"/>
		<path class="st37" d="M29.6,82.4V85c0,0.2,0.1,0.3,0.3,0.3h4.3c0.2,0,0.3-0.1,0.3-0.3v-2.7"/>
		<line class="st38" x1="29.9" y1="82.1" x2="34.3" y2="82.1"/>
		<rect x="18" y="84.4" class="st35" width="0.3" height="7.1"/>
		<line class="st36" x1="24.5" y1="88.5" x2="24.8" y2="96.8"/>
		<line class="st36" x1="27.2" y1="88.5" x2="27" y2="96.8"/>
		<line class="st36" x1="31.6" y1="88.5" x2="31.9" y2="96.8"/>
		<line class="st36" x1="34.3" y1="88.5" x2="34.1" y2="96.8"/>
		<rect x="19.6" y="89.9" class="st12" width="0.1" height="1.6"/>
		<rect x="19.6" y="89.9" class="st39" width="0.1" height="0.1"/>
		<rect x="19.6" y="91.4" class="st39" width="0.1" height="0.1"/>
		<path class="st40" d="M20.9,91.5c0.1,0,0.1-0.1,0.1-0.1v-5.7c0-0.1,0-0.1,0.1-0.1"/>
		<path class="st35" d="M21,85.3h-0.2c-0.1,0-0.1-0.1-0.1-0.1v-0.5c0-0.1,0.1-0.1,0.1-0.1H21"/>
		<polyline class="st37" points="20.9,77.8 21.5,78.9 22.5,78.9 23.2,79.9 34.1,79.9 34.7,78.8 		"/>
		<path class="st35" d="M19.4,79.2c-0.2,0-0.2,0-0.2,0.1v0.5c0,0.1,0.1,0.1,0.2,0.1V79.2z"/>
	</g>
</g>
</svg>
