<?xml version="1.0" encoding="utf-8"?>
<!-- Generator: Adobe Illustrator 22.1.0, SVG Export Plug-In . SVG Version: 6.00 Build 0)  -->
<svg version="1.1"
	 id="svg2" inkscape:version="0.91 r13725" sodipodi:docname="elephpant2.svg" xmlns:cc="http://creativecommons.org/ns#" xmlns:dc="http://purl.org/dc/elements/1.1/" xmlns:inkscape="http://www.inkscape.org/namespaces/inkscape" xmlns:rdf="http://www.w3.org/1999/02/22-rdf-syntax-ns#" xmlns:sodipodi="http://sodipodi.sourceforge.net/DTD/sodipodi-0.dtd" xmlns:svg="http://www.w3.org/2000/svg"
	 xmlns="http://www.w3.org/2000/svg" xmlns:xlink="http://www.w3.org/1999/xlink" x="0px" y="0px" viewBox="0 0 100 100"
	 style="enable-background:new 0 0 100 100;" xml:space="preserve">
<style type="text/css">
	.st0{clip-path:url(#SVGID_2_);}
	.st1{fill:url(#path28_1_);}
	.st2{fill:#363254;}
	.st3{clip-path:url(#SVGID_4_);}
	.st4{fill:url(#path46_1_);}
	.st5{fill:#8B9DD7;}
	.st6{clip-path:url(#SVGID_6_);}
	.st7{fill:url(#path76_1_);}
	.st8{fill:#A6BDE6;}
	.st9{clip-path:url(#SVGID_8_);}
	.st10{fill:url(#path106_1_);}
	.st11{fill:#7483CA;}
	.st12{fill:#839AD6;}
	.st13{clip-path:url(#SVGID_10_);}
	.st14{fill:url(#path136_1_);}
	.st15{fill:#080604;}
	.st16{clip-path:url(#SVGID_13_);}
	.st17{fill:url(#path154_1_);}
	.st18{clip-path:url(#SVGID_15_);}
	.st19{fill:url(#path172_1_);}
	.st20{clip-path:url(#SVGID_17_);}
	.st21{fill:url(#path188_1_);}
	.st22{clip-path:url(#SVGID_20_);}
	.st23{fill:url(#path204_1_);}
	.st24{clip-path:url(#SVGID_23_);}
	.st25{fill:url(#path240_1_);}
	.st26{fill:#FCFCFC;}
	.st27{fill:#FFFFFF;}
	.st28{fill:none;stroke:#FFFFFF;stroke-width:1.2952;}
	.st29{clip-path:url(#SVGID_26_);}
	.st30{fill:url(#path306_1_);}
	.st31{clip-path:url(#SVGID_28_);}
	.st32{fill:url(#path324_1_);}
</style>
<sodipodi:namedview  bordercolor="#666666" borderopacity="1" gridtolerance="10" guidetolerance="10" id="namedview194" inkscape:current-layer="svg2" inkscape:cx="215.60601" inkscape:cy="130.47839" inkscape:pageopacity="0" inkscape:pageshadow="2" inkscape:window-height="1017" inkscape:window-maximized="1" inkscape:window-width="2560" inkscape:window-x="-8" inkscape:window-y="-8" inkscape:zoom="2.0408752" objecttolerance="10" pagecolor="#ffffff" showgrid="false">
	</sodipodi:namedview>
<g id="g14" transform="matrix(0.13333333,0,0,-0.13333333,0,462.54667)">
	<g>
		<defs>
			<path id="SVGID_1_" d="M163.7,3244.1c0,0,30.9,33.9,52.3,48c6.8,4.5,57.5,30.9,90.1-60.2c17.8-49.9,18.1-87-22.4-102.9
				c-24.2-9.5-15.6-27.3-15.6-27.3"/>
		</defs>
		<clipPath id="SVGID_2_">
			<use xlink:href="#SVGID_1_"  style="overflow:visible;"/>
		</clipPath>
		<g id="g16" class="st0">
			
				<linearGradient id="path28_1_" gradientUnits="userSpaceOnUse" x1="-3431.4131" y1="-1275.0719" x2="-3431.1702" y2="-1275.0719" gradientTransform="matrix(115.6676 -85.4995 -86.2008 -114.7266 287322.9688 -436520.0938)">
				<stop  offset="0" style="stop-color:#8C9BD6"/>
				<stop  offset="1" style="stop-color:#505E9B"/>
			</linearGradient>
			<path id="path28" inkscape:connector-curvature="0" class="st1" d="M163.7,3244.1c0,0,30.9,33.9,52.3,48
				c6.8,4.5,57.5,30.9,90.1-60.2c17.8-49.9,18.1-87-22.4-102.9c-24.2-9.5-15.6-27.3-15.6-27.3"/>
		</g>
	</g>
</g>
<path id="path30" inkscape:connector-curvature="0" class="st2" d="M28.4,23.1c-2.9,1.9-6.9,6.3-7.1,6.5c-0.3,0.3-0.2,0.7,0.1,0.9
	c0.3,0.2,0.7,0.2,1-0.1c0,0,4.1-4.5,6.8-6.3c0.1-0.1,2.1-1.3,4.5-0.6c2.6,0.8,4.8,3.7,6.4,8.3c2.6,7.3,1.8,11.2-2.6,12.9
	c-1.3,0.5-2.1,1.2-2.5,2.2c-0.5,1.2,0,2.3,0,2.4c0.2,0.3,0.6,0.5,0.9,0.3c0.3-0.2,0.5-0.5,0.3-0.9c0,0-0.3-0.7,0-1.4
	c0.2-0.6,0.8-1,1.7-1.4c6.7-2.6,5.3-9.1,3.4-14.6c-1.8-5.1-4.3-8.1-7.3-9.1C31.1,21.4,28.7,22.9,28.4,23.1"/>
<g id="g32" transform="matrix(0.13333333,0,0,-0.13333333,0,462.54667)">
	<g>
		<defs>
			<path id="SVGID_3_" d="M579.2,3224.5h64.9c5.4,0,9.9-3.6,9.9-8l0,0c0-4.4-4.4-8-9.9-8h-50.9L579.2,3224.5z"/>
		</defs>
		<clipPath id="SVGID_4_">
			<use xlink:href="#SVGID_3_"  style="overflow:visible;"/>
		</clipPath>
		<g id="g34" class="st3">
			
				<linearGradient id="path46_1_" gradientUnits="userSpaceOnUse" x1="-3431.6833" y1="-1270.2311" x2="-3431.4404" y2="-1270.2311" gradientTransform="matrix(116.6292 -86.2104 -86.9175 -115.6804 290299 -439459.8438)">
				<stop  offset="0" style="stop-color:#808FD0"/>
				<stop  offset="1" style="stop-color:#505E9B"/>
			</linearGradient>
			<path id="path46" inkscape:connector-curvature="0" class="st4" d="M579.2,3224.5h64.9c5.4,0,9.9-3.6,9.9-8l0,0
				c0-4.4-4.4-8-9.9-8h-50.9L579.2,3224.5"/>
		</g>
	</g>
</g>
<path id="path48" inkscape:connector-curvature="0" class="st2" d="M85.9,33.3c0.4,0,0.6,0.2,0.6,0.4c0,0.2-0.3,0.4-0.6,0.4
	c0,0-5.9,0-6.5,0c-0.1-0.2-0.3-0.4-0.7-0.8C80.8,33.3,85.9,33.3,85.9,33.3L85.9,33.3z M75.7,32l3,3.5h7.1c1.1,0,2-0.8,2-1.7
	c0-1-0.9-1.7-2-1.7H75.7"/>
<path id="path50" inkscape:connector-curvature="0" class="st5" d="M88.6,30.1c1.2-0.6,2.6-0.4,3.1,0.3c0.5,0.7,0,1.8-1.2,2.3
	c-1.2,0.6-4.3,1.2-4.8,0.5C85.1,32.6,87.4,30.7,88.6,30.1"/>
<path id="path52" inkscape:connector-curvature="0" class="st2" d="M88.9,30.7L88.9,30.7c0.9-0.4,1.9-0.3,2.2,0.1
	c0.1,0.1,0.1,0.2,0.1,0.4c-0.1,0.3-0.4,0.7-1,1c-1.1,0.5-3.2,0.9-3.8,0.7C86.6,32.4,87.9,31.2,88.9,30.7L88.9,30.7z M88.3,29.5
	L88.3,29.5c-1,0.5-3,2-3.3,3.1l0.2,1c1,1.3,4.8,0.1,5.7-0.3c0.9-0.4,1.5-1.1,1.7-1.8c0.1-0.5,0.1-1.1-0.3-1.5
	C91.5,29.1,89.8,28.8,88.3,29.5"/>
<path id="path54" inkscape:connector-curvature="0" class="st5" d="M90.7,34.5c1.3,0.4,2,1.4,1.6,2.2c-0.4,0.8-1.8,1.1-3,0.7
	c-1.3-0.4-3.8-2-3.4-2.8C86.2,33.7,89.4,34,90.7,34.5"/>
<path id="path56" inkscape:connector-curvature="0" class="st2" d="M90.9,33.8L90.9,33.8L90.9,33.8z M90.4,35.1L90.4,35.1
	c0.7,0.2,1.1,0.6,1.2,0.9c0.1,0.2,0,0.3,0,0.4c-0.2,0.4-1.2,0.6-2.2,0.3c-1.1-0.4-2.6-1.4-2.9-1.9C87.1,34.6,89.2,34.7,90.4,35.1
	L90.4,35.1z M85.2,34.2l0,1c0.5,1.1,2.8,2.4,3.8,2.7c1.6,0.5,3.3,0.1,3.9-1c0.1-0.2,0.2-0.5,0.2-0.7c0-0.2-0.1-0.5-0.2-0.7
	c-0.3-0.7-1-1.3-2-1.6C89.9,33.5,85.9,32.8,85.2,34.2"/>
<path id="path58" inkscape:connector-curvature="0" class="st5" d="M90.9,32c1.9,0,3.4,0.7,3.4,1.5c0,0.8-1.5,1.5-3.4,1.6
	c-1.9,0-6.2-0.6-6.2-1.5C84.7,32.8,89,32.1,90.9,32"/>
<path id="path60" inkscape:connector-curvature="0" class="st2" d="M93.6,33.6c0,0,0,0.1-0.1,0.2c-0.3,0.3-1.3,0.7-2.6,0.7
	c-1.6,0-4.2-0.4-5.2-0.8c1-0.4,3.5-0.9,5.2-0.9h0C92.7,32.7,93.6,33.3,93.6,33.6L93.6,33.6z M90.9,31.4L90.9,31.4
	c-1.4,0-5.5,0.5-6.5,1.5L84,33.6c0,2,6.8,2.2,6.9,2.2c1.5,0,2.9-0.4,3.6-1.1c0.3-0.3,0.5-0.7,0.5-1.1C95,32.3,93.2,31.4,90.9,31.4"
	/>
<g id="g62" transform="matrix(0.13333333,0,0,-0.13333333,0,462.54667)">
	<g>
		<defs>
			<path id="SVGID_5_" d="M353.3,3065.6V2937c0-31.7-31.7-43.1-70.8-43.1l0,0c-39.1,0-70.8,11.4-70.8,43.1v130.1"/>
		</defs>
		<clipPath id="SVGID_6_">
			<use xlink:href="#SVGID_5_"  style="overflow:visible;"/>
		</clipPath>
		<g id="g64" class="st6">
			
				<linearGradient id="path76_1_" gradientUnits="userSpaceOnUse" x1="-3431.2483" y1="-1278.4534" x2="-3431.0054" y2="-1278.4534" gradientTransform="matrix(115.1603 -85.1246 -85.8228 -114.2234 285659.875 -435087.25)">
				<stop  offset="0" style="stop-color:#8C9BD6"/>
				<stop  offset="1" style="stop-color:#505E9B"/>
			</linearGradient>
			<path id="path76" inkscape:connector-curvature="0" class="st7" d="M353.3,3065.6V2937c0-31.7-31.7-43.1-70.8-43.1l0,0
				c-39.1,0-70.8,11.4-70.8,43.1v130.1"/>
		</g>
	</g>
</g>
<path id="path78" inkscape:connector-curvature="0" class="st2" d="M27.5,53.6v17.3c0,4.1,3.6,6.4,10.1,6.4c6.5,0,10.1-2.3,10.1-6.4
	V53.8c0-0.4-0.3-0.7-0.7-0.7c-0.4,0-0.7,0.3-0.7,0.7v17.1c0,4.2-4.8,5.1-8.7,5.1c-4,0-8.7-0.9-8.7-5.1V53.6c0-0.4-0.3-0.7-0.7-0.7
	C27.8,52.9,27.5,53.2,27.5,53.6"/>
<path id="path80" inkscape:connector-curvature="0" class="st5" d="M32.4,70.9c0,1.7-1,3.1-2.2,3.1c-1.2,0-2.2-1.4-2.2-3.1
	c0-1.7,1-5.6,2.2-5.6C31.4,65.3,32.4,69.2,32.4,70.9"/>
<path id="path82" inkscape:connector-curvature="0" class="st2" d="M28.1,70.9c0-1.9,1.1-5.4,2-5.4c0.9,0,2,3.5,2,5.4
	c0,1.6-0.9,2.9-2,2.9C29,73.8,28.1,72.5,28.1,70.9z M27.7,70.9c0,1.8,1.1,3.3,2.5,3.3c1.4,0,2.5-1.5,2.5-3.3c0-1.7-1-5.8-2.5-5.8
	C28.6,65.1,27.7,69.2,27.7,70.9"/>
<path id="path84" inkscape:connector-curvature="0" class="st8" d="M28.5,71.2c0-1.6,1.2-4.6,2.1-4.6c0.1,0,0.2,0,0.2,0.1
	c-0.2-0.5-0.5-0.9-0.7-0.9C29.2,65.9,28.5,69.6,28.5,71.2"/>
<path id="path86" inkscape:connector-curvature="0" class="st5" d="M33.4,72.6c0,1.3-0.8,2.4-1.8,2.4c-1,0-1.8-1.1-1.8-2.4
	c0-1.3,0.8-4.3,1.8-4.3C32.6,68.3,33.4,71.2,33.4,72.6"/>
<path id="path88" inkscape:connector-curvature="0" class="st2" d="M30.1,72.6c0-1.4,0.8-4.1,1.5-4.1c0.7,0,1.5,2.7,1.5,4.1
	c0,1.2-0.7,2.2-1.5,2.2C30.8,74.7,30.1,73.8,30.1,72.6z M29.6,72.6c0,1.4,0.9,2.6,2,2.6c1.1,0,2-1.2,2-2.6c0-1.1-0.7-4.5-2-4.5
	C30.3,68,29.6,71.4,29.6,72.6"/>
<path id="path90" inkscape:connector-curvature="0" class="st8" d="M30.6,71.8c-0.1-0.9,0.7-2.5,1.4-2.6c0.1,0,0.1,0,0.2,0
	c-0.2-0.3-0.4-0.5-0.6-0.4C30.9,69.1,30.5,70.8,30.6,71.8"/>
<g id="g92" transform="matrix(0.13333333,0,0,-0.13333333,0,462.54667)">
	<g>
		<defs>
			<path id="SVGID_7_" d="M569.9,3064v-128.6c0-31.7-31.7-43.1-70.8-43.1l0,0c-39.1,0-70.8,11.4-70.8,43.1v130.1"/>
		</defs>
		<clipPath id="SVGID_8_">
			<use xlink:href="#SVGID_7_"  style="overflow:visible;"/>
		</clipPath>
		<g id="g94" class="st9">
			
				<linearGradient id="path106_1_" gradientUnits="userSpaceOnUse" x1="-3431.3105" y1="-1275.6702" x2="-3431.0676" y2="-1275.6702" gradientTransform="matrix(115.1591 -85.1238 -85.822 -114.2223 285981.7188 -434670.1562)">
				<stop  offset="0" style="stop-color:#8C9BD6"/>
				<stop  offset="1" style="stop-color:#505E9B"/>
			</linearGradient>
			<path id="path106" inkscape:connector-curvature="0" class="st10" d="M569.9,3064v-128.6c0-31.7-31.7-43.1-70.8-43.1l0,0
				c-39.1,0-70.8,11.4-70.8,43.1v130.1"/>
		</g>
	</g>
</g>
<path id="path108" inkscape:connector-curvature="0" class="st2" d="M56.4,53.8v17.3c0,4.1,3.6,6.4,10.1,6.4c2.9,0,5.3-0.5,7-1.4
	c2-1.1,3.1-2.8,3.1-5V54c0-0.4-0.3-0.7-0.7-0.7s-0.7,0.3-0.7,0.7v17.1c0,1.7-0.8,3-2.4,3.9c-1.5,0.8-3.7,1.2-6.3,1.2
	c-4,0-8.7-0.9-8.7-5.1V53.8c0-0.4-0.3-0.7-0.7-0.7C56.7,53.1,56.4,53.4,56.4,53.8"/>
<path id="path110" inkscape:connector-curvature="0" class="st11" d="M61.2,71.1c0,1.7-1,3.1-2.2,3.1c-1.2,0-2.2-1.4-2.2-3.1
	c0-1.7,1-5.6,2.2-5.6C60.2,65.6,61.2,69.4,61.2,71.1"/>
<path id="path112" inkscape:connector-curvature="0" class="st2" d="M57,71.1c0-0.9,0.3-2.3,0.6-3.4c0.4-1.2,0.9-2,1.4-2
	c0.9,0,2,3.5,2,5.4c0,1.6-0.9,2.9-2,2.9C57.9,74,57,72.7,57,71.1L57,71.1z M57.2,67.6c-0.4,1.1-0.7,2.6-0.7,3.5
	c0,1.8,1.1,3.3,2.5,3.3c1.4,0,2.5-1.5,2.5-3.3c0-1.7-1-5.8-2.5-5.8C58.2,65.3,57.6,66.6,57.2,67.6"/>
<path id="path114" inkscape:connector-curvature="0" class="st12" d="M57.4,71.4c0-1.6,1.2-4.6,2.1-4.6c0.1,0,0.2,0,0.2,0.1
	c-0.2-0.5-0.5-0.9-0.7-0.9C58.1,66.1,57.4,69.8,57.4,71.4"/>
<path id="path116" inkscape:connector-curvature="0" class="st11" d="M62.3,72.8c0,1.3-0.8,2.4-1.8,2.4c-1,0-1.8-1.1-1.8-2.4
	c0-1.3,0.8-4.3,1.8-4.3C61.5,68.5,62.3,71.5,62.3,72.8"/>
<path id="path118" inkscape:connector-curvature="0" class="st2" d="M59,72.8c0-1.4,0.8-4.1,1.5-4.1c0.7,0,1.5,2.7,1.5,4.1
	c0,1.2-0.7,2.2-1.5,2.2C59.7,74.9,59,74,59,72.8z M58.5,72.8c0,1.4,0.9,2.6,2,2.6c1.1,0,2-1.2,2-2.6c0-1.1-0.7-4.5-2-4.5
	C59.2,68.2,58.5,71.7,58.5,72.8"/>
<path id="path120" inkscape:connector-curvature="0" class="st12" d="M59.5,72c-0.1-0.9,0.7-2.5,1.4-2.6c0.1,0,0.1,0,0.2,0
	c-0.2-0.3-0.4-0.5-0.6-0.4C59.8,69.3,59.4,71.1,59.5,72"/>
<g id="g122" transform="matrix(0.13333333,0,0,-0.13333333,0,462.54667)">
	<g>
		<defs>
			<path id="SVGID_9_" d="M293.7,3241.2c27.6-44.5,24.6-82.1-12.1-101.8c-22-11.8-9.9-27.4-9.9-27.4"/>
		</defs>
		<clipPath id="SVGID_10_">
			<use xlink:href="#SVGID_9_"  style="overflow:visible;"/>
		</clipPath>
		<g id="g124" class="st13">
			
				<linearGradient id="path136_1_" gradientUnits="userSpaceOnUse" x1="-3430.4685" y1="-1275.1125" x2="-3430.2256" y2="-1275.1125" gradientTransform="matrix(111.7851 -82.6298 -83.3075 -110.8757 277575.3125 -421693.5312)">
				<stop  offset="0" style="stop-color:#808FD0"/>
				<stop  offset="1" style="stop-color:#505E9B"/>
			</linearGradient>
			<path id="path136" inkscape:connector-curvature="0" class="st14" d="M293.7,3241.2c27.6-44.5,24.6-82.1-12.1-101.8
				c-22-11.8-9.9-27.4-9.9-27.4"/>
		</g>
	</g>
</g>
<path id="path138" inkscape:connector-curvature="0" class="st15" d="M38.8,29.8c-0.3,0.2-0.4,0.6-0.2,0.9c2,3.3,2.8,6.3,2.1,8.6
	c-0.5,1.7-1.6,3-3.5,4c-1.2,0.6-1.9,1.4-2.1,2.3C34.9,47,35.6,48,35.7,48c0.2,0.3,0.7,0.4,1,0.1c0.3-0.2,0.4-0.6,0.2-0.9
	c0,0-0.4-0.6-0.3-1.2c0.1-0.5,0.6-1,1.4-1.4c2.2-1.2,3.6-2.8,4.1-4.8c0.8-2.7,0-6.1-2.3-9.7C39.6,29.7,39.1,29.6,38.8,29.8"/>
<g>
	<defs>
		<path id="SVGID_11_" d="M60.6,26.2c0,0-6.1-0.1-28.4,0.7c-22.3,0.7-21.5,8.7-21.5,20.1v27.4c0,2.3,2,3.3,4.5,3.3
			c2.5,0,4.5-0.9,4.5-3.3c0,0,0.6-7.8,1.1-12.6c1.1-17.3,22.2,2.8,37.5,1.9c13.9-0.9,24.9-5.6,24.9-16.9
			C83.2,35.4,76,26.2,60.6,26.2L60.6,26.2z"/>
	</defs>
	<linearGradient id="SVGID_12_" gradientUnits="userSpaceOnUse" x1="10.6979" y1="51.876" x2="83.1931" y2="51.876">
		<stop  offset="0" style="stop-color:#8C9BD6"/>
		<stop  offset="1" style="stop-color:#505E9B"/>
	</linearGradient>
	<use xlink:href="#SVGID_11_"  style="overflow:visible;fill:url(#SVGID_12_);"/>
	<clipPath id="SVGID_13_">
		<use xlink:href="#SVGID_11_"  style="overflow:visible;"/>
	</clipPath>
	<g id="g142" class="st16">
		
			<linearGradient id="path154_1_" gradientUnits="userSpaceOnUse" x1="-457.5388" y1="632.7536" x2="-457.2959" y2="632.7536" gradientTransform="matrix(116.2523 85.9318 86.6366 -115.3065 -1590.8533 112327.6953)">
			<stop  offset="0" style="stop-color:#8C9BD6"/>
			<stop  offset="1" style="stop-color:#505E9B"/>
		</linearGradient>
		<path id="path154" inkscape:connector-curvature="0" class="st17" d="M60.6,26.2c0,0-6.1-0.1-28.4,0.7
			c-22.3,0.7-21.5,8.7-21.5,20.1v27.4c0,2.3,2,3.3,4.5,3.3c2.5,0,4.5-0.9,4.5-3.3c0,0,0.6-7.8,1.1-12.6c1.1-17.3,22.2,2.8,37.5,1.9
			c13.9-0.9,24.9-5.6,24.9-16.9C83.2,35.4,76,26.2,60.6,26.2"/>
	</g>
</g>
<path id="path156" inkscape:connector-curvature="0" class="st2" d="M11.4,74.3V46.9c0,0,0-1.2,0-1.2c0-10.5,0-17.5,20.8-18.2
	c22-0.7,28.3-0.7,28.4-0.7h0c7,0,12.7,2,16.5,5.8c3.5,3.5,5.3,8.3,5.3,14c0,12.2-13.2,15.6-24.2,16.3c-5.8,0.4-12.7-2.5-18.7-5
	c-6.8-2.8-12.6-5.3-16.3-3.1c-1.9,1.1-2.9,3.4-3.2,6.9c-0.5,4.7-1.1,12.5-1.1,12.6c0,2.3-2.4,2.6-3.8,2.6
	C13.8,76.9,11.4,76.6,11.4,74.3L11.4,74.3z M32.2,26.2C10,26.9,10,34.8,10,45.7l0,1.2v27.4c0,2.5,2,3.9,5.2,3.9
	c3.3,0,5.2-1.5,5.2-3.9c0,0,0.6-7.8,1.1-12.5c0.2-3.1,1-5,2.5-5.8c3-1.8,8.8,0.7,15,3.2c6.2,2.6,13.2,5.5,19.4,5.1
	c16.5-1,25.5-7.3,25.5-17.6c0-6.1-2-11.2-5.7-15c-4.1-4.1-10.1-6.2-17.5-6.2h0C60.6,25.5,54.3,25.4,32.2,26.2"/>
<g id="g158" transform="matrix(0.13333333,0,0,-0.13333333,0,462.54667)">
	<g>
		<defs>
			<path id="SVGID_14_" d="M84.8,3111.7c0.2-19.3-2.6-187.9,8.2-198.1c-3.4,7.5,4,170.8,3.9,181.1l-0.1,6c0,2.9,0,5.7,0,8.5
				c-4.1,1.5-8.2,3.4-12,5.5L84.8,3111.7z"/>
		</defs>
		<clipPath id="SVGID_15_">
			<use xlink:href="#SVGID_14_"  style="overflow:visible;"/>
		</clipPath>
		<g id="g160" class="st18">
			
				<linearGradient id="path172_1_" gradientUnits="userSpaceOnUse" x1="-3425.9407" y1="-1290.2776" x2="-3425.6978" y2="-1290.2776" gradientTransform="matrix(76.9715 -111.2693 -112.182 -76.3453 118955.2891 -476562.375)">
				<stop  offset="0" style="stop-color:#FAFAFD"/>
				<stop  offset="1" style="stop-color:#8892D2"/>
			</linearGradient>
			<path id="path172" inkscape:connector-curvature="0" class="st19" d="M84.8,3111.7c0.2-19.3-2.6-187.9,8.2-198.1
				c-3.4,7.5,4,170.8,3.9,181.1l-0.1,6c0,2.9,0,5.7,0,8.5c-4.1,1.5-8.2,3.4-12,5.5L84.8,3111.7"/>
		</g>
	</g>
</g>
<g id="g174" transform="matrix(0.13333333,0,0,-0.13333333,0,462.54667)">
	<g>
		<defs>
			<path id="SVGID_16_" d="M454.7,3267.1c0,0-44.8,0.5-208.5-4.9C82.5,3256.9,85,3197,85,3116.6l0-3c3.8-2.1,7.7-4,11.7-5.5
				c0,76.1,3.3,132,161.2,137.2c163.7,5.4,208.6,4.9,208.6,4.9c62.6,0,105.7-21,132.6-53.7C574.4,3238.8,527.6,3267.1,454.7,3267.1
				L454.7,3267.1z"/>
		</defs>
		<clipPath id="SVGID_17_">
			<use xlink:href="#SVGID_16_"  style="overflow:visible;"/>
		</clipPath>
		<g id="g176" class="st20">
			
				<linearGradient id="path188_1_" gradientUnits="userSpaceOnUse" x1="-3430.2441" y1="-1282.9697" x2="-3430.0012" y2="-1282.9697" gradientTransform="matrix(89.6893 -129.6543 -130.7177 -88.9597 140181.6875 -555564.125)">
				<stop  offset="0" style="stop-color:#FAFAFD"/>
				<stop  offset="1" style="stop-color:#8892D2"/>
			</linearGradient>
			<path id="path188" inkscape:connector-curvature="0" class="st21" d="M454.7,3267.1c0,0-44.8,0.5-208.5-4.9
				C82.5,3256.9,85,3197,85,3116.6l0-3c3.8-2.1,7.7-4,11.7-5.5c0,76.1,3.3,132,161.2,137.2c163.7,5.4,208.6,4.9,208.6,4.9
				c62.6,0,105.7-21,132.6-53.7C574.4,3238.8,527.6,3267.1,454.7,3267.1"/>
		</g>
	</g>
</g>
<g>
	<defs>
		<path id="SVGID_18_" d="M53,61.7v12.2c0,4.2-4.2,5.7-9.4,5.7l0,0c-5.2,0-9.4-1.5-9.4-5.7V55.3"/>
	</defs>
	<linearGradient id="SVGID_19_" gradientUnits="userSpaceOnUse" x1="34.14" y1="67.4548" x2="53.0291" y2="67.4548">
		<stop  offset="0" style="stop-color:#8C9BD6"/>
		<stop  offset="1" style="stop-color:#505E9B"/>
	</linearGradient>
	<use xlink:href="#SVGID_18_"  style="overflow:visible;fill:url(#SVGID_19_);"/>
	<clipPath id="SVGID_20_">
		<use xlink:href="#SVGID_18_"  style="overflow:visible;"/>
	</clipPath>
	<g id="g192" class="st22">
		
			<linearGradient id="path204_1_" gradientUnits="userSpaceOnUse" x1="-457.4981" y1="633.0245" x2="-457.2552" y2="633.0245" gradientTransform="matrix(115.1004 85.0803 85.7782 -114.164 -1610.3528 111252.5312)">
			<stop  offset="0" style="stop-color:#8C9BD6"/>
			<stop  offset="1" style="stop-color:#505E9B"/>
		</linearGradient>
		<path id="path204" inkscape:connector-curvature="0" class="st23" d="M53,61.7v12.2c0,4.2-4.2,5.7-9.4,5.7l0,0
			c-5.2,0-9.4-1.5-9.4-5.7V55.3"/>
	</g>
</g>
<path id="path206" inkscape:connector-curvature="0" class="st2" d="M33.4,55.3v18.6c0,4.1,3.6,6.4,10.1,6.4
	c6.5,0,10.1-2.3,10.1-6.4V61.7c0-0.4-0.3-0.7-0.7-0.7s-0.7,0.3-0.7,0.7v12.2c0,4.2-4.8,5.1-8.7,5.1c-4,0-8.7-0.9-8.7-5.1V55.3
	c0-0.4-0.3-0.7-0.7-0.7C33.8,54.6,33.4,54.9,33.4,55.3"/>
<path id="path208" inkscape:connector-curvature="0" class="st5" d="M40.1,75.1c0,1.6-1.3,2.9-3,2.9c-1.6,0-3-1.3-3-2.9
	c0-1.6,1.3-5.2,3-5.2C38.7,69.9,40.1,73.5,40.1,75.1"/>
<path id="path210" inkscape:connector-curvature="0" class="st2" d="M34.4,75.1c0-1.6,1.3-5,2.7-5c1.4,0,2.7,3.4,2.7,5
	c0,1.5-1.2,2.7-2.7,2.7C35.6,77.7,34.4,76.5,34.4,75.1z M33.9,75.1c0,1.7,1.4,3.1,3.2,3.1c1.8,0,3.2-1.4,3.2-3.1
	c0-1.6-1.4-5.4-3.2-5.4C35.2,69.6,33.9,73.4,33.9,75.1"/>
<path id="path212" inkscape:connector-curvature="0" class="st8" d="M34.6,75.2c0-1.4,1.7-4,2.9-4c0.1,0,0.2,0,0.3,0.1
	c-0.3-0.4-0.7-0.7-1-0.7C35.6,70.6,34.6,73.8,34.6,75.2"/>
<path id="path214" inkscape:connector-curvature="0" class="st5" d="M42.5,75.3c0,2.1-1.4,3.8-3.1,3.8c-1.7,0-3.1-1.7-3.1-3.8
	c0-2.1,1.4-6.8,3.1-6.8C41.1,68.4,42.5,73.2,42.5,75.3"/>
<path id="path216" inkscape:connector-curvature="0" class="st2" d="M36.6,75.3c0-2.1,1.4-6.6,2.9-6.6c1.5,0,2.9,4.6,2.9,6.6
	c0,2-1.3,3.6-2.9,3.6C37.8,78.9,36.6,77.3,36.6,75.3z M36.1,75.3c0,2.2,1.5,4,3.3,4c1.8,0,3.3-1.8,3.3-4c0-2.1-1.4-7.1-3.3-7.1
	C37.5,68.2,36.1,73.2,36.1,75.3"/>
<path id="path218" inkscape:connector-curvature="0" class="st8" d="M37.2,75.7c0-2,1.7-5.7,2.9-5.7c0.1,0,0.2,0.1,0.3,0.1
	c-0.3-0.6-0.7-1.1-1-1.1C38.2,69.1,37.2,73.6,37.2,75.7"/>
<path id="path220" inkscape:connector-curvature="0" class="st5" d="M44.1,76.4c0,1.5-1,2.7-2.2,2.7c-1.2,0-2.2-1.2-2.2-2.7
	c0-1.5,1-4.8,2.2-4.8C43.1,71.6,44.1,74.9,44.1,76.4"/>
<path id="path222" inkscape:connector-curvature="0" class="st2" d="M39.9,76.4c0-1.6,1.1-4.6,2-4.6c0.9,0,2,3,2,4.6
	c0,1.4-0.9,2.5-2,2.5C40.8,78.9,39.9,77.8,39.9,76.4z M39.5,76.4c0,1.6,1.1,2.9,2.5,2.9c1.4,0,2.5-1.3,2.5-2.9c0-1.5-1-5.1-2.5-5.1
	C40.4,71.3,39.5,75,39.5,76.4"/>
<path id="path224" inkscape:connector-curvature="0" class="st8" d="M40.6,75.5c-0.1-1.1,0.9-2.8,1.7-2.9c0.1,0,0.2,0,0.2,0
	c-0.2-0.3-0.5-0.5-0.7-0.5C41.1,72.5,40.5,74.5,40.6,75.5"/>
<g>
	<defs>
		<path id="SVGID_21_" d="M81.9,53.3v20.1c0,4.2-4.2,5.7-9.4,5.7l0,0c-5.2,0-9.4-1.5-9.4-5.7V61.8"/>
	</defs>
	<linearGradient id="SVGID_22_" gradientUnits="userSpaceOnUse" x1="63.0428" y1="66.2075" x2="81.9315" y2="66.2075">
		<stop  offset="0" style="stop-color:#8C9BD6"/>
		<stop  offset="1" style="stop-color:#505E9B"/>
	</linearGradient>
	<use xlink:href="#SVGID_21_"  style="overflow:visible;fill:url(#SVGID_22_);"/>
	<clipPath id="SVGID_23_">
		<use xlink:href="#SVGID_21_"  style="overflow:visible;"/>
	</clipPath>
	<g id="g228" class="st24">
		
			<linearGradient id="path240_1_" gradientUnits="userSpaceOnUse" x1="-457.5152" y1="632.5731" x2="-457.2723" y2="632.5731" gradientTransform="matrix(115.5005 85.3761 86.0764 -114.5608 -1562.6027 111572.3203)">
			<stop  offset="0" style="stop-color:#8C9BD6"/>
			<stop  offset="1" style="stop-color:#505E9B"/>
		</linearGradient>
		<path id="path240" inkscape:connector-curvature="0" class="st25" d="M81.9,53.3v20.1c0,4.2-4.2,5.7-9.4,5.7l0,0
			c-5.2,0-9.4-1.5-9.4-5.7V61.8"/>
	</g>
</g>
<path id="path242" inkscape:connector-curvature="0" class="st2" d="M81.2,53.3v20.1c0,4.2-4.8,5.1-8.7,5.1c-4,0-8.7-0.9-8.7-5.1
	V61.8c0-0.4-0.3-0.7-0.7-0.7c-0.4,0-0.7,0.3-0.7,0.7v11.6c0,4.1,3.6,6.4,10.1,6.4c6.5,0,10.1-2.3,10.1-6.4V53.3
	c0-0.4-0.3-0.7-0.7-0.7C81.5,52.6,81.2,52.9,81.2,53.3"/>
<path id="path244" inkscape:connector-curvature="0" class="st5" d="M69,74.6c0,1.6-1.3,2.9-3,2.9s-3-1.3-3-2.9c0-1.6,1.3-5.2,3-5.2
	S69,73,69,74.6"/>
<path id="path246" inkscape:connector-curvature="0" class="st2" d="M63.3,74.6c0-1.6,1.3-5,2.7-5c1.4,0,2.7,3.4,2.7,5
	c0,1.5-1.2,2.7-2.7,2.7C64.5,77.2,63.3,76,63.3,74.6z M62.8,74.6c0,1.7,1.4,3.1,3.2,3.1c1.8,0,3.2-1.4,3.2-3.1
	c0-1.6-1.4-5.4-3.2-5.4C64.1,69.2,62.8,73,62.8,74.6"/>
<path id="path248" inkscape:connector-curvature="0" class="st8" d="M63.5,74.8c0-1.4,1.7-4,2.9-4c0.1,0,0.2,0,0.3,0.1
	c-0.3-0.4-0.7-0.7-1-0.7C64.5,70.1,63.5,73.3,63.5,74.8"/>
<path id="path250" inkscape:connector-curvature="0" class="st5" d="M71.4,74.8c0,2.1-1.4,3.8-3.1,3.8c-1.7,0-3.1-1.7-3.1-3.8
	c0-2.1,1.4-6.8,3.1-6.8C70,68,71.4,72.7,71.4,74.8"/>
<path id="path252" inkscape:connector-curvature="0" class="st2" d="M65.5,74.8c0-2.1,1.4-6.6,2.9-6.6c1.5,0,2.9,4.6,2.9,6.6
	c0,2-1.3,3.6-2.9,3.6C66.8,78.4,65.5,76.8,65.5,74.8z M65,74.8c0,2.2,1.5,4,3.3,4c1.8,0,3.3-1.8,3.3-4c0-2.1-1.4-7.1-3.3-7.1
	C66.4,67.7,65,72.7,65,74.8"/>
<path id="path254" inkscape:connector-curvature="0" class="st8" d="M66.1,75.2c0-2,1.7-5.7,2.9-5.7c0.1,0,0.2,0.1,0.3,0.1
	c-0.3-0.6-0.7-1.1-1-1.1C67.1,68.6,66.1,73.2,66.1,75.2"/>
<path id="path256" inkscape:connector-curvature="0" class="st5" d="M73,75.9c0,1.5-1,2.7-2.2,2.7c-1.2,0-2.2-1.2-2.2-2.7
	c0-1.5,1-4.8,2.2-4.8S73,74.4,73,75.9"/>
<path id="path258" inkscape:connector-curvature="0" class="st2" d="M68.8,75.9c0-1.6,1.1-4.6,2-4.6c0.9,0,2,3,2,4.6
	c0,1.4-0.9,2.5-2,2.5C69.7,78.4,68.8,77.3,68.8,75.9L68.8,75.9z M68.4,75.9c0,1.6,1.1,2.9,2.5,2.9c1.4,0,2.5-1.3,2.5-2.9
	c0-1.5-1-5.1-2.5-5.1C69.3,70.9,68.4,74.5,68.4,75.9"/>
<path id="path260" inkscape:connector-curvature="0" class="st8" d="M69.5,75c-0.1-1.1,0.9-2.8,1.7-2.9c0.1,0,0.2,0,0.2,0
	c-0.2-0.3-0.5-0.5-0.7-0.5C70,72,69.4,74,69.5,75"/>
<path id="path262" inkscape:connector-curvature="0" class="st2" d="M16.6,35.7c-0.2,0.3-0.2,0.8,0.2,1c0.4,0.2,0.8,0.1,1.1-0.2
	c1.4-1.9,4.6-2.4,6.1-1.9c0.3,0.1,0.7,0.1,0.8-0.1c0.2-0.2,0.1-0.4-0.2-0.5C22.5,33.4,18.5,33.2,16.6,35.7"/>
<path id="path264" inkscape:connector-curvature="0" class="st2" d="M22.7,44c-1.3,0.3-2.4-0.4-2.6-1.6c-0.1-1.2,0.8-2.3,2.1-2.6
	c1.3-0.3,2.4,0.4,2.6,1.6C25,42.6,24,43.8,22.7,44z M25.4,41.3c-0.1-1.4-1.5-2.2-3-1.9c-1.5,0.3-2.7,1.7-2.5,3
	c0.1,1.3,1.5,2.2,3,1.9C24.4,44,25.5,42.6,25.4,41.3"/>
<path id="path266" inkscape:connector-curvature="0" class="st26" d="M24.8,41.5c0.1,1-0.7,2-1.9,2.3c-1.1,0.2-2.1-0.4-2.2-1.4
	c-0.1-1,0.7-2,1.9-2.3C23.7,39.9,24.7,40.5,24.8,41.5"/>
<path id="path268" inkscape:connector-curvature="0" class="st2" d="M24.6,41.6c-0.3-0.8-1.1-1.2-1.8-1c-0.4,0.1-0.6,0.4-0.7,0.8
	l1,0.5l-0.9,0.6c0.3,0.7,1.1,1.2,1.8,0.9C24.6,43.1,24.9,42.3,24.6,41.6"/>
<path id="path270" inkscape:connector-curvature="0" class="st27" d="M23.9,41.2c0.2,0,0.4,0.2,0.4,0.5c0.1,0.3,0,0.5-0.2,0.6
	c-0.2,0-0.4-0.2-0.5-0.5C23.6,41.5,23.7,41.2,23.9,41.2"/>
<path id="path272" inkscape:connector-curvature="0" class="st2" d="M21.1,40.1c-1.2,0.9-1.6,2.3-0.8,3c-0.1,0,0.1,0.2,0,0.1
	c-1.3-0.7-1.5-2.8-0.3-4.1c1-1.1,4.1-1.9,4.1-1.4c-0.1,0.5-1,1.1-2.1,1.7C21.6,39.6,21.3,39.9,21.1,40.1"/>
<path id="path274" inkscape:connector-curvature="0" class="st2" d="M41,53.1c-0.1,0.3,0.2,0.6,0.5,0.6h1.9c0.3,0,0.6-0.3,0.7-0.6
	l0.5-2.5c0.1-0.3,0.4-0.6,0.7-0.6h2c1.2,0,2.1-0.1,2.8-0.4c0.7-0.2,1.4-0.6,2-1.2c0.5-0.5,0.9-1,1.2-1.5c0.3-0.6,0.5-1.2,0.7-1.9
	c0.3-1.6,0-2.9-0.7-3.9c-0.9-1.2-3.3-1.3-3.3-1.3c-0.3,0-0.9-0.1-1.2-0.1h-4.7c-0.3,0-0.6,0.3-0.7,0.6L41,53.1z M48.3,42
	c1.2,0,1.9,0.2,2.3,0.6c0.4,0.4,0.5,1.2,0.3,2.2c-0.2,1.1-0.6,1.8-1.2,2.3c-0.6,0.5-2.2,0.6-2.2,0.6c-0.3,0-0.9,0.1-1.2,0.1h-0.7
	c-0.3,0-0.5-0.3-0.5-0.6l0.9-4.7c0.1-0.3,0.4-0.6,0.7-0.6H48.3"/>
<path id="path276" inkscape:connector-curvature="0" class="st28" d="M41,53.1c-0.1,0.3,0.2,0.6,0.5,0.6h1.9c0.3,0,0.6-0.3,0.7-0.6
	l0.5-2.5c0.1-0.3,0.4-0.6,0.7-0.6h2c1.2,0,2.1-0.1,2.8-0.4c0.7-0.2,1.4-0.6,2-1.2c0.5-0.5,0.9-1,1.2-1.5c0.3-0.6,0.5-1.2,0.7-1.9
	c0.3-1.6,0-2.9-0.7-3.9c-0.9-1.2-3.3-1.3-3.3-1.3c-0.3,0-0.9-0.1-1.2-0.1h-4.7c-0.3,0-0.6,0.3-0.7,0.6L41,53.1z M48.3,42
	c1.2,0,1.9,0.2,2.3,0.6c0.4,0.4,0.5,1.2,0.3,2.2c-0.2,1.1-0.6,1.8-1.2,2.3c-0.6,0.5-2.2,0.6-2.2,0.6c-0.3,0-0.9,0.1-1.2,0.1h-0.7
	c-0.3,0-0.5-0.3-0.5-0.6l0.9-4.7c0.1-0.3,0.4-0.6,0.7-0.6H48.3z"/>
<path id="path278" inkscape:connector-curvature="0" class="st2" d="M57,36.7c0.1-0.3,0.4-0.6,0.7-0.6h1.8c0.3,0,0.5,0.3,0.5,0.6
	l-0.5,2.5c-0.1,0.3,0.2,0.6,0.5,0.6h1.5c0.3,0,0.9,0,1.2,0.1c0,0,2.2,0,2.9,0.8c0.6,0.6,0.8,1.5,0.6,2.9l-1.2,5.9
	C65,49.8,64.7,50,64.4,50h-1.9c-0.3,0-0.5-0.3-0.5-0.6l1-5c0.1-0.3,0.1-0.8,0.2-1.2c0,0,0-0.6-0.2-0.8c-0.2-0.3-0.7-0.4-1.5-0.4
	h-1.8c-0.3,0-0.6,0.3-0.7,0.6l-1.3,6.8c-0.1,0.3-0.4,0.6-0.7,0.6H55c-0.3,0-0.5-0.3-0.5-0.6L57,36.7"/>
<path id="path280" inkscape:connector-curvature="0" class="st28" d="M57,36.7c0.1-0.3,0.4-0.6,0.7-0.6h1.8c0.3,0,0.5,0.3,0.5,0.6
	l-0.5,2.5c-0.1,0.3,0.2,0.6,0.5,0.6h1.5c0.3,0,0.9,0,1.2,0.1c0,0,2.2,0,2.9,0.8c0.6,0.6,0.8,1.5,0.6,2.9l-1.2,5.9
	C65,49.8,64.7,50,64.4,50h-1.9c-0.3,0-0.5-0.3-0.5-0.6l1-5c0.1-0.3,0.1-0.8,0.2-1.2c0,0,0-0.6-0.2-0.8c-0.2-0.3-0.7-0.4-1.5-0.4
	h-1.8c-0.3,0-0.6,0.3-0.7,0.6l-1.3,6.8c-0.1,0.3-0.4,0.6-0.7,0.6H55c-0.3,0-0.5-0.3-0.5-0.6L57,36.7z"/>
<path id="path282" inkscape:connector-curvature="0" class="st2" d="M66.4,53.1c-0.1,0.3,0.2,0.6,0.5,0.6h1.9c0.3,0,0.6-0.3,0.7-0.6
	l0.5-2.5c0.1-0.3,0.4-0.6,0.7-0.6h2c1.2,0,2.1-0.1,2.8-0.4c0.7-0.2,1.4-0.6,2-1.2c0.5-0.5,0.9-1,1.2-1.5c0.3-0.6,0.5-1.2,0.7-1.9
	c0.3-1.6,0-2.9-0.7-3.9c-0.9-1.2-3.3-1.3-3.3-1.3c-0.3,0-0.9-0.1-1.2-0.1h-4.7c-0.3,0-0.6,0.3-0.7,0.6L66.4,53.1z M73.7,42
	c1.2,0,1.9,0.2,2.3,0.6c0.4,0.4,0.5,1.2,0.3,2.2c-0.2,1.1-0.6,1.8-1.2,2.3c-0.6,0.5-2.2,0.6-2.2,0.6c-0.3,0-0.9,0.1-1.2,0.1h-0.7
	c-0.3,0-0.5-0.3-0.5-0.6l0.9-4.7c0.1-0.3,0.4-0.6,0.7-0.6L73.7,42"/>
<path id="path284" inkscape:connector-curvature="0" class="st28" d="M66.4,53.1c-0.1,0.3,0.2,0.6,0.5,0.6h1.9
	c0.3,0,0.6-0.3,0.7-0.6l0.5-2.5c0.1-0.3,0.4-0.6,0.7-0.6h2c1.2,0,2.1-0.1,2.8-0.4c0.7-0.2,1.4-0.6,2-1.2c0.5-0.5,0.9-1,1.2-1.5
	c0.3-0.6,0.5-1.2,0.7-1.9c0.3-1.6,0-2.9-0.7-3.9c-0.9-1.2-3.3-1.3-3.3-1.3c-0.3,0-0.9-0.1-1.2-0.1h-4.7c-0.3,0-0.6,0.3-0.7,0.6
	L66.4,53.1z M73.7,42c1.2,0,1.9,0.2,2.3,0.6c0.4,0.4,0.5,1.2,0.3,2.2c-0.2,1.1-0.6,1.8-1.2,2.3c-0.6,0.5-2.2,0.6-2.2,0.6
	c-0.3,0-0.9,0.1-1.2,0.1h-0.7c-0.3,0-0.5-0.3-0.5-0.6l0.9-4.7c0.1-0.3,0.4-0.6,0.7-0.6L73.7,42z"/>
<path id="path286" inkscape:connector-curvature="0" class="st2" d="M41,53.1c-0.1,0.3,0.2,0.6,0.5,0.6h1.9c0.3,0,0.6-0.3,0.7-0.6
	l0.5-2.5c0.1-0.3,0.4-0.6,0.7-0.6h2c1.2,0,2.1-0.1,2.8-0.4c0.7-0.2,1.4-0.6,2-1.2c0.5-0.5,0.9-1,1.2-1.5c0.3-0.6,0.5-1.2,0.7-1.9
	c0.3-1.6,0-2.9-0.7-3.9c-0.9-1.2-3.3-1.3-3.3-1.3c-0.3,0-0.9-0.1-1.2-0.1h-4.7c-0.3,0-0.6,0.3-0.7,0.6L41,53.1z M48.3,42
	c1.2,0,1.9,0.2,2.3,0.6c0.4,0.4,0.5,1.2,0.3,2.2c-0.2,1.1-0.6,1.8-1.2,2.3c-0.6,0.5-2.2,0.6-2.2,0.6c-0.3,0-0.9,0.1-1.2,0.1h-0.7
	c-0.3,0-0.5-0.3-0.5-0.6l0.9-4.7c0.1-0.3,0.4-0.6,0.7-0.6H48.3"/>
<path id="path288" inkscape:connector-curvature="0" class="st2" d="M57,36.7c0.1-0.3,0.4-0.6,0.7-0.6h1.8c0.3,0,0.5,0.3,0.5,0.6
	l-0.5,2.5c-0.1,0.3,0.2,0.6,0.5,0.6h1.5c0.3,0,0.9,0,1.2,0.1c0,0,2.2,0,2.9,0.8c0.6,0.6,0.8,1.5,0.6,2.9l-1.2,5.9
	C65,49.8,64.7,50,64.4,50h-1.9c-0.3,0-0.5-0.3-0.5-0.6l1-5c0.1-0.3,0.1-0.8,0.2-1.2c0,0,0-0.6-0.2-0.8c-0.2-0.3-0.7-0.4-1.5-0.4
	h-1.8c-0.3,0-0.6,0.3-0.7,0.6l-1.3,6.8c-0.1,0.3-0.4,0.6-0.7,0.6H55c-0.3,0-0.5-0.3-0.5-0.6L57,36.7"/>
<path id="path290" inkscape:connector-curvature="0" class="st2" d="M66.4,53.1c-0.1,0.3,0.2,0.6,0.5,0.6h1.9c0.3,0,0.6-0.3,0.7-0.6
	l0.5-2.5c0.1-0.3,0.4-0.6,0.7-0.6h2c1.2,0,2.1-0.1,2.8-0.4c0.7-0.2,1.4-0.6,2-1.2c0.5-0.5,0.9-1,1.2-1.5c0.3-0.6,0.5-1.2,0.7-1.9
	c0.3-1.6,0-2.9-0.7-3.9c-0.9-1.2-3.3-1.3-3.3-1.3c-0.3,0-0.9-0.1-1.2-0.1h-4.7c-0.3,0-0.6,0.3-0.7,0.6L66.4,53.1z M73.7,42
	c1.2,0,1.9,0.2,2.3,0.6c0.4,0.4,0.5,1.2,0.3,2.2c-0.2,1.1-0.6,1.8-1.2,2.3c-0.6,0.5-2.2,0.6-2.2,0.6c-0.3,0-0.9,0.1-1.2,0.1h-0.7
	c-0.3,0-0.5-0.3-0.5-0.6l0.9-4.7c0.1-0.3,0.4-0.6,0.7-0.6L73.7,42"/>
<g>
	<defs>
		<path id="SVGID_24_" d="M28.4,28.3c0,0,5.5-3.8,9-5.1c1.1-0.4,9.2-2.5,10.5,11.2c0.7,7.5-0.6,12.7-6.8,13.7
			c-3.7,0.6-3.2,3.3-3.2,3.3"/>
	</defs>
	<linearGradient id="SVGID_25_" gradientUnits="userSpaceOnUse" x1="28.4473" y1="37.1325" x2="48.1052" y2="37.1325">
		<stop  offset="0" style="stop-color:#8C9BD6"/>
		<stop  offset="1" style="stop-color:#505E9B"/>
	</linearGradient>
	<use xlink:href="#SVGID_24_"  style="overflow:visible;fill:url(#SVGID_25_);"/>
	<clipPath id="SVGID_26_">
		<use xlink:href="#SVGID_24_"  style="overflow:visible;"/>
	</clipPath>
	<g id="g294" class="st29">
		
			<linearGradient id="path306_1_" gradientUnits="userSpaceOnUse" x1="-457.5108" y1="632.5129" x2="-457.2679" y2="632.5129" gradientTransform="matrix(115.3232 85.245 85.9442 -114.385 -1553.7931 111391.6797)">
			<stop  offset="0" style="stop-color:#8C9BD6"/>
			<stop  offset="1" style="stop-color:#505E9B"/>
		</linearGradient>
		<path id="path306" inkscape:connector-curvature="0" class="st30" d="M28.4,28.3c0,0,5.5-3.8,9-5.1c1.1-0.4,9.2-2.5,10.5,11.2
			c0.7,7.5-0.6,12.7-6.8,13.7c-3.7,0.6-3.2,3.3-3.2,3.3"/>
	</g>
</g>
<path id="path308" inkscape:connector-curvature="0" class="st2" d="M37.2,22.6c-3.5,1.3-9,5-9.2,5.1c-0.3,0.2-0.4,0.6-0.2,0.9
	c0.2,0.3,0.7,0.4,1,0.2c0.1,0,5.5-3.7,8.9-5c0.1,0,2.6-0.9,5,0.5c2.5,1.5,4,5,4.5,10.2c0.8,8.3-1.1,12.2-6.2,13
	c-1.5,0.2-2.5,0.8-3.2,1.7c-0.8,1.1-0.6,2.4-0.6,2.5c0.1,0.4,0.4,0.6,0.8,0.5c0.4-0.1,0.6-0.4,0.6-0.8c0,0-0.1-0.8,0.4-1.5
	c0.4-0.6,1.2-0.9,2.2-1.1c7.6-1.2,8-8.3,7.4-14.4c-0.5-5.7-2.3-9.5-5.2-11.2C40.5,21.4,37.6,22.4,37.2,22.6"/>
<g id="g310" transform="matrix(0.13333333,0,0,-0.13333333,0,462.54667)">
	<g>
		<defs>
			<path id="SVGID_27_" d="M255.8,3264.7c47,29.1,73.1,14.2,73.1,14.2c-20.4,18.5-43.4,12.4-48.5,10.5
				c-26.1-9.7-76.6-45.5-76.6-45.5s-6.8-12,6.8-9.4C210.6,3234.5,240.2,3255,255.8,3264.7L255.8,3264.7z"/>
		</defs>
		<clipPath id="SVGID_28_">
			<use xlink:href="#SVGID_27_"  style="overflow:visible;"/>
		</clipPath>
		<g id="g312" class="st31">
			
				<linearGradient id="path324_1_" gradientUnits="userSpaceOnUse" x1="-3430.8281" y1="-1282.9617" x2="-3430.5852" y2="-1282.9617" gradientTransform="matrix(91.6631 -132.5082 -133.595 -90.9174 143311.3125 -567944.8125)">
				<stop  offset="0" style="stop-color:#FAFAFD"/>
				<stop  offset="1" style="stop-color:#8892D2"/>
			</linearGradient>
			<path id="path324" inkscape:connector-curvature="0" class="st32" d="M255.8,3264.7c47,29.1,73.1,14.2,73.1,14.2
				c-20.4,18.5-43.4,12.4-48.5,10.5c-26.1-9.7-76.6-45.5-76.6-45.5s-6.8-12,6.8-9.4C210.6,3234.5,240.2,3255,255.8,3264.7"/>
		</g>
	</g>
</g>
<path id="path326" inkscape:connector-curvature="0" class="st2" d="M31.8,45.6c-0.1,3.2-1.1,6-2.7,7.5c-0.7,0.7-1.6,1-2.4,1
	c-0.3,0-0.5,0.2-0.5,0.4c0,0.2,0.2,0.5,0.4,0.5c1.1,0.1,2.2-0.4,3.1-1.2c1.8-1.6,3-4.7,3-8.1c0-0.2-0.2-0.4-0.5-0.5
	C32.1,45.1,31.9,45.3,31.8,45.6"/>
<path id="path328" inkscape:connector-curvature="0" class="st2" d="M33.9,43.3c-0.4,0.8-1,1.3-1.7,1.4c-0.7,0.1-1.4-0.2-1.9-0.9
	c-0.2-0.2-0.4-0.2-0.7-0.1c-0.2,0.1-0.2,0.4-0.1,0.6c0.7,0.9,1.7,1.3,2.8,1.2c1.1-0.1,1.9-0.8,2.4-1.9c0.1-0.2,0-0.5-0.2-0.6
	C34.2,43,34,43.1,33.9,43.3"/>
</svg>
