<?xml version="1.0" encoding="utf-8"?>
<!-- Generator: Adobe Illustrator 22.1.0, SVG Export Plug-In . SVG Version: 6.00 Build 0)  -->
<svg version="1.1" id="Layer_1" xmlns="http://www.w3.org/2000/svg" xmlns:xlink="http://www.w3.org/1999/xlink" x="0px" y="0px"
	 viewBox="0 0 100 100" style="enable-background:new 0 0 100 100;" xml:space="preserve">
<style type="text/css">
	.st0{fill:#1ED760;}
</style>
<path class="st0" d="M50.3,10.3c-22.1,0-40,17.9-40,40c0,22.1,17.9,40,40,40c22.1,0,40-17.9,40-40C90.3,28.2,72.3,10.3,50.3,10.3
	C50.3,10.3,50.3,10.3,50.3,10.3z M68.6,68c-0.7,1.2-2.3,1.5-3.4,0.8c-9.4-5.7-21.2-7-35.1-3.9c-1.3,0.3-2.7-0.5-3-1.9
	c-0.3-1.3,0.5-2.7,1.9-3c15.2-3.5,28.3-2,38.9,4.5C68.9,65.3,69.3,66.8,68.6,68z M73.5,57.1c-0.9,1.5-2.8,1.9-4.3,1
	c-10.8-6.6-27.1-8.5-39.9-4.7c-1.6,0.5-3.4-0.4-3.9-2.1c-0.5-1.6,0.4-3.4,2.1-3.9c14.5-4.4,32.6-2.3,44.9,5.3
	C73.9,53.7,74.4,55.6,73.5,57.1L73.5,57.1z M73.9,45.7c-12.9-7.7-34.2-8.4-46.5-4.6c-2,0.6-4.1-0.5-4.7-2.5c-0.6-2,0.5-4.1,2.5-4.7
	c14.1-4.3,37.6-3.5,52.5,5.4c1.8,1.1,2.4,3.4,1.3,5.1C78,46.2,75.7,46.8,73.9,45.7L73.9,45.7z"/>
</svg>
