<?xml version="1.0" encoding="utf-8"?>
<!-- Generator: Adobe Illustrator 22.1.0, SVG Export Plug-In . SVG Version: 6.00 Build 0)  -->
<svg version="1.1"
	 id="svg2" xmlns:cc="http://creativecommons.org/ns#" xmlns:dc="http://purl.org/dc/elements/1.1/" xmlns:rdf="http://www.w3.org/1999/02/22-rdf-syntax-ns#" xmlns:svg="http://www.w3.org/2000/svg"
	 xmlns="http://www.w3.org/2000/svg" xmlns:xlink="http://www.w3.org/1999/xlink" x="0px" y="0px" viewBox="0 0 100 100"
	 style="enable-background:new 0 0 100 100;" xml:space="preserve">
<style type="text/css">
	.st0{fill:#F68D11;}
</style>
<path id="path14" class="st0" d="M54.7,40.8l-9.3-3.1V24.2l9.4,2.8L54.7,40.8"/>
<path id="path16" class="st0" d="M57.1,26.9l9.4-2.8l0,13.5l-9.3,3.1V26.9"/>
<path id="path18" class="st0" d="M64.5,22.7L55.8,20l-8.6,2.7l8.6,2.3L64.5,22.7"/>
<path id="path20" class="st0" d="M78.2,40.8l-9.3-3.1V24.2l9.4,2.8L78.2,40.8"/>
<path id="path22" class="st0" d="M80.6,26.9l9.4-2.8l0,13.5l-9.3,3.1V26.9"/>
<path id="path24" class="st0" d="M88.1,22.7L79.4,20l-8.6,2.7l8.6,2.3L88.1,22.7"/>
<path id="path26" class="st0" d="M19.4,46.7L10,43.9v13.5l9.3,3.1L19.4,46.7"/>
<path id="path28" class="st0" d="M21.8,46.7l9.4-2.8l0,13.5l-9.3,3.1V46.7"/>
<path id="path30" class="st0" d="M29.2,42.4l-8.7-2.7l-8.6,2.7l8.6,2.3L29.2,42.4"/>
<path id="path32" class="st0" d="M42.9,60.5l-9.3-3.1V43.9l9.4,2.8L42.9,60.5"/>
<path id="path34" class="st0" d="M45.3,46.7l9.4-2.8l0,13.5l-9.3,3.1V46.7"/>
<path id="path36" class="st0" d="M52.8,42.4l-8.7-2.7l-8.6,2.7l8.6,2.3L52.8,42.4"/>
<path id="path38" class="st0" d="M31.1,80.3l-9.3-3.1V63.6l9.4,2.8L31.1,80.3"/>
<path id="path40" class="st0" d="M33.5,66.4l9.4-2.8l0,13.5l-9.3,3.1V66.4"/>
<path id="path42" class="st0" d="M41,62.2l-8.7-2.7l-8.6,2.7l8.6,2.3L41,62.2"/>
</svg>
