<?xml version="1.0" encoding="utf-8"?>
<!-- Generator: Adobe Illustrator 22.1.0, SVG Export Plug-In . SVG Version: 6.00 Build 0)  -->
<svg version="1.1" id="Flash_Builder_1_" xmlns="http://www.w3.org/2000/svg" xmlns:xlink="http://www.w3.org/1999/xlink" x="0px"
	 y="0px" viewBox="0 0 100 100" style="enable-background:new 0 0 100 100;" xml:space="preserve">
<style type="text/css">
	.st0{fill:#FF7D25;}
	.st1{fill:#533428;}
	.st2{opacity:0.302;}
</style>
<g id="Frame_4_">
	<g>
		<rect x="10" y="11" class="st0" width="80" height="77.9"/>
	</g>
</g>
<g id="Background_4_">
	<g>
		<rect x="16.1" y="17.3" class="st1" width="67.7" height="65.4"/>
	</g>
</g>
<g id="Shadow2_4_" class="st2">
	<g>
		<polygon points="57.5,31.5 56,32.2 55.7,39.5 47.7,33.3 29.9,34.4 28.6,66.3 50.9,82.7 83.7,82.7 83.7,48.4 		"/>
	</g>
</g>
<g id="Shadow_5_" class="st2">
	<g>
		<rect x="16.1" y="17.3" width="67.7" height="2.2"/>
	</g>
</g>
<g id="Fb">
	<g>
		<path class="st0" d="M28.7,33.3h19.1v4.9h-13v9.1h12.1v4.9H34.8v14h-6C28.7,66.3,28.7,33.3,28.7,33.3z"/>
		<path class="st0" d="M51.3,66.3c0.1-1.6,0.2-4.3,0.2-6.7V31.5h6v14.2h0.1c1.5-2.3,4.1-3.8,7.6-3.8c5.8,0,10,4.8,9.9,12.1
			c0,8.6-5.4,12.8-10.8,12.8c-3.1,0-5.8-1.2-7.5-4.1h-0.1l-0.3,3.6L51.3,66.3L51.3,66.3z M57.5,56.4c0,0.5,0,1,0.1,1.4
			c0.6,2.4,2.7,4.2,5.3,4.2c3.8,0,6.1-3,6.1-7.8c0-4.2-2-7.6-6-7.6c-2.4,0-4.7,1.8-5.3,4.4c-0.1,0.4-0.2,1-0.2,1.6V56.4z"/>
	</g>
</g>
</svg>
