<?xml version="1.0" encoding="utf-8"?>
<!-- Generator: Adobe Illustrator 22.1.0, SVG Export Plug-In . SVG Version: 6.00 Build 0)  -->
<svg version="1.1" id="Layer_1" xmlns="http://www.w3.org/2000/svg" xmlns:xlink="http://www.w3.org/1999/xlink" x="0px" y="0px"
	 viewBox="0 0 100 100" style="enable-background:new 0 0 100 100;" xml:space="preserve">
<style type="text/css">
	.st0{fill:#F7DF1E;}
</style>
<rect x="10" y="10" class="st0" width="80" height="80"/>
<path d="M63.7,72.5c1.6,2.6,3.7,4.6,7.4,4.6c3.1,0,5.1-1.6,5.1-3.7c0-2.6-2-3.5-5.5-5l-1.9-0.8c-5.4-2.3-9-5.2-9-11.3
	c0-5.6,4.3-9.9,11-9.9c4.8,0,8.2,1.7,10.7,6l-5.9,3.8c-1.3-2.3-2.7-3.2-4.8-3.2c-2.2,0-3.6,1.4-3.6,3.2c0,2.3,1.4,3.2,4.6,4.6
	l1.9,0.8c6.4,2.7,10,5.5,10,11.8c0,6.8-5.3,10.5-12.5,10.5c-7,0-11.5-3.3-13.7-7.7L63.7,72.5z M37.2,73.2c1.2,2.1,2.3,3.9,4.8,3.9
	c2.5,0,4-1,4-4.7V46.7h7.5v25.7c0,7.8-4.6,11.3-11.2,11.3c-6,0-9.5-3.1-11.3-6.9L37.2,73.2z"/>
</svg>
