<?xml version="1.0" encoding="utf-8"?>
<!-- Generator: Adobe Illustrator 22.1.0, SVG Export Plug-In . SVG Version: 6.00 Build 0)  -->
<svg version="1.1" id="Layer_1" xmlns="http://www.w3.org/2000/svg" xmlns:xlink="http://www.w3.org/1999/xlink" x="0px" y="0px"
	 viewBox="0 0 100 100" style="enable-background:new 0 0 100 100;" xml:space="preserve">
<style type="text/css">
	.st0{fill:#5382A1;}
	.st1{fill:#E76F00;}
</style>
<path class="st0" d="M39.6,71.3c0,0-3.1,1.8,2.2,2.4c6.3,0.7,9.6,0.6,16.6-0.7c0,0,1.8,1.2,4.4,2.1C47,81.8,27.3,74.7,39.6,71.3"/>
<path class="st0" d="M37.6,62.5c0,0-3.4,2.5,1.8,3.1c6.8,0.7,12.1,0.8,21.4-1c0,0,1.3,1.3,3.3,2C45.2,72.1,24.1,67,37.6,62.5"/>
<path class="st1" d="M53.8,47.7c3.9,4.4-1,8.4-1,8.4s9.8-5.1,5.3-11.4c-4.2-5.9-7.4-8.8,10-19C68.1,25.7,40.7,32.6,53.8,47.7"/>
<path class="st0" d="M74.5,77.7c0,0,2.3,1.9-2.5,3.3c-9,2.7-37.6,3.6-45.6,0.1c-2.9-1.2,2.5-3,4.2-3.3c1.8-0.4,2.8-0.3,2.8-0.3
	c-3.2-2.2-20.5,4.4-8.8,6.3C56.5,89,82.8,81.5,74.5,77.7"/>
<path class="st0" d="M41,53.4c0,0-14.5,3.5-5.1,4.7c4,0.5,11.9,0.4,19.2-0.2c6-0.5,12.1-1.6,12.1-1.6s-2.1,0.9-3.7,2
	c-14.8,3.9-43.3,2.1-35.1-1.9C35.4,53.1,41,53.4,41,53.4"/>
<path class="st0" d="M67.1,68c15-7.8,8.1-15.3,3.2-14.3c-1.2,0.2-1.7,0.5-1.7,0.5s0.4-0.7,1.3-1c9.6-3.4,17,9.9-3.1,15.2
	C66.8,68.4,67,68.2,67.1,68"/>
<path class="st1" d="M58.1,9.4c0,0,8.3,8.3-7.9,21.1c-13,10.3-3,16.1,0,22.8c-7.6-6.8-13.1-12.9-9.4-18.5
	C46.2,26.6,61.4,22.6,58.1,9.4"/>
<path class="st0" d="M42.5,89.1c14.4,0.9,36.5-0.5,37.1-7.3c0,0-1,2.6-11.9,4.6c-12.3,2.3-27.5,2-36.5,0.6
	C31.2,87,33,88.5,42.5,89.1"/>
</svg>
