<?xml version="1.0" encoding="utf-8"?>
<!-- Generator: Adobe Illustrator 22.1.0, SVG Export Plug-In . SVG Version: 6.00 Build 0)  -->
<svg version="1.1" id="Layer_1" xmlns="http://www.w3.org/2000/svg" xmlns:xlink="http://www.w3.org/1999/xlink" x="0px" y="0px"
	 viewBox="0 0 100 100" style="enable-background:new 0 0 100 100;" xml:space="preserve">
<style type="text/css">
	.st0{fill:#262727;}
</style>
<g>
	<path class="st0" d="M15.6,54.6l2.2-13.4h3v17.1h-1.9V44.1l-2.3,14.1h-2l-2.3-14.1v14.1h-1.9V41.1h3.1L15.6,54.6z"/>
	<path class="st0" d="M28.1,41.1V43h-3.4v5.7h3.3v1.8h-3.3v6h3.5v1.8h-5.4V41.1H28.1z"/>
	<path class="st0" d="M31.5,58.2V43h-2.6v-1.8H36V43h-2.6v15.3L31.5,58.2L31.5,58.2z"/>
	<path class="st0" d="M43.4,58.2h-1.9l-0.4-2.9h-3.1l-0.4,2.9h-1.9l2.6-17.1h2.5L43.4,58.2z M38.2,53.6h2.7l-1.3-9.4L38.2,53.6z"/>
	<path class="st0" d="M46.7,41.1v15.3h3.2v1.8h-5.2V41.1H46.7z"/>
	<path class="st0" d="M57.9,52.7v2.5c0,2.1-1,3.2-3.2,3.2h-0.5c-2.1,0-3.1-1-3.1-3.1v-3.6H53v3.7c0,0.9,0.4,1.3,1.3,1.3h0.4
		c0.9,0,1.3-0.4,1.3-1.3v-2.6c0-0.9-0.3-1.2-0.9-1.6l-2.4-1.7c-1.3-0.9-1.6-1.8-1.6-3.2v-2c0-2.1,1-3.2,3.2-3.2h0.5
		c2.1,0,3.1,1,3.1,3.1v3.1h-1.9V44c0-0.9-0.4-1.3-1.3-1.3h-0.3c-0.9,0-1.3,0.4-1.3,1.3v2.1c0,0.9,0.3,1.2,0.9,1.6l2.4,1.7
		C57.5,50.4,57.9,51.2,57.9,52.7z"/>
	<path class="st0" d="M64.9,54.6L67,41.1h3v17.1h-1.9V44.1l-2.3,14.1h-2l-2.3-14.1v14.1h-1.9V41.1h3.1L64.9,54.6z"/>
	<path class="st0" d="M73.9,58.2h-2V41.1h2V58.2z"/>
	<path class="st0" d="M77.6,58.2V43h-2.6v-1.8h7.1V43h-2.6v15.3L77.6,58.2L77.6,58.2z"/>
	<path class="st0" d="M88.4,48.6v-7.4h2v17.1h-2v-7.8h-3.2v7.8h-2V41.1h2v7.4L88.4,48.6L88.4,48.6z"/>
</g>
</svg>
