<?xml version="1.0" encoding="utf-8"?>
<!-- Generator: Adobe Illustrator 22.1.0, SVG Export Plug-In . SVG Version: 6.00 Build 0)  -->
<svg version="1.1" id="Layer_1" xmlns="http://www.w3.org/2000/svg" xmlns:xlink="http://www.w3.org/1999/xlink" x="0px" y="0px"
	 viewBox="0 0 100 100" style="enable-background:new 0 0 100 100;" xml:space="preserve">
<style type="text/css">
	.st0{fill:#FDFDFD;}
	.st1{fill:#AACF38;}
	.st2{fill:#5389C2;}
	.st3{fill:#78AD45;}
	.st4{fill:#14518C;}
</style>
<path class="st0" d="M76.1,41.5c0.2-0.3,0.5-0.6,0.7-0.8c2.5-2.4,5.1-4.8,7.6-7.1c0.5-0.5,0.7-1,0.7-1.7c0-5.6,0-11.1,0-16.7
	c0-0.3,0.1-0.7-0.2-1c-0.2,0.2-0.4,0.3-0.6,0.5C79.6,19.1,67.4,30.8,65.8,32c-0.1-0.1-0.1-0.2-0.2-0.3C60.9,27,56,22.2,51.2,17.6
	c-0.3-0.3-0.5-0.6-1-0.7c-1.7,1.6-3.4,3.3-5.2,5c-3.5,3.4-7,6.8-10.5,10.2c-0.2-0.2-0.4-0.3-0.6-0.5C28.1,26,22.2,20.4,16.3,14.9
	c-0.3-0.3-0.6-0.5-1-0.9c0,0.2-0.1,0.3-0.1,0.4c0,6,0,11.9,0,17.9c0,0.5,0.2,0.7,0.5,1c1.4,1.3,2.9,2.6,4.2,4
	c1.5,1.4,3.1,2.7,4.4,4.3c-2.9,2.7-5.8,5.4-8.7,8.1c-0.4,0.3-0.5,0.7-0.5,1.2c0,5.8,0,11.6,0,17.3c0,0.2-0.1,0.4,0.1,0.7
	c0.5-0.5,1-0.9,1.5-1.4c5.8-5.5,11.7-11,17.5-16.5c0.2,0.1,0.4,0.3,0.6,0.4c4.9,4.7,9.7,9.4,14.6,14.1c0.2,0.2,0.4,0.5,0.8,0.6
	c0.1-0.1,0.3-0.2,0.4-0.4c4.1-4,8.3-8,12.4-12.1c0.9-0.9,1.9-1.8,2.9-2.7c6.3,5.9,12.6,11.9,19,17.9c0.1-0.3,0.1-0.4,0.1-0.5
	c0-5.9,0-11.8,0-17.8c0-0.5-0.2-0.8-0.5-1.1C81.8,46.8,79,44.1,76.1,41.5z"/>
<path class="st0" d="M19.1,73.1c-1.3,0-2.5,0-3.7,0c0.1,0.3,0.2,0.6,0.3,0.9c1.2,3.7,2.5,7.3,3.6,11c0.2,0.7,0.6,0.9,1.3,0.9
	c2.1,0,2.1,0,2.8-2c0.6-1.7,1.2-3.4,1.9-5.3c0.9,2.6,1.7,4.9,2.6,7.3c1.1,0,2,0,3.1,0c1.4-4.2,2.8-8.5,4.2-12.8c-1.3,0-2.4,0-3.6,0
	c-0.7,2.4-1.4,4.7-2.1,7c-0.1,0-0.1,0-0.2,0c-0.8-2.4-1.6-4.7-2.4-7.1c-0.8,0-1.6,0-2.4,0c-0.5,0-0.7,0.2-0.9,0.7c-0.6,2-1.3,4-2,6
	c-0.1,0.2,0,0.4-0.3,0.5C20.5,77.7,19.8,75.4,19.1,73.1z"/>
<path class="st0" d="M50.5,73.1c0,4.3,0,8.5,0,12.6c1.2,0,2.3,0,3.5,0c0-1.3,0-2.5,0-3.7c1-0.3,1.7-0.1,2.2,0.9
	c0.4,0.8,1,1.6,1.6,2.4c0.2,0.3,0.3,0.5,0.7,0.5c1.2,0,2.4,0,3.7,0c-1.1-1.6-2-3-3-4.4c0.9-0.5,1.6-1,2.1-1.9
	c1.6-2.8-0.1-6.1-3.5-6.4C55.4,72.9,53,73.1,50.5,73.1z"/>
<path class="st0" d="M40.1,73c-1.3,0-2.4,0-3.6,0c0.1,2.8-0.2,5.6,0.1,8.4c0.3,2.6,2,4.2,4.7,4.5c0.6,0.1,1.2,0.1,1.7,0
	c3.1-0.2,5-1.8,5.3-4.9c0.2-2.6,0.1-5.2,0.1-7.8l-0.1-0.1c-1.2,0-2.3,0-3.5,0c0,0.7,0,1.2,0,1.8c0,1.9,0,3.8,0,5.7
	c-0.1,1.4-1,2.2-2.3,2.2s-2.1-0.8-2.3-2.2c0-0.4,0-0.8,0-1.2C40.1,77.3,40.1,75.2,40.1,73z"/>
<path class="st0" d="M73.1,78.2c-2.1,0-4,0-6,0c0-0.7,0-1.4,0-2.1c2.2,0,4.4,0,6.6,0c0-1.1,0-2,0-3c-3.4,0-6.7,0-10.1,0
	c0,4.3,0,8.5,0,12.6c1.2,0,2.3,0,3.5,0c0-1.5,0-3,0-4.6c2.1,0,4,0,6,0C73.1,80.1,73.1,79.2,73.1,78.2z"/>
<path class="st0" d="M78.8,82.7c0-3.3,0-6.4,0-9.6c-1.2,0-2.3,0-3.4,0c0,4.3,0,8.4,0,12.6c3.2,0,6.4,0,9.6,0c0-1,0-2,0-3
	C83,82.7,81,82.7,78.8,82.7z"/>
<path class="st1" d="M34.6,32c3.5-3.4,7-6.8,10.5-10.2c1.7-1.7,3.4-3.3,5.2-5c0.5,0.1,0.7,0.5,1,0.7c4.8,4.7,9.7,9.4,14.5,14.1
	c0.1,0.1,0.2,0.2,0.2,0.3c0,5.8,0,11.6,0,17.5c0,0.4,0.1,0.9,0.2,1.3c-0.4,0.1-0.5-0.3-0.7-0.5c-3-2.9-6.1-5.8-9.1-8.8
	c-2-2-4-3.9-6.2-6.1c-2,2.1-3.9,4.1-5.8,6.1c-0.3,0.2-0.5,0.4-0.8,0.7c-2.9,2.8-5.8,5.6-8.8,8.5c-0.3-0.3-0.2-0.7-0.2-1.1
	C34.6,43.7,34.6,37.8,34.6,32z"/>
<path class="st2" d="M34.8,50.6c2.9-2.8,5.8-5.6,8.8-8.5c0.2-0.2,0.5-0.4,0.8-0.7c2,1.9,4,3.9,6,5.8c2.1-2,4.1-3.9,6-5.8
	c3,2.9,6.1,5.9,9.1,8.8c0.2,0.2,0.3,0.6,0.7,0.5v0.1v0.1c-1,0.9-1.9,1.8-2.9,2.7c-4.1,4-8.3,8-12.4,12.1c-0.1,0.1-0.3,0.2-0.4,0.4
	c-0.4-0.1-0.6-0.4-0.8-0.6c-4.9-4.7-9.7-9.4-14.6-14.1c-0.2-0.2-0.4-0.3-0.6-0.4v-0.1C34.5,50.8,34.7,50.7,34.8,50.6z"/>
<path class="st3" d="M34.8,50.6c-0.1,0.2-0.2,0.2-0.4,0.2c-1.7-1.6-3.3-3.2-5.1-4.8c-1.7-1.5-3.2-3.1-4.9-4.5
	c-1.4-1.5-3-2.8-4.4-4.3c-1.4-1.3-2.8-2.6-4.2-4c-0.3-0.3-0.5-0.6-0.5-1c0-6,0-11.9,0-17.9c0-0.1,0-0.2,0.1-0.4
	c0.4,0.3,0.7,0.6,1,0.9C22.2,20.4,28.1,26,34,31.5c0.2,0.2,0.4,0.3,0.6,0.5c0,5.9,0,11.7,0,17.6C34.6,49.9,34.5,50.2,34.8,50.6z"/>
<path class="st3" d="M84.4,14.7c0.2-0.2,0.4-0.3,0.6-0.5c0.3,0.4,0.2,0.7,0.2,1c0,5.6,0,11.1,0,16.7c0,0.7-0.2,1.2-0.7,1.7
	c-2.6,2.3-8.1,7.6-8.4,7.9c-0.1,0.1-0.3,0.1-0.4,0.3c-3.2,3-6.4,6-9.6,9.1v-0.1c-0.1-0.4-0.2-0.8-0.2-1.3c0-5.8,0-11.6,0-17.5"/>
<path class="st4" d="M24.4,41.5c1.8,1.4,3.3,3,4.9,4.5c1.7,1.6,3.4,3.2,5.1,4.8c0,0.1,0,0.1,0,0.1c-5.8,5.5-11.7,11-17.5,16.5
	c-0.5,0.5-1,0.9-1.5,1.4c-0.2-0.3-0.1-0.5-0.1-0.7c0-5.8,0-11.6,0-17.3c0-0.5,0.1-0.9,0.5-1.2C18.6,46.9,21.5,44.2,24.4,41.5z"/>
<path class="st4" d="M66.1,50.8c3.2-3,6.4-6,9.6-9.1c0.1-0.1,0.3-0.2,0.4-0.3c2.8,2.7,5.7,5.3,8.5,8c0.3,0.3,0.6,0.6,0.5,1.1
	c0,5.9,0,11.8,0,17.8c0,0.1,0,0.2-0.1,0.5C78.6,62.8,72.3,56.8,66.1,50.8C66.1,50.9,66.1,50.8,66.1,50.8z"/>
<path class="st4" d="M19.1,73.1c0.7,2.3,1.4,4.7,2.1,7c0.3-0.1,0.3-0.3,0.3-0.5c0.7-2,1.4-4,2-6c0.2-0.5,0.4-0.7,0.9-0.7
	c0.8,0.1,1.5,0,2.4,0c0.8,2.4,1.6,4.7,2.4,7.1c0.1,0,0.1,0,0.2,0c0.7-2.3,1.4-4.7,2.1-7c1.2,0,2.4,0,3.6,0
	c-1.4,4.3-2.8,8.5-4.2,12.8c-1.1,0-2,0-3.1,0c-0.8-2.3-1.7-4.7-2.6-7.3c-0.7,1.9-1.3,3.6-1.9,5.3c-0.7,2-0.7,2-2.8,2
	c-0.7,0-1.1-0.2-1.3-0.9c-1.2-3.7-2.4-7.3-3.6-11c-0.1-0.3-0.2-0.5-0.3-0.9C16.6,73.1,17.8,73.1,19.1,73.1z"/>
<path class="st4" d="M50.5,73.1c2.4,0,4.8-0.2,7.2,0c3.4,0.3,5.1,3.5,3.5,6.4c-0.5,0.8-1.2,1.3-2.1,1.9c1,1.5,1.9,2.9,3,4.4
	c-1.3,0-2.5,0-3.7,0c-0.4,0-0.5-0.3-0.7-0.5c-0.5-0.8-1.1-1.5-1.6-2.4c-0.5-1-1.2-1.2-2.2-0.9c0,1.2,0,2.4,0,3.7c-1.2,0-2.3,0-3.5,0
	C50.5,81.5,50.5,77.3,50.5,73.1z M54,79.1c1,0,1.9,0.1,2.7,0c0.9-0.1,1.4-0.6,1.5-1.5c0-0.9-0.4-1.4-1.4-1.5c-0.9-0.1-1.9,0-2.8,0
	C54,77.1,54,78.1,54,79.1z"/>
<path class="st4" d="M40.1,73c0,2.2,0,4.3,0,6.4c0,0.4,0,0.8,0,1.2c0.1,1.4,1,2.2,2.3,2.2c1.4,0,2.3-0.8,2.3-2.2
	c0.1-1.9,0-3.8,0-5.7c0-0.6,0-1.2,0-1.8c1.2,0,2.3,0,3.5,0l0.1,0.1c0,2.6,0.2,5.2-0.1,7.8c-0.2,3.1-2.1,4.8-5.2,5
	c-0.6,0-1.2,0-1.7,0c-2.7-0.3-4.4-1.8-4.7-4.5c-0.3-2.8-0.1-5.6-0.1-8.4C37.7,73,38.8,73,40.1,73z"/>
<path class="st4" d="M73.1,78.2c0,1.1,0,2,0,3c-2,0-3.9,0-6,0c0,1.6,0,3,0,4.6c-1.2,0-2.3,0-3.5,0c0-4.2,0-8.4,0-12.6
	c3.3,0,6.7,0,10.1,0c0,1,0,1.9,0,3c-2.2,0-4.4,0-6.6,0c0,0.8,0,1.4,0,2.1C69.1,78.2,71,78.2,73.1,78.2z"/>
<path class="st4" d="M78.8,82.7c2.1,0,4.1,0,6.2,0c0,1,0,2,0,3c-3.2,0-6.3,0-9.6,0c0-4.2,0-8.4,0-12.6c1.1,0,2.2,0,3.4,0
	C78.8,76.2,78.8,79.4,78.8,82.7z"/>
</svg>
