<?xml version="1.0" encoding="utf-8"?>
<!DOCTYPE svg PUBLIC "-//W3C//DTD SVG 1.1//EN" "http://www.w3.org/Graphics/SVG/1.1/DTD/svg11.dtd">
<svg version="1.1" id="Layer_1" xmlns="http://www.w3.org/2000/svg" xmlns:xlink="http://www.w3.org/1999/xlink" x="0px" y="0px"
	 width="125px" height="304px" viewBox="0 0 125 304" enable-background="new 0 0 125 304" xml:space="preserve">

    <path fill="none" stroke="#000000" stroke-width="1.5" stroke-linecap="round" stroke-miterlimit="10"
        d="M0,14.602v274.797
    	C0,297.458,6.523,304,14.559,304h95.881c8.036,0,14.56-6.542,14.56-14.602V14.602C125,6.542,118.476,0,110.44,0H14.559
    	C6.523,0,0,6.542,0,14.602z"/>

    <path fill="none" stroke="#000000" stroke-width="0.563" stroke-miterlimit="10"
        d="M33.828,11.318v0.377
    	c0,2.07,1.676,3.75,3.74,3.75h48.251c2.063,0,3.738-1.681,3.738-3.75v-0.377c0-2.069-1.675-3.75-3.738-3.75H37.567
    	C35.504,7.567,33.828,9.249,33.828,11.318z"/>

    <rect x="15" y="27" fill="none" stroke="#000000" stroke-width="0.749" stroke-miterlimit="10" width="95" height="119"/>

    <path fill="none" stroke="#000000" stroke-width="0.563" stroke-miterlimit="10"
        d="M42.98,172.041v27.122
    	c0,2.951,2.39,5.348,5.332,5.348h28.234c2.941,0,5.332-2.397,5.332-5.348v-27.122c0-2.952-2.39-5.35-5.332-5.35H48.312
    	C45.37,166.691,42.98,169.089,42.98,172.041z"/>

    <path fill="none" stroke="#000000" stroke-width="0.543" stroke-miterlimit="10"
        d="M47.435,175.147v20.908
    	c0,2.276,1.841,4.125,4.11,4.125h21.766c2.27,0,4.11-1.848,4.11-4.125v-20.908c0-2.276-1.841-4.123-4.11-4.123H51.545
    	C49.276,171.024,47.435,172.872,47.435,175.147z"/>

    <path fill-rule="evenodd" clip-rule="evenodd" fill="#FFFFFF"
        d="M12.591,169.442v10.203c0,1.188,0.964,2.153,2.147,2.153h21.465
    	c1.184,0,2.147-0.965,2.147-2.153v-10.203c0-1.188-0.963-2.153-2.147-2.153H14.738C13.555,167.29,12.591,168.255,12.591,169.442z"/>

    <path fill="none" stroke="#1A1A1A" stroke-width="0.75" stroke-miterlimit="10"
        d="M12.591,169.442v10.203
    	c0,1.188,0.964,2.153,2.147,2.153h21.465c1.184,0,2.147-0.965,2.147-2.153v-10.203c0-1.188-0.963-2.153-2.147-2.153H14.738
    	C13.555,167.29,12.591,168.255,12.591,169.442z"/>

    <path fill-rule="evenodd" clip-rule="evenodd" fill="#FFFFFF"
        d="M12.592,213.408v10.202c0,1.189,0.963,2.155,2.147,2.155h24.453
    	c1.185,0,2.147-0.966,2.147-2.155v-10.202c0-1.189-0.962-2.154-2.147-2.154H14.74C13.555,211.254,12.592,212.219,12.592,213.408z"/>

    <path fill="none" stroke="#1A1A1A" stroke-width="0.75" stroke-miterlimit="10"
        d="M12.592,213.408v10.202
    	c0,1.189,0.963,2.155,2.147,2.155h24.453c1.185,0,2.147-0.966,2.147-2.155v-10.202c0-1.189-0.962-2.154-2.147-2.154H14.74
    	C13.555,211.254,12.592,212.219,12.592,213.408z"/>

    <polygon fill-rule="evenodd" clip-rule="evenodd" points="77.693,188.289 82.002,185.794 77.694,183.299 "/>
    <polygon fill-rule="evenodd" clip-rule="evenodd" points="47.164,183.119 42.7,185.704 47.163,188.291 "/>
    <polygon fill-rule="evenodd" clip-rule="evenodd" points="60.086,200.066 62.645,204.511 65.205,200.067 "/>
    <polygon fill-rule="evenodd" clip-rule="evenodd" points="65.205,170.751 62.651,166.315 60.095,170.751 "/>

    <path fill-rule="evenodd" clip-rule="evenodd" fill="#FFFFFF"
        d="M12.591,189.4v10.202c0,1.189,0.964,2.155,2.147,2.155h21.465
    	c1.184,0,2.147-0.966,2.147-2.155V189.4c0-1.189-0.963-2.154-2.147-2.154H14.738C13.555,187.246,12.591,188.211,12.591,189.4z"/>

    <path fill="none" stroke="#1A1A1A" stroke-width="0.75" stroke-miterlimit="10"
        d="M12.591,189.4v10.202
    	c0,1.189,0.964,2.155,2.147,2.155h21.465c1.184,0,2.147-0.966,2.147-2.155V189.4c0-1.189-0.963-2.154-2.147-2.154H14.738
    	C13.555,187.246,12.591,188.211,12.591,189.4z"/>

    <path fill-rule="evenodd" clip-rule="evenodd" fill="#FFFFFF"
        d="M86.647,169.442v10.203c0,1.188,0.962,2.153,2.146,2.153h21.466
    	c1.183,0,2.146-0.965,2.146-2.153v-10.203c0-1.188-0.963-2.153-2.146-2.153H88.793C87.609,167.29,86.647,168.255,86.647,169.442z"/>

    <path fill="none" stroke="#1A1A1A" stroke-width="0.75" stroke-miterlimit="10"
        d="M86.647,169.442v10.203
    	c0,1.188,0.962,2.153,2.146,2.153h21.466c1.183,0,2.146-0.965,2.146-2.153v-10.203c0-1.188-0.963-2.153-2.146-2.153H88.793
    	C87.609,167.29,86.647,168.255,86.647,169.442z"/>

    <path fill-rule="evenodd" clip-rule="evenodd" fill="#FFFFFF"
        d="M86.647,189.4v10.202c0,1.189,0.962,2.155,2.146,2.155h21.466
    	c1.183,0,2.146-0.966,2.146-2.155V189.4c0-1.189-0.963-2.154-2.146-2.154H88.793C87.609,187.246,86.647,188.211,86.647,189.4z"/>

    <path fill="none" stroke="#1A1A1A" stroke-width="0.75" stroke-miterlimit="10"
        d="M86.647,189.4v10.202
    	c0,1.189,0.962,2.155,2.146,2.155h21.466c1.183,0,2.146-0.966,2.146-2.155V189.4c0-1.189-0.963-2.154-2.146-2.154H88.793
    	C87.609,187.246,86.647,188.211,86.647,189.4z"/>

    <path fill-rule="evenodd" clip-rule="evenodd" fill="#FFFFFF"
        d="M12.593,233.365v10.203c0,1.188,0.963,2.153,2.147,2.153h24.453
    	c1.185,0,2.147-0.965,2.147-2.153v-10.203c0-1.189-0.962-2.154-2.147-2.154H14.741C13.556,231.211,12.593,232.176,12.593,233.365z"
    	/>

    <path fill="none" stroke="#1A1A1A" stroke-width="0.75" stroke-miterlimit="10"
        d="M12.593,233.365v10.203
    	c0,1.188,0.963,2.153,2.147,2.153h24.453c1.185,0,2.147-0.965,2.147-2.153v-10.203c0-1.189-0.962-2.154-2.147-2.154H14.741
    	C13.556,231.211,12.593,232.176,12.593,233.365z"/>

    <path fill-rule="evenodd" clip-rule="evenodd" fill="#FFFFFF"
        d="M12.594,253.321v10.203c0,1.189,0.963,2.154,2.147,2.154h24.453
    	c1.185,0,2.147-0.965,2.147-2.154v-10.203c0-1.188-0.962-2.153-2.147-2.153H14.742C13.557,251.168,12.594,252.133,12.594,253.321z"
    	/>

    <path fill="none" stroke="#1A1A1A" stroke-width="0.75" stroke-miterlimit="10"
        d="M12.594,253.321v10.203
    	c0,1.189,0.963,2.154,2.147,2.154h24.453c1.185,0,2.147-0.965,2.147-2.154v-10.203c0-1.188-0.962-2.153-2.147-2.153H14.742
    	C13.557,251.168,12.594,252.133,12.594,253.321z"/>

    <path fill-rule="evenodd" clip-rule="evenodd" fill="#FFFFFF"
        d="M12.595,273.278v10.203c0,1.189,0.963,2.154,2.147,2.154h24.453
    	c1.186,0,2.147-0.965,2.147-2.154v-10.203c0-1.188-0.962-2.153-2.147-2.153H14.743C13.558,271.125,12.595,272.09,12.595,273.278z"/>

    <path fill="none" stroke="#1A1A1A" stroke-width="0.75" stroke-miterlimit="10"
        d="M12.595,273.278v10.203
    	c0,1.189,0.963,2.154,2.147,2.154h24.453c1.186,0,2.147-0.965,2.147-2.154v-10.203c0-1.188-0.962-2.153-2.147-2.153H14.743
    	C13.558,271.125,12.595,272.09,12.595,273.278z"/>

    <path fill-rule="evenodd" clip-rule="evenodd" fill="#FFFFFF"
        d="M48.125,213.408v10.202c0,1.189,0.963,2.155,2.148,2.155h24.452
    	c1.186,0,2.149-0.966,2.149-2.155v-10.202c0-1.189-0.963-2.154-2.149-2.154H50.272C49.087,211.254,48.125,212.219,48.125,213.408z"
    	/>

    <path fill="none" stroke="#1A1A1A" stroke-width="0.75" stroke-miterlimit="10"
        d="M48.125,213.408v10.202
    	c0,1.189,0.963,2.155,2.148,2.155h24.452c1.186,0,2.149-0.966,2.149-2.155v-10.202c0-1.189-0.963-2.154-2.149-2.154H50.272
    	C49.087,211.254,48.125,212.219,48.125,213.408z"/>

    <path fill-rule="evenodd" clip-rule="evenodd" fill="#FFFFFF"
        d="M48.125,233.365v10.203c0,1.188,0.963,2.153,2.148,2.153h24.453
    	c1.185,0,2.147-0.965,2.147-2.153v-10.203c0-1.189-0.962-2.154-2.147-2.154H50.273C49.088,231.211,48.125,232.176,48.125,233.365z"
    	/>

    <path fill="none" stroke="#1A1A1A" stroke-width="0.75" stroke-miterlimit="10"
        d="M48.125,233.365v10.203
    	c0,1.188,0.963,2.153,2.148,2.153h24.453c1.185,0,2.147-0.965,2.147-2.153v-10.203c0-1.189-0.962-2.154-2.147-2.154H50.273
    	C49.088,231.211,48.125,232.176,48.125,233.365z"/>

    <path fill-rule="evenodd" clip-rule="evenodd" fill="#FFFFFF"
        d="M48.126,253.321v10.203c0,1.189,0.963,2.154,2.148,2.154h24.452
    	c1.186,0,2.149-0.965,2.149-2.154v-10.203c0-1.188-0.963-2.153-2.149-2.153H50.274C49.089,251.168,48.126,252.133,48.126,253.321z"
    	/>

    <path fill="none" stroke="#1A1A1A" stroke-width="0.75" stroke-miterlimit="10"
        d="M48.126,253.321v10.203
    	c0,1.189,0.963,2.154,2.148,2.154h24.452c1.186,0,2.149-0.965,2.149-2.154v-10.203c0-1.188-0.963-2.153-2.149-2.153H50.274
    	C49.089,251.168,48.126,252.133,48.126,253.321z"/>

    <path fill-rule="evenodd" clip-rule="evenodd" fill="#FFFFFF"
        d="M48.127,273.278v10.203c0,1.189,0.963,2.154,2.148,2.154h24.453
    	c1.185,0,2.147-0.965,2.147-2.154v-10.203c0-1.188-0.962-2.153-2.147-2.153H50.275C49.09,271.125,48.127,272.09,48.127,273.278z"/>

    <path fill="none" stroke="#1A1A1A" stroke-width="0.75" stroke-miterlimit="10"
        d="M48.127,273.278v10.203
    	c0,1.189,0.963,2.154,2.148,2.154h24.453c1.185,0,2.147-0.965,2.147-2.154v-10.203c0-1.188-0.962-2.153-2.147-2.153H50.275
    	C49.09,271.125,48.127,272.09,48.127,273.278z"/>

    <path fill-rule="evenodd" clip-rule="evenodd" fill="#FFFFFF"
        d="M83.655,213.408v10.202c0,1.189,0.962,2.155,2.146,2.155h24.454
    	c1.184,0,2.146-0.966,2.146-2.155v-10.202c0-1.189-0.962-2.154-2.146-2.154H85.801C84.617,211.254,83.655,212.219,83.655,213.408z"
    	/>

    <path fill="none" stroke="#1A1A1A" stroke-width="0.75" stroke-miterlimit="10"
        d="M83.655,213.408v10.202
    	c0,1.189,0.962,2.155,2.146,2.155h24.454c1.184,0,2.146-0.966,2.146-2.155v-10.202c0-1.189-0.962-2.154-2.146-2.154H85.801
    	C84.617,211.254,83.655,212.219,83.655,213.408z"/>

    <path fill-rule="evenodd" clip-rule="evenodd" fill="#FFFFFF"
        d="M83.655,233.365v10.203c0,1.188,0.962,2.153,2.147,2.153h24.453
    	c1.185,0,2.148-0.965,2.148-2.153v-10.203c0-1.189-0.963-2.154-2.148-2.154H85.802C84.617,231.211,83.655,232.176,83.655,233.365z"
    	/>

    <path fill="none" stroke="#1A1A1A" stroke-width="0.75" stroke-miterlimit="10"
        d="M83.655,233.365v10.203
    	c0,1.188,0.962,2.153,2.147,2.153h24.453c1.185,0,2.148-0.965,2.148-2.153v-10.203c0-1.189-0.963-2.154-2.148-2.154H85.802
    	C84.617,231.211,83.655,232.176,83.655,233.365z"/>

    <path fill-rule="evenodd" clip-rule="evenodd" fill="#FFFFFF"
        d="M83.657,253.321v10.203c0,1.189,0.962,2.154,2.146,2.154h24.454
    	c1.184,0,2.146-0.965,2.146-2.154v-10.203c0-1.188-0.962-2.153-2.146-2.153H85.803C84.619,251.168,83.657,252.133,83.657,253.321z"
    	/>

    <path fill="none" stroke="#1A1A1A" stroke-width="0.75" stroke-miterlimit="10"
        d="M83.657,253.321v10.203
    	c0,1.189,0.962,2.154,2.146,2.154h24.454c1.184,0,2.146-0.965,2.146-2.154v-10.203c0-1.188-0.962-2.153-2.146-2.153H85.803
    	C84.619,251.168,83.657,252.133,83.657,253.321z"/>

    <path fill-rule="evenodd" clip-rule="evenodd" fill="#FFFFFF"
        d="M83.657,273.278v10.203c0,1.189,0.963,2.154,2.148,2.154h24.452
    	c1.185,0,2.148-0.965,2.148-2.154v-10.203c0-1.188-0.963-2.153-2.148-2.153H85.805C84.62,271.125,83.657,272.09,83.657,273.278z"/>

    <path fill="none" stroke="#1A1A1A" stroke-width="0.75" stroke-miterlimit="10"
        d="M83.657,273.278v10.203
    	c0,1.189,0.963,2.154,2.148,2.154h24.452c1.185,0,2.148-0.965,2.148-2.154v-10.203c0-1.188-0.963-2.153-2.148-2.153H85.805
    	C84.62,271.125,83.657,272.09,83.657,273.278z"/>

</svg>
