<svg width="255" height="467.773" xmlns="http://www.w3.org/2000/svg">
 <g>
  <path d="m212.860002,4.06l-54.614,-3.245c-8.765,-0.523 -20.86,-0.815 -34.05,-0.815c-15.396,0 -30.115,0.396 -40.377,1.074l-41.459,2.742c-23.361,1.542 -42.36,21.851 -42.36,45.257l0,362.101c0,23.186 18.669,44.737 41.609,48.032l42.944,6.186c10.54,1.513 25.052,2.382 39.801,2.382c13.145,0 25.565,-0.676 34.959,-1.899l54.223,-7.114c23.028,-3.017 41.762,-24.364 41.762,-47.581l0,-362.096c-0.012,-23.433 -19.039,-43.633 -42.438,-45.024zm-201.019,295.033c4.085,1.6 10.057,3.605 18.021,5.657l0,23.155c-8.533,-1.595 -14.419,-3.098 -18.021,-4.139l0,-24.673zm0,30.869c3.999,1.122 9.955,2.544 18.021,4.026l0,26.254c-8.541,-1.788 -14.449,-3.448 -18.021,-4.576l0,-25.704zm0,31.94c3.999,1.214 9.915,2.793 18.021,4.453l0,23.485c-8.589,-1.137 -14.482,-2.178 -18.021,-2.904l0,-25.034zm200.145,85.102l-54.223,7.114c-8.485,1.117 -20.271,1.737 -33.197,1.737l-0.007,0c-14.704,0 -28.678,-0.798 -38.331,-2.179l-42.937,-6.19c-3.397,-0.487 -6.604,-1.635 -9.676,-3.087c2.44,0.827 4.951,1.482 7.528,1.848l42.937,6.181c10.806,1.554 25.217,2.351 39.413,2.351c12.563,0 24.948,-0.624 34.53,-1.868l54.233,-7.115c5.388,-0.705 10.521,-2.478 15.203,-5.088c-4.585,3.239 -9.816,5.555 -15.473,6.296zm31.453,-35.825c0,0.838 -0.183,1.661 -0.249,2.488c-4.895,13.533 -17.209,24.359 -31.691,26.243l-54.232,7.109c-19.962,2.62 -52.418,2.412 -72.326,-0.463l-42.944,-6.18c-12.253,-1.767 -22.909,-9.938 -28.898,-20.642c-0.734,-2.798 -1.25,-5.642 -1.25,-8.562l0,-18.172c3.865,0.776 9.798,1.797 18.108,2.863c0.475,12.767 10.847,23.877 23.628,25.004l53.065,4.586c5.863,0.508 13.563,0.767 21.267,0.767c7.704,0 15.396,-0.254 21.261,-0.767l53.065,-4.586c12.567,-1.102 22.779,-11.882 23.557,-24.374c7.795,-1.062 13.578,-2.117 17.631,-2.971l0,17.656l0.008,0l0,0.001zm-141.396,-70.167l0,27.507c-5.545,-0.254 -10.824,-0.568 -15.831,-0.924l0,-27.325c4.992,0.294 10.301,0.528 15.831,0.742zm-15.83,-6.699l0,-20.825c4.999,0.401 10.293,0.731 15.831,1.001l0,20.581c-5.531,-0.213 -10.847,-0.457 -15.831,-0.757zm15.83,40.147l0,20.429l5.926,0l0,-20.215c5.063,0.188 10.333,0.324 15.823,0.421l0,20.267c-13.918,-0.147 -26.456,-0.488 -37.579,-0.976l0,-20.824c4.999,0.355 10.308,0.644 15.83,0.898zm32.265,-32.829c5.764,0 11.243,-0.071 16.509,-0.183l0,27.71c-6.16,0.138 -12.553,0.198 -19.426,0.152c-0.577,-0.01 -1.097,-0.025 -1.673,-0.03l0,-27.659c1.549,0 3.083,0.01 4.59,0.01zm-4.59,-5.951l0,-20.429c0.774,0 1.556,0.005 2.324,0.005c6.619,0 12.793,-0.143 18.775,-0.346l0,20.602c-6.668,0.142 -13.624,0.223 -21.099,0.168zm1.627,39.547c1.831,0.016 3.644,0.025 5.421,0.025c4.88,0 9.531,-0.065 14.046,-0.152l0,20.262c-6.678,0.096 -13.64,0.132 -21.104,0.07l0,-20.23c0.571,-0.001 1.076,0.02 1.637,0.025zm5.442,26.157c7.83,0 15.036,-0.112 21.937,-0.254l0,17.555l-10.055,0.868c-11.455,1.005 -30.074,1.005 -41.515,0l-9.077,-0.787l0,-17.991c9.293,0.294 19.38,0.497 30.361,0.579c2.844,0.019 5.616,0.03 8.349,0.03zm83.243,-65.801l0,27.106c-4.621,0.909 -9.877,1.792 -15.823,2.604l0,-27.426c5.895,-0.72 11.161,-1.486 15.823,-2.284zm-15.823,-3.656l0,-22.135c5.896,-1.011 11.156,-2.103 15.823,-3.214l0,22.992c-4.646,0.819 -9.877,1.62 -15.823,2.357zm15.823,36.836l0,22.49c-4.662,0.574 -9.897,1.138 -15.823,1.655l0,-21.617c5.886,-0.787 11.172,-1.64 15.823,-2.528zm-0.228,28.497c-1.122,9.166 -8.744,16.905 -18.078,17.702l-5.434,0.478l0,-15.976c9.085,-0.655 16.9,-1.411 23.512,-2.204zm-21.521,-64.653c-5.606,0.614 -11.761,1.158 -18.464,1.635l0,-21.211c6.647,-0.654 12.862,-1.406 18.464,-2.254l0,21.83l0,0zm0,5.962l0,27.507c-5.57,0.665 -11.776,1.244 -18.464,1.747l0,-27.665c6.652,-0.457 12.862,-0.985 18.464,-1.589zm0,33.464l0,21.348c-5.616,0.426 -11.776,0.807 -18.464,1.132l0,-20.723c6.734,-0.493 12.822,-1.092 18.464,-1.757zm-7.906,27.832l0,16.077l-25.726,2.229l0,-17.173c9.461,-0.26 18.007,-0.65 25.726,-1.133zm-16.479,-65.226c-5.383,0.314 -11.085,0.559 -17.153,0.746l0,-20.718c6.018,-0.27 11.796,-0.62 17.153,-1.066l0,21.038zm0,5.89l0,27.715c-5.342,0.33 -11.115,0.569 -17.153,0.757l0,-27.735c6.038,-0.189 11.781,-0.427 17.153,-0.737zm0,33.626l0,20.622c-5.383,0.213 -11.101,0.381 -17.153,0.497l0,-20.347c6.068,-0.188 11.77,-0.451 17.153,-0.772zm-50.104,-38.547c-5.497,-0.071 -10.768,-0.173 -15.823,-0.335l0,-20.516c5.055,0.193 10.333,0.336 15.823,0.406l0,20.445zm0,5.926l0,27.635c-5.489,-0.097 -10.76,-0.229 -15.823,-0.427l0,-27.533c5.055,0.147 10.334,0.254 15.823,0.325zm-31.638,59.027l0,17.697l-23.077,-2.001l0,-16.818c7,0.436 14.711,0.817 23.077,1.122zm-11.868,-66.633c-7.165,-0.498 -13.825,-1.071 -19.822,-1.691l0,-21.535c6.03,0.853 12.657,1.625 19.822,2.29l0,20.936zm0,5.961l0,27.233c-7.18,-0.584 -13.792,-1.254 -19.822,-1.985l0,-26.888c6.005,0.605 12.672,1.157 19.822,1.64zm0,33.205l0,21.008c-7.165,-0.355 -13.825,-0.767 -19.822,-1.203l0,-21.734c6.038,0.721 12.665,1.36 19.822,1.929zm-17.135,25.959l0,16.691l-9.06,-0.787c-9.552,-0.822 -17.318,-8.912 -18.138,-18.362c7.45,0.863 16.463,1.717 27.198,2.458zm-8.602,-67.491c-7.102,-0.828 -13.383,-1.722 -18.755,-2.61l0,-22.77c5.436,1.249 11.669,2.463 18.755,3.595l0,21.785zm0,6.011l0,26.832c-7.119,-0.959 -13.35,-1.975 -18.755,-2.99l0,-26.4c5.412,0.878 11.669,1.756 18.755,2.558zm0,32.861l0,21.982c-7.109,-0.584 -13.391,-1.209 -18.755,-1.839l0,-23.059c5.42,0.996 11.699,1.981 18.755,2.916zm188.89,17.021c-3.768,0.827 -9.526,1.914 -17.483,3.026l0,-22.902c7.774,-1.69 13.437,-3.382 17.483,-4.778l0,24.654zm0,-30.976c-3.58,1.331 -9.282,3.129 -17.483,4.977l0,-26.938c7.729,-1.498 13.487,-2.971 17.483,-4.169l0,26.13zm0,-32.357c-3.61,1.152 -9.323,2.712 -17.483,4.347l0,-23.384c7.703,-2.082 13.477,-4.134 17.483,-5.784l0,24.821zm0,-31.361c-11.258,4.936 -45.696,16.839 -115.775,16.554c-69.979,-0.513 -104.469,-11.933 -115.816,-16.666l0,-236.527c5.301,-12.703 17.207,-22.688 31.065,-24.507l54.232,-7.109c19.964,-2.615 52.433,-2.402 72.323,0.464l42.939,6.18c13.848,1.991 25.735,12.134 31.036,24.908l0,236.702l-0.004,0l0,0.001zm-30.193,-267.473l-42.93,-6.177c-20.367,-2.94 -53.532,-3.146 -73.945,-0.482l-54.232,7.109c-11.969,1.564 -22.572,8.509 -29.76,18.004c2.529,-14.939 15.31,-27.088 30.77,-28.114l41.459,-2.742c10.413,-0.688 24.75,-1.082 39.342,-1.082c12.619,0 24.547,0.292 33.606,0.835l54.613,3.248c15.382,0.916 28.133,12.877 30.732,27.705c-7.19,-9.544 -17.742,-16.582 -29.655,-18.304z"/>
  <path d="m18.657002,81.908c-1.635,0 -2.96,1.326 -2.96,2.963l0,170.719c0,1.635 1.325,2.96 2.96,2.96l215.545,0c1.635,0 2.965,-1.325 2.965,-2.96l0,-170.719c0,-1.637 -1.33,-2.963 -2.965,-2.963l-215.545,0l0,0zm212.585,170.716l-209.621,0l0,-164.793l209.621,0l0,164.793l0,0z"/>
  <path d="m97.090002,44.95l63.944,0c1.635,0 2.961,-1.325 2.961,-2.96c0,-1.638 -1.326,-2.963 -2.961,-2.963l-63.944,0c-1.635,0 -2.963,1.326 -2.963,2.963c0,1.635 1.327,2.96 2.963,2.96z"/>
  <path d="m134.664002,268.442l-12.522,0c-7.45,0 -13.51,6.058 -13.51,13.507l0,10.232c0,7.449 6.061,13.508 13.51,13.508l12.522,0c7.449,0 13.508,-6.059 13.508,-13.508l0,-10.232c0,-7.449 -6.059,-13.507 -13.508,-13.507zm7.581,23.74c0,4.18 -3.401,7.586 -7.581,7.586l-12.522,0c-4.179,0 -7.584,-3.406 -7.584,-7.586l0,-10.232c0,-4.179 3.405,-7.581 7.584,-7.581l12.522,0c4.18,0 7.581,3.402 7.581,7.581l0,10.232z"/>
  <path d="m48.125002,278.359c-1.468,-0.762 -3.245,-0.168 -3.981,1.295l-1.167,2.574c-0.681,0.432 -3.903,0.914 -8.366,0.041c-4.819,-0.949 -8.312,-3.209 -8.731,-4.062l-1.318,-4.169c-0.482,-1.56 -2.102,-2.428 -3.714,-1.939c-1.557,0.481 -2.433,2.143 -1.935,3.712l1.32,4.184c1.254,4.017 7.749,7.013 13.238,8.09c0.564,0.106 3.13,0.573 5.982,0.573c3.356,0 7.094,-0.645 8.43,-3.285l1.541,-3.042c0.74,-1.453 0.164,-3.23 -1.299,-3.972z"/>
  <path d="m233.730002,275.449c-2.681,-3.265 -9.796,-3.666 -15.295,-2.625c-1.219,0.224 -11.897,2.387 -12.391,7.841l-0.305,3.387c-0.157,1.63 1.052,3.072 2.677,3.214c0.096,0.011 0.183,0.016 0.269,0.016c1.519,0 2.813,-1.152 2.945,-2.691l0.143,-2.818c0.478,-0.649 3.311,-2.285 7.759,-3.112c4.814,-0.904 8.902,-0.087 9.623,0.543l2.772,3.388c1.025,1.274 2.915,1.462 4.164,0.421c1.265,-1.036 1.462,-2.899 0.416,-4.164l-2.777,-3.4z"/>
  <path d="m222.990002,281.32c2.433,0 4.403,1.97 4.403,4.402c0,2.427 -1.971,4.397 -4.403,4.397c-2.427,0 -4.397,-1.971 -4.397,-4.397c0,-2.432 1.97,-4.402 4.397,-4.402z"/>
 </g>
</svg>
