<?xml version="1.0" encoding="utf-8"?>
<!DOCTYPE svg PUBLIC "-//W3C//DTD SVG 1.1//EN" "http://www.w3.org/Graphics/SVG/1.1/DTD/svg11.dtd">
<svg version="1.1" xmlns="http://www.w3.org/2000/svg" xmlns:xlink="http://www.w3.org/1999/xlink" x="0px" y="0px"
  viewBox="0 0 28 57" enable-background="new 0 0 28 57" xml:space="preserve">

  <g>
    <g>
      <path fill="#262626" stroke-width=".25" stroke="#666"
        d="M5.1,56.1C2.8,56.1,1,54.2,1,52V5.4c0-2.2,1.8-4.1,4.1-4.1H23c2.2,0,4.1,1.8,4.1,4.1V52
           c0,2.2-1.8,4.1-4.1,4.1H5.1z" />
    </g>

    <rect x="2.9" y="9.1" fill="#58595B" width="22.3" height="39.5" />
    <circle fill="#404041" cx="14" cy="52.6" r="2" />
    <path fill="#929497"
      d="M15.8,6.5c0.2,0,0.4-0.2,0.4-0.4l0,0c0-0.2-0.2-0.4-0.4-0.4h-3.6c-0.2,0-0.4,0.2-0.4,0.4l0,0
      c0,0.2,0.2,0.4,0.4,0.4H15.8z" />
    <circle fill="#929497" cx="14" cy="4" r="0.5" />
    <rect x="18.1" y="1" fill="#404041" width="4.2" height="0.6" />
  </g>
</svg>
